<?xml version="1.0" encoding="UTF-8" standalone="no"?>
<!-- Created with Inkscape (http://www.inkscape.org/) -->
<svg
   xmlns:dc="http://purl.org/dc/elements/1.1/"
   xmlns:cc="http://web.resource.org/cc/"
   xmlns:rdf="http://www.w3.org/1999/02/22-rdf-syntax-ns#"
   xmlns:svg="http://www.w3.org/2000/svg"
   xmlns="http://www.w3.org/2000/svg"
   xmlns:sodipodi="http://sodipodi.sourceforge.net/DTD/sodipodi-0.dtd"
   xmlns:inkscape="http://www.inkscape.org/namespaces/inkscape"
   id="svg2"
   sodipodi:version="0.32"
   inkscape:version="0.45.1"
   width="841.88977pt"
   height="595.27557pt"
   version="1.0"
   sodipodi:docbase="C:\Documents and Settings\Rendszergazda\Dokumentumok"
   sodipodi:docname="HU_counties_colored.svg"
   inkscape:output_extension="org.inkscape.output.svg.inkscape">
  <metadata
     id="metadata7">
    <rdf:RDF>
      <cc:Work
         rdf:about="">
        <dc:format>image/svg+xml</dc:format>
        <dc:type
           rdf:resource="http://purl.org/dc/dcmitype/StillImage" />
      </cc:Work>
    </rdf:RDF>
  </metadata>
  <defs
     id="defs5" />
  <sodipodi:namedview
     inkscape:window-height="938"
     inkscape:window-width="1280"
     inkscape:pageshadow="2"
     inkscape:pageopacity="0.0"
     borderopacity="1.0"
     bordercolor="#666666"
     pagecolor="#ffffff"
     id="base"
     inkscape:zoom="0.70710675"
     inkscape:cx="593.90944"
     inkscape:cy="359.12462"
     inkscape:window-x="-4"
     inkscape:window-y="-4"
     inkscape:current-layer="svg2" />
  <path
     id="path7528"
     style="fill:#107ab0;fill-opacity:1;fill-rule:evenodd;stroke:#c97a08;stroke-width:4;stroke-linecap:butt;stroke-linejoin:miter;stroke-opacity:1;stroke-dasharray:none"
     d="M 407.97579,276.77509 L 408.66454,277.87919 L 408.62035,279.64696 L 407.5155,281.19376 L 407.60388,283.84541 L 408.53196,285.12704 L 408.57616,287.6903 L 410.34392,288.97193 L 411.36039,290.51873 L 411.84652,292.37488 L 414.63076,295.20331 L 416.17755,294.14265 L 417.41499,295.42428 L 417.3708,296.70591 L 420.90633,300.32984 L 421.52505,302.00921 L 421.56924,308.81512 L 420.64117,309.96417 L 419.05017,310.53869 L 417.3266,312.7042 L 417.3708,313.80906 L 419.49212,315.97457 L 422.01118,320.17302 L 425.10478,323.3992 L 425.19317,324.8576 L 428.15418,327.68603 L 430.54066,328.79088 L 431.86649,330.24929 L 432.97134,332.90094 L 431.7781,334.84549 L 435.26944,336.48067 L 435.22524,338.5578 L 434.29717,339.79523 L 436.94882,341.34203 L 440.26338,341.25364 L 441.01468,341.96075 L 440.66113,344.78918 L 439.73305,346.20339 L 439.82144,348.72246 L 438.89336,350.04828 L 438.84917,352.52316 L 435.26944,357.20774 L 435.31363,359.50584 L 434.29717,360.96424 L 434.38555,369.44953 L 435.5788,372.32215 L 435.44621,378.15578 L 437.56753,382.39842 L 437.61173,384.78491 L 439.20272,384.91749 L 447.00141,393.264 L 447.36255,395.25668 L 448.67505,397.38168 L 445.36255,401.81918 L 445.30005,406.25668 L 446.23755,407.88168 L 447.55005,413.31918 L 447.48755,419.06918 L 446.11255,421.38168 L 445.55005,423.44418 L 443.98755,424.81918 L 443.92505,426.00668 L 442.05005,428.50668 L 442.11255,430.88168 L 441.24164,432.01922 L 439.32019,431.41412 L 437.75769,432.47662 L 433.94519,432.41412 L 432.50769,433.28912 L 433.38269,434.10162 L 433.50769,435.16412 L 434.13269,435.85162 L 432.25769,438.53912 L 432.25769,439.85162 L 430.00769,440.78912 L 425.82019,445.66412 L 422.94519,446.53912 L 421.50769,447.66412 L 422.50769,448.97662 L 421.75769,450.66412 L 418.19519,450.72662 L 416.75769,451.41412 L 416.00769,451.35162 L 414.50769,452.72662 L 412.13269,452.66412 L 410.44519,454.47662 L 411.94519,456.16412 L 412.07019,459.22662 L 412.69519,460.28912 L 411.32019,461.72662 L 408.57019,462.66412 L 407.13269,465.78912 L 405.07019,466.78912 L 402.00769,466.72662 L 401.25769,468.22662 L 398.75769,468.41412 L 397.82019,467.66412 L 397.50769,463.85162 L 396.63269,463.03912 L 396.57019,460.78912 L 397.25769,459.97662 L 395.32019,458.85162 L 395.25769,456.10162 L 393.19519,455.72662 L 392.63269,454.72662 L 390.69519,454.60162 L 389.32019,452.97662 L 389.00769,451.47662 L 386.88269,449.35162 L 386.88269,447.35162 L 384.94519,447.91412 L 381.13269,450.72662 L 380.00769,450.72662 L 379.19519,452.41412 L 380.38269,454.35162 L 379.32019,455.78912 L 376.19519,455.85162 L 375.19519,454.97662 L 372.69519,457.53912 L 370.69519,457.41412 L 366.32019,453.97662 L 367.50769,449.97662 L 365.63269,447.35162 L 364.44519,448.66412 L 361.19519,446.72662 L 361.07019,445.28912 L 358.75769,447.10162 L 358.75769,448.35162 L 356.63269,448.28912 L 354.63269,446.41412 L 352.50769,446.41412 L 350.32019,444.35162 L 350.44519,441.28912 L 349.07019,440.03912 L 343.82019,443.91412 L 343.57019,445.41412 L 342.07019,445.97662 L 341.44519,447.22662 L 339.38269,447.22662 L 338.50769,448.28912 L 337.13268,447.28912 L 335.50763,447.47789 L 334.00763,445.22789 L 333.69513,437.35289 L 334.88263,436.04039 L 333.75763,434.60289 L 333.88263,430.35289 L 334.69513,429.04039 L 333.38263,426.97789 L 336.19513,424.79039 L 333.07013,417.22789 L 332.50763,414.66539 L 330.19513,411.66539 L 331.20927,409.76461 L 333.08427,409.57711 L 334.02177,408.82711 L 333.89677,407.63961 L 335.08427,406.01461 L 335.14677,404.32711 L 336.45927,402.38961 L 336.58427,400.20211 L 339.14678,399.01461 L 340.52178,396.51461 L 338.89678,394.63961 L 337.64677,392.07711 L 335.77177,390.20211 L 336.20927,387.76461 L 335.02177,383.13961 L 338.52178,380.13961 L 339.45928,379.07711 L 338.58428,377.63961 L 338.52178,373.20211 L 337.45927,372.01461 L 337.52177,368.95211 L 336.33427,367.26461 L 336.27177,365.26461 L 338.39678,362.51461 L 337.33427,359.51461 L 338.33428,358.20211 L 338.70928,354.51461 L 337.45927,351.51461 L 333.27177,351.3896 L 331.08427,349.1396 L 330.83427,346.9521 L 329.39677,344.8896 L 329.27177,343.5146 L 327.89677,342.2646 L 323.95927,344.1396 L 322.08427,346.2646 L 320.83427,346.2646 L 320.33427,345.0146 L 318.95927,345.2646 L 318.89677,343.0771 L 317.27177,342.1396 L 316.70927,341.0146 L 316.39677,339.2021 L 315.08427,339.2021 L 313.39677,340.4521 L 313.02177,339.8896 L 312.73975,333.77839 L 314.5959,332.01063 L 314.5959,330.77319 L 312.73975,330.6848 L 311.41392,329.80092 L 311.5907,328.07735 L 310.57182,326.62612 L 314.99124,323.44414 L 314.99124,323.44414 L 314.99124,323.44414 L 316.8474,323.39994 L 318.48258,322.42767 L 316.53804,320.74829 L 317.42192,319.37827 L 318.04064,315.97532 L 319.67582,315.88693 L 321.84134,313.80981 L 321.79714,309.78814 L 323.21136,307.7552 L 322.19489,305.05936 L 322.19489,303.73353 L 324.13944,303.77773 L 325.2001,302.62868 L 326.21656,302.58449 L 327.36561,304.66161 L 329.00079,304.75 L 330.63598,303.29159 L 332.7573,303.73353 L 333.77377,302.71707 L 333.59699,297.54635 L 336.20445,297.45796 L 337.88382,300.06542 L 341.41936,301.61221 L 340.3587,302.67287 L 341.33097,303.77773 L 341.19839,305.5013 L 342.43582,305.67808 L 344.82231,308.28553 L 345.92716,308.41812 L 345.92716,309.21361 L 349.86045,313.14689 L 352.24693,313.36787 L 354.32406,310.76041 L 355.20794,311.29074 L 357.28507,311.29074 L 360.77641,309.69975 L 359.84833,308.28553 L 358.47831,307.66682 L 357.94798,306.16421 L 357.85959,303.60095 L 360.42285,300.50736 L 362.14643,301.34705 L 363.20709,303.29159 L 365.59357,301.56802 L 365.59357,299.75606 L 368.06845,297.63474 L 367.98006,296.30891 L 370.14557,294.0992 L 371.4272,295.42503 L 372.70883,295.51342 L 375.05113,297.9441 L 376.33276,298.34185 L 377.21664,295.07148 L 380.48701,292.81757 L 383.66899,296.17633 L 385.74612,296.04375 L 383.88996,294.36437 L 383.88996,292.02208 L 383.00608,292.06627 L 379.24957,288.53074 L 379.24957,284.59746 L 377.39342,282.47614 L 377.34922,281.41548 L 378.85182,279.60351 L 380.84056,279.60351 L 384.81804,281.2387 L 384.86223,279.6919 L 386.89516,277.79155 L 389.19326,277.74736 L 390.4307,276.6867 L 392.77299,276.59831 L 393.78946,277.61478 L 396.83885,278.10091 L 398.56243,276.73089 L 407.97579,276.77509 z "
     sodipodi:nodetypes="cccccccccccccccccccccccccccccccccccccccccccccccccccccccccccccccccccccccccccccccccccccccccccccccccccccccccccccccccccccccccccccccccccccccccccccccccccccccccccccccccccccccccccccccccccccccccccccccccccccccccccccccccccccccccccccccccccccccccccccccccccccccccccccccccccccccccccccccccccccccccccc" />
</svg>
