<?xml version="1.0" encoding="UTF-8" standalone="no"?>
<!-- Created with Inkscape (http://www.inkscape.org/) -->
<svg
   xmlns:dc="http://purl.org/dc/elements/1.1/"
   xmlns:cc="http://web.resource.org/cc/"
   xmlns:rdf="http://www.w3.org/1999/02/22-rdf-syntax-ns#"
   xmlns:svg="http://www.w3.org/2000/svg"
   xmlns="http://www.w3.org/2000/svg"
   xmlns:sodipodi="http://sodipodi.sourceforge.net/DTD/sodipodi-0.dtd"
   xmlns:inkscape="http://www.inkscape.org/namespaces/inkscape"
   id="svg2"
   sodipodi:version="0.32"
   inkscape:version="0.45.1"
   width="841.88977pt"
   height="595.27557pt"
   version="1.0"
   sodipodi:docbase="C:\Documents and Settings\Rendszergazda\Dokumentumok"
   sodipodi:docname="HU_counties_colored.svg"
   inkscape:output_extension="org.inkscape.output.svg.inkscape">
  <metadata
     id="metadata7">
    <rdf:RDF>
      <cc:Work
         rdf:about="">
        <dc:format>image/svg+xml</dc:format>
        <dc:type
           rdf:resource="http://purl.org/dc/dcmitype/StillImage" />
      </cc:Work>
    </rdf:RDF>
  </metadata>
  <defs
     id="defs5" />
  <sodipodi:namedview
     inkscape:window-height="938"
     inkscape:window-width="1280"
     inkscape:pageshadow="2"
     inkscape:pageopacity="0.0"
     borderopacity="1.0"
     bordercolor="#666666"
     pagecolor="#ffffff"
     id="base"
     inkscape:zoom="0.70710675"
     inkscape:cx="593.90944"
     inkscape:cy="359.12462"
     inkscape:window-x="-4"
     inkscape:window-y="-4"
     inkscape:current-layer="svg2" />
  <path
     id="path4022"
     style="fill:#107ab0;fill-opacity:1;fill-rule:evenodd;stroke:black;stroke-width:4;stroke-linecap:butt;stroke-linejoin:miter;stroke-opacity:1;stroke-dasharray:none"
     d="M 537.56253,239.03196 L 536.41397,241.23896 L 538.78897,244.17646 L 538.97647,245.11396 L 541.10147,246.30146 L 540.28897,248.05146 L 540.35147,250.61396 L 538.91397,252.30146 L 541.66397,255.42646 L 541.66397,257.42646 L 546.47647,261.48896 L 546.53897,263.05146 L 548.10147,266.11396 L 549.35147,267.73896 L 549.28897,270.30146 L 550.16397,272.30146 L 553.55366,272.46436 L 555.55366,274.46436 L 555.67866,271.77686 L 554.99116,270.27686 L 556.55366,268.02686 L 559.05366,268.02686 L 561.61616,266.02686 L 564.42866,266.02686 L 568.49116,268.77686 L 571.80366,271.52686 L 573.05366,271.52686 L 576.42866,265.46436 L 577.30366,265.46436 L 580.55366,262.71436 L 580.49116,256.33936 L 581.61616,255.46436 L 583.05366,257.08936 L 586.30366,258.71436 L 588.67866,257.40186 L 591.67866,256.46436 L 594.61616,253.52686 L 596.30366,254.96436 L 597.99116,254.21436 L 599.80366,256.65186 L 599.61616,264.15186 L 601.80366,267.15186 L 602.05366,268.83936 L 600.36616,269.58936 L 600.55366,271.15186 L 601.86616,272.96436 L 601.92866,273.77686 L 603.36616,275.65186 L 605.11616,275.71436 L 606.36616,277.15186 L 615.99116,279.27686 L 618.24116,277.02686 L 617.55366,275.83936 L 616.24116,275.83936 L 615.80366,274.33936 L 614.42866,272.77686 L 614.42866,271.52686 L 617.36616,271.58936 L 624.61616,268.83936 L 625.99116,267.77686 L 629.49116,268.21436 L 629.80366,270.83936 L 633.05366,277.33936 L 637.05366,279.90186 L 637.17866,280.90186 L 639.42866,282.33936 L 642.17866,282.65186 L 644.11616,288.65187 L 641.49116,293.52687 L 641.55366,295.27687 L 642.74116,295.33937 L 643.92866,297.52687 L 647.42866,300.40187 L 649.55366,303.58937 L 653.11616,303.77687 L 655.11616,302.83937 L 655.92866,304.46437 L 655.86616,307.08937 L 657.36616,308.46437 L 660.92866,308.46437 L 665.92866,303.65187 L 665.80366,300.58937 L 667.74116,300.02687 L 669.05366,298.33937 L 672.99116,298.46437 L 674.42866,297.52687 L 674.30366,295.40187 L 675.67866,293.46437 L 675.67866,291.65187 L 676.80366,290.77687 L 677.86616,290.77687 L 680.61616,288.71437 L 683.55366,287.96437 L 685.17866,286.77687 L 685.86616,284.90186 L 686.80366,283.90186 L 692.24116,281.71436 L 697.05367,277.83936 L 697.05367,275.02686 L 700.42867,275.46436 L 703.42867,272.65186 L 703.30367,271.15186 L 701.92867,270.15186 L 701.86617,268.21436 L 704.74117,265.65186 L 704.67867,263.65186 L 703.36617,262.02686 L 704.42867,260.15186 L 706.67867,259.52686 L 709.86617,259.52686 L 711.42867,258.02686 L 710.99183,255.44465 L 706.43393,253.02597 L 702.45673,249.02777 L 699.06353,249.79478 L 697.66303,249.10336 L 696.34223,249.91703 L 692.25553,249.87609 L 689.39823,247.61307 L 687.57263,247.5199 L 685.26473,244.22622 L 682.74843,244.02309 L 682.66963,241.56996 L 685.02833,238.30433 L 683.19963,236.03869 L 681.05833,235.46056 L 680.85453,234.00743 L 677.46323,231.6168 L 675.63443,231.03867 L 675.03223,228.65585 L 671.80503,223.83553 L 671.76533,221.45271 L 673.47563,219.31989 L 673.56093,216.81208 L 671.77113,214.17926 L 671.66753,211.38043 L 669.25133,210.8941 L 665.89763,209.72027 L 665.53563,208.26506 L 663.29393,206.04644 L 665.36033,203.11846 L 669.77443,202.25889 L 671.16253,200.33339 L 671.17463,198.56451 L 673.06673,197.78862 L 670.65203,194.9683 L 667.98733,193.58548 L 666.01003,190.89016 L 663.65783,189.13234 L 667.49313,184.93703 L 668.22623,177.35889 L 669.37393,176.41357 L 669.33423,173.84325 L 667.35703,171.14793 L 670.37983,166.82761 L 667.90263,163.06979 L 667.98793,158.12448 L 666.76063,156.80416 L 666.90843,154.23384 L 664.61873,153.10102 L 664.70153,151.23682 L 662.40933,149.31012 L 660.37353,150.31381 L 657.89993,150.41786 L 657.04223,149.44107 L 654.71003,150.58792 L 654.60793,153.22032 L 652.94703,154.97235 L 652.89833,156.28967 L 651.13733,157.51922 L 650.50323,162.13226 L 649.27063,161.99602 L 647.71993,160.38745 L 646.38143,159.96511 L 643.43893,156.37377 L 641.92793,157.41583 L 640.16693,156.77038 L 638.85063,158.32924 L 638.71893,161.02513 L 637.71843,161.99993 L 635.13103,162.07919 L 634.74163,163.22609 L 630.04863,163.10496 L 628.64493,161.94076 L 627.12713,161.71576 L 627.06133,160.50388 L 624.92773,159.21161 L 623.00383,159.1475 L 622.42993,158.04771 L 622.45893,155.50254 L 621.53913,153.67007 L 618.46913,152.49729 L 614.46173,152.44951 L 613.01673,153.58924 L 610.44783,150.86966 L 610.53128,153.09445 L 608.31253,156.59445 L 604.87503,156.90695 L 604.12503,158.21945 L 604.00003,159.59445 L 603.56253,160.15695 L 602.25003,160.15695 L 601.25003,161.09445 L 598.56253,161.09445 L 597.93753,162.21945 L 596.50003,162.40695 L 594.12503,164.09445 L 593.93753,166.53195 L 600.00003,171.71945 L 599.50003,173.65695 L 599.62503,179.53195 L 601.43753,181.28195 L 600.18753,182.21945 L 598.06253,182.34445 L 594.50003,185.15695 L 594.81253,188.96945 L 593.18753,190.46945 L 593.75003,192.90695 L 593.06253,194.46945 L 591.50003,194.46945 L 590.81253,195.84445 L 588.81253,195.78195 L 588.43753,199.15695 L 584.81253,201.59446 L 582.93753,201.53196 L 580.25003,198.90695 L 574.87503,199.03195 L 573.00003,199.90695 L 570.93753,199.40695 L 569.68753,201.09445 L 571.00003,203.90696 L 573.00003,204.03196 L 576.31253,205.71946 L 576.62503,207.71946 L 575.18753,210.78196 L 572.68753,210.78196 L 571.62503,209.09446 L 569.75003,209.15696 L 569.75003,207.71946 L 565.68753,204.46946 L 563.75003,206.40696 L 564.25003,211.65696 L 561.00003,214.09446 L 557.18753,221.21946 L 557.75003,223.78196 L 556.68753,224.28196 L 553.37503,222.90696 L 551.31253,225.09446 L 550.12503,225.09446 L 550.00003,226.21946 L 548.68753,227.53196 L 548.68753,225.59446 L 547.31253,224.84446 L 545.37503,226.03196 L 545.37503,228.90696 L 546.50003,230.34446 L 545.93753,236.09446 L 544.62503,237.90696 L 542.25003,236.03196 L 539.12503,239.03196 L 537.56253,239.03196 z "
     sodipodi:nodetypes="ccccccccccccccccccccccccccccccccccccccccccccccccccccccccccccccccccccccccccccccccccccccccccccccccccccccccccccccccccccccccccccccccccccccccccccccccccccccccccccccccccccccccccccccccccccccccccccccccccccccccccccccccccccccccccccccccccccccccccccccccccccccccccccccccccccc" />
</svg>
