<?xml version="1.0" encoding="UTF-8" standalone="no"?>
<!-- Created with Inkscape (http://www.inkscape.org/) -->

<svg
   id="svg2"
   sodipodi:version="0.32"
   inkscape:version="1.3.2 (091e20e, 2023-11-25)"
   width="841.88977pt"
   height="595.27557pt"
   version="1.0"
   sodipodi:docname="HU_Szatmar.svg"
   inkscape:output_extension="org.inkscape.output.svg.inkscape"
   xmlns:inkscape="http://www.inkscape.org/namespaces/inkscape"
   xmlns:sodipodi="http://sodipodi.sourceforge.net/DTD/sodipodi-0.dtd"
   xmlns="http://www.w3.org/2000/svg"
   xmlns:svg="http://www.w3.org/2000/svg"
   xmlns:rdf="http://www.w3.org/1999/02/22-rdf-syntax-ns#"
   xmlns:cc="http://creativecommons.org/ns#"
   xmlns:dc="http://purl.org/dc/elements/1.1/">
  <metadata
     id="metadata7">
    <rdf:RDF>
      <cc:Work
         rdf:about="">
        <dc:format>image/svg+xml</dc:format>
        <dc:type
           rdf:resource="http://purl.org/dc/dcmitype/StillImage" />
      </cc:Work>
    </rdf:RDF>
  </metadata>
  <defs
     id="defs5" />
  <sodipodi:namedview
     inkscape:window-height="1259"
     inkscape:window-width="2432"
     inkscape:pageshadow="2"
     inkscape:pageopacity="0.0"
     borderopacity="1.0"
     bordercolor="#666666"
     pagecolor="#ffffff"
     id="base"
     inkscape:zoom="0.70710675"
     inkscape:cx="593.26262"
     inkscape:cy="359.21026"
     inkscape:window-x="1546"
     inkscape:window-y="51"
     inkscape:current-layer="svg2"
     inkscape:showpageshadow="0"
     inkscape:pagecheckerboard="0"
     inkscape:deskcolor="#505050"
     inkscape:document-units="pt"
     inkscape:window-maximized="0" />
  <path
     style="fill:#107ab0;fill-opacity:1;fill-rule:evenodd;stroke:black;stroke-width:4;stroke-linecap:butt;stroke-linejoin:miter;stroke-opacity:1;stroke-dasharray:none"
     d="M 905.3125,92.156981 L 903.47379,93.148135 L 902.68909,96.584345 L 902.65439,99.333045 L 901.48949,100.59834 L 901.57449,101.98864 L 899.22209,104.75394 L 899.05719,108.76923 L 896.57979,108.19079 L 895.78979,109.79983 L 895.74989,111.90888 L 894.64749,112.58043 L 893.26859,111.03955 L 890.82239,110.65772 L 889.69559,109.05618 L 885.96949,112.95382 L 883.84249,112.94922 L 883.51629,114.99454 L 879.37749,119.16487 L 877.61379,120.08519 L 877.59999,122.25551 L 874.61749,124.94146 L 872.00999,123.43991 L 869.46499,125.25086 L 865.73249,125.68681 L 864.29689,127.41963 L 862.48629,125.77746 L 860.61309,126.26028 L 859.30459,128.95882 L 857.89419,129.03076 L 857.95139,131.46347 L 856.09739,131.96707 L 855.48999,133.9306 L 853.24759,134.04989 L 852.38019,134.73166 L 848.63779,134.72594 L 846.95789,135.59521 L 843.09049,135.02699 L 841.16059,136.58376 L 831.54319,136.70304 L 830.23829,134.94731 L 828.74589,134.67596 L 826.37849,133.2171 L 824.82359,135.25825 L 820.89369,136.0494 L 817.58879,138.85618 L 815.05139,141.67465 L 813.65889,139.72545 L 812.16659,139.90723 L 811.84139,141.5769 L 809.79379,142.01398 L 809.41849,140.68324 L 807.92419,139.839 L 806.37149,141.51544 L 805.75299,143.53993 L 804.15519,144.08226 L 804.14439,148.30335 L 804.84819,150.37928 L 802.30209,153.2052 L 804.27919,156.61489 L 806.13129,156.83708 L 807.98339,159.37177 L 806.33549,160.84396 L 808.33959,162.93044 L 807.84519,164.62178 L 806.04909,165.56615 L 805.82529,168.47584 L 802.97649,168.38553 L 802.04289,168.99686 L 803.26649,170.45512 L 803.31519,171.79522 L 801.33269,173.13815 L 799.85019,172.04359 L 794.74269,172.26152 L 794.13519,174.10445 L 791.38709,174.97863 L 790.51389,173.22781 L 786.51579,172.852 L 785.76769,171.60118 L 784.64459,172.28786 L 782.08389,171.91205 L 779.58579,168.22373 L 776.21269,171.34791 L 776.21459,174.15959 L 774.65389,175.53377 L 772.65579,174.15796 L 768.29689,173.79838 L 767.56299,171.3138 L 764.07909,171.51672 L 762.65769,170.53214 L 761.41219,172.89741 L 760.22919,173.38768 L 759.42119,174.69045 L 757.48819,175.55572 L 755.86769,177.98348 L 755.80969,181.03625 L 758.56419,184.15152 L 758.63119,186.64179 L 761.16689,187.49143 L 761.95269,189.02858 L 764.75,190.12573 L 766.375,188.09448 L 768.125,188.09448 L 769.5625,189.53198 L 771.75,189.53198 L 775.9375,192.65698 L 778.125,192.59448 L 778.125,194.15698 L 782.5,196.84448 L 782.625,198.96948 L 783.9375,200.03198 L 787,199.03198 L 791.1875,196.78198 L 803.625,196.90698 L 804.25,195.90698 L 805.9375,195.84448 L 806.5,194.65698 L 808.25,194.40698 L 815.375,194.40698 L 817.125,193.71948 L 818.875,191.40698 L 821.125,192.34448 L 824.25,192.28198 L 825.9375,193.96948 L 825.875,195.53198 L 824.6875,197.59448 L 824.75,201.96948 L 826.25,202.59448 L 826,206.40698 L 824.625,208.53198 L 824.75,213.46948 L 823.875,216.40698 L 823.875,223.78198 L 830.5625,226.96948 L 834.4375,229.96948 L 834.625,232.34448 L 836.9375,234.46948 L 837.1875,236.21948 L 842.875,237.46948 L 847.0625,236.15698 L 851.375,241.21948 L 857.375,241.15698 L 857.3125,243.59448 L 858.5,244.96948 L 861.875,245.53198 L 863.125,247.90698 L 865.25,247.90698 L 866.25,248.78198 L 868.375,248.65698 L 869.625,246.71948 L 871.125,245.90698 L 874.6875,242.40698 L 874.8125,236.53198 L 876.9375,236.28198 L 879.375,234.90698 L 881.4375,235.40698 L 884.0625,237.28198 L 886,240.09448 L 890,240.28198 L 888.6875,244.21948 L 889.6875,246.65698 L 890.875,246.59448 L 892.0625,248.65698 L 894.125,248.78198 L 893.5,251.03198 L 892.1875,252.96948 L 894.25,257.03198 L 895.8125,257.90698 L 896.75,256.21948 L 897.875,255.34448 L 900.125,252.09448 L 901.125,249.84448 L 901.1875,247.78198 L 903,247.65698 L 904.875,248.59448 L 908,254.28198 L 909.0625,259.09448 L 910.0625,260.09448 L 910,261.28198 L 911.875,262.96948 L 913.0625,262.65698 L 914.4375,263.84448 L 917.0625,263.84448 L 918.4375,262.53198 L 918.375,260.90698 L 919.8125,259.84448 L 919.8125,256.34448 L 921.125,254.46948 L 921.0625,251.34448 L 923.6875,249.03198 L 924.5,247.40698 L 924.0625,242.65698 L 925.25,241.28198 L 927,241.21948 L 928.25,240.71948 L 929.375,239.09448 L 929.25,234.21948 L 929.8125,232.15698 L 932.25,233.40698 L 934.1875,231.28198 L 936.375,230.53198 L 937.8125,229.40698 L 938.5,227.21948 L 939.6875,225.71948 L 941.5625,227.71948 L 943.4375,227.65698 L 944.625,229.03198 L 947.1875,228.90698 L 949,227.84448 L 949.875,228.96948 L 953.25,228.90698 L 952.875,226.84448 L 954,224.34448 L 954.0625,219.78198 L 955.25,217.34448 L 955.1875,215.78198 L 957.5625,215.84448 L 959.1875,214.34448 L 960.625,214.21948 L 971.125,221.78198 L 979.8125,221.71948 L 979.8125,220.34448 L 982.9375,220.46948 L 983.5,219.59448 L 985.25,220.28198 L 985.9375,218.84448 L 987.8125,218.96948 L 987.875,217.90698 L 989.1875,217.90698 L 990.625,216.90698 L 990.75,214.96948 L 992.6875,213.59448 L 992.625,211.53198 L 993.5625,208.84448 L 995.6875,206.40698 L 996.8125,207.28198 L 1000.75,207.15698 L 1002.8125,204.78198 L 1002.8125,201.21948 L 1000.9375,200.90698 L 1000.4375,200.15698 L 1001.875,197.09448 L 1000.625,194.71948 L 1004.1875,194.71948 L 1006.0625,194.15698 L 1010.25,191.03198 L 1013.25,191.03198 L 1016.375,184.53198 L 1019.625,179.84448 L 1017.9375,177.65698 L 1015.625,176.65698 L 1015.5625,175.40698 L 1013.375,175.40698 L 1011.5625,173.15698 L 1011.5625,171.46948 L 1014.625,168.15698 L 1014.6875,166.46948 L 1015.625,165.09448 L 1015.625,159.40698 L 1014.25,158.28198 L 1013.25,156.40698 L 1013.25,154.40698 L 1011.6875,153.21948 L 1009.5,153.21948 L 1009.5625,151.21948 L 1008.25,150.09448 L 1008.25,147.59448 L 1007.5,146.28198 L 1005.8125,146.21948 L 1004.9375,147.28198 L 1003.8125,146.03198 L 1001.8125,145.96948 L 1000.4375,147.59448 L 999,147.53198 L 997.9375,146.28198 L 995.5,146.03198 L 993.5,147.21948 L 992,147.15698 L 988.8125,150.40698 L 987.5,150.34448 L 986.5625,151.46948 L 986.1875,152.59448 L 984.625,152.59448 L 983.1875,151.34448 L 979.5625,151.34448 L 977.8125,150.21948 L 975,150.15698 L 974,149.15698 L 974.3125,146.15698 L 973.3125,142.96948 L 973.1875,140.21948 L 972.125,138.78198 L 970.3125,138.03198 L 970.3125,136.53198 L 969,134.84448 L 968.8125,133.21948 L 970.0625,131.40698 L 969.125,129.96948 L 967.375,129.84448 L 966.6875,128.09448 L 963.3125,126.59448 L 962.25,125.03198 L 961,124.21948 L 961.875,123.09448 L 960.625,121.59448 L 959.0625,121.03198 L 959,119.53198 L 957.75,118.34448 L 955.875,119.78198 L 954.3125,119.71948 L 953.75,121.15698 L 952.125,121.40698 L 950.125,119.65698 L 947,119.15698 L 945.125,119.59448 L 944.625,121.09448 L 942.375,122.65698 L 940.4375,121.84448 L 940.625,119.84448 L 939.625,118.90698 L 939.5,117.28198 L 937.125,115.53198 L 936.3125,113.96948 L 935.375,109.78198 L 935.375,108.15698 L 931.75,104.53198 L 931.5625,100.40698 L 932.4375,98.469481 L 931.1875,97.531981 L 929.9375,98.469481 L 928.4375,97.406981 L 926.875,97.469481 L 924.8125,96.281981 L 923.625,97.406981 L 923.8125,95.656981 L 922.75,95.031981 L 922.25,92.844481 L 921.25,91.656981 L 922.9375,89.156981 L 923,87.344481 L 923.75,85.719481 L 922.5625,85.156981 L 920.625,86.969481 L 918.375,84.656981 L 916.8125,84.531981 L 916,83.344481 L 914.75,82.906981 L 912.375,85.281981 L 910.25,85.469481 L 909.0625,86.594481 L 907.75,86.719481 L 907.8125,88.969481 L 905.5625,90.719481 L 905.3125,92.156981 z "
     id="path2293"
     sodipodi:nodetypes="cccccccccccccccccccccccccccccccccccccccccccccccccccccccccccccccccccccccccccccccccccccccccccccccccccccccccccccccccccccccccccccccccccccccccccccccccccccccccccccccccccccccccccccccccccccccccccccccccccccccccccccccccccccccccccccccccccccccccccccccccccccccccccccccccccccccccccccccccccccccccccccccccccccccccccccccccccccccccccccccccccccccccccccccccccccccccccccccccc" />
</svg>
