<?xml version="1.0" encoding="UTF-8" standalone="no"?>
<!-- Created with Inkscape (http://www.inkscape.org/) -->
<svg
   xmlns:dc="http://purl.org/dc/elements/1.1/"
   xmlns:cc="http://web.resource.org/cc/"
   xmlns:rdf="http://www.w3.org/1999/02/22-rdf-syntax-ns#"
   xmlns:svg="http://www.w3.org/2000/svg"
   xmlns="http://www.w3.org/2000/svg"
   xmlns:sodipodi="http://sodipodi.sourceforge.net/DTD/sodipodi-0.dtd"
   xmlns:inkscape="http://www.inkscape.org/namespaces/inkscape"
   id="svg2"
   sodipodi:version="0.32"
   inkscape:version="0.45.1"
   width="841.88977pt"
   height="595.27557pt"
   version="1.0"
   sodipodi:docbase="C:\Documents and Settings\Rendszergazda\Dokumentumok"
   sodipodi:docname="HU_counties_colored.svg"
   inkscape:output_extension="org.inkscape.output.svg.inkscape">
  <metadata
     id="metadata7">
    <rdf:RDF>
      <cc:Work
         rdf:about="">
        <dc:format>image/svg+xml</dc:format>
        <dc:type
           rdf:resource="http://purl.org/dc/dcmitype/StillImage" />
      </cc:Work>
    </rdf:RDF>
  </metadata>
  <defs
     id="defs5" />
  <sodipodi:namedview
     inkscape:window-height="938"
     inkscape:window-width="1280"
     inkscape:pageshadow="2"
     inkscape:pageopacity="0.0"
     borderopacity="1.0"
     bordercolor="#666666"
     pagecolor="#ffffff"
     id="base"
     inkscape:zoom="0.70710675"
     inkscape:cx="593.90944"
     inkscape:cy="359.12462"
     inkscape:window-x="-4"
     inkscape:window-y="-4"
     inkscape:current-layer="svg2" />
  <path
     id="path7536"
     style="fill:#107ab0;fill-opacity:1;fill-rule:evenodd;stroke:#c97a08;stroke-width:4;stroke-linecap:butt;stroke-linejoin:miter;stroke-opacity:1;stroke-dasharray:none"
     d="M 337.12501,447.34447 L 335.50044,447.53307 L 334.75044,448.40807 L 332.81294,448.53307 L 331.37544,449.72057 L 329.64478,449.76237 L 328.7609,451.35337 L 329.68898,456.21467 L 326.90475,456.34727 L 326.37442,455.64017 L 324.2089,457.36377 L 320.93853,458.82217 L 321.86661,460.19217 L 321.82242,462.09247 L 322.79469,463.46257 L 322.88308,470.04747 L 321.51306,471.37327 L 319.78948,472.30137 L 319.03818,473.75977 L 319.83368,475.43917 L 316.91686,477.47207 L 317.04944,480.52147 L 315.28168,481.18447 L 314.39779,483.52667 L 316.62544,488.15797 L 314.87544,491.84547 L 314.87544,494.09547 L 312.00044,496.34547 L 309.68794,495.72047 L 308.87544,497.03297 L 309.06294,499.28297 L 307.75044,501.09547 L 307.68794,503.90797 L 309.31294,506.53297 L 308.75044,510.22047 L 310.00044,511.65797 L 309.93794,513.84547 L 311.31294,515.90797 L 311.31294,517.59547 L 312.93794,520.90797 L 313.00044,524.34547 L 311.18794,525.22047 L 310.31294,526.22047 L 308.43794,526.22047 L 307.50044,527.90797 L 304.50044,530.15797 L 304.87544,532.78297 L 310.31294,532.59547 L 312.62544,535.47047 L 312.68794,537.28297 L 314.43794,537.53297 L 315.50044,540.65797 L 315.50044,545.72047 L 313.56294,548.59547 L 313.37544,549.97047 L 314.31294,550.47047 L 314.72426,551.92397 L 317.41176,551.23647 L 320.16176,555.79897 L 322.16176,554.42397 L 322.16176,553.23647 L 320.47426,553.11147 L 318.97426,550.79897 L 318.97426,547.98647 L 321.03676,547.92397 L 322.47426,547.04897 L 323.66176,548.17397 L 326.16176,548.11147 L 329.09926,545.36147 L 331.59926,544.73647 L 332.66176,542.92397 L 332.72426,540.11147 L 330.78676,537.17397 L 330.91176,531.11147 L 335.28676,528.92397 L 337.34926,529.79897 L 339.72426,528.86147 L 340.91176,529.67397 L 342.41176,529.73647 L 344.28676,528.04897 L 347.53676,528.86147 L 348.53676,527.42397 L 350.91176,527.36147 L 354.16176,530.92397 L 352.91176,534.17397 L 353.41176,535.86147 L 355.41176,539.23647 L 356.59926,539.17397 L 358.66176,540.29897 L 360.59926,542.54897 L 360.53676,544.48647 L 358.66176,545.98647 L 358.72426,553.17397 L 360.22426,553.54897 L 362.03676,555.23647 L 363.97426,555.17397 L 365.19491,557.24027 L 364.17845,558.12417 L 363.11779,563.20647 L 361.65938,565.68137 L 360.37775,565.94647 L 359.49387,566.69777 L 356.40027,567.97947 L 356.44447,569.48207 L 358.25643,571.16137 L 359.71484,571.16137 L 360.81969,569.79137 L 362.32229,568.42137 L 364.44361,567.53747 L 365.63686,565.90227 L 366.60913,565.90227 L 368.20012,564.44387 L 369.57014,564.13457 L 370.23305,562.72037 L 371.47049,562.23417 L 374.82924,558.69867 L 374.03375,557.46117 L 375.09441,555.51667 L 374.96183,553.92567 L 377.4367,554.50017 L 378.76253,554.01407 L 380.39771,556.57737 L 380.4861,557.81477 L 381.45837,558.74287 L 383.00517,558.78707 L 383.84486,563.95777 L 381.76773,566.21167 L 381.81192,567.58167 L 384.59616,568.73077 L 385.25907,570.05657 L 386.76167,570.18917 L 388.26427,568.77497 L 388.66202,570.01237 L 387.68975,570.76367 L 387.77814,573.85727 L 388.97138,573.94567 L 390.2972,574.74117 L 391.00431,576.15537 L 391.13689,577.48117 L 392.24175,577.52537 L 393.83274,576.50887 L 395.60051,578.58607 L 396.74955,578.58607 L 404.12998,586.89457 L 404.04159,588.17617 L 405.45581,589.76717 L 408.59359,589.81137 L 409.61006,591.04877 L 411.81977,591.13717 L 414.95158,593.24807 L 417.81144,592.48177 L 419.20303,593.87337 L 421.68478,594.28227 L 423.89449,593.57517 L 424.07126,591.45387 L 426.10419,589.95127 L 426.36936,587.91837 L 428.13713,586.68087 L 428.04874,581.46597 L 429.02101,579.78657 L 429.02101,578.10727 L 430.43522,576.07427 L 432.46816,575.19047 L 432.46816,571.30137 L 432.46816,571.30137 L 432.46816,571.30137 L 426.89969,573.15747 L 426.72291,572.00847 L 428.04874,568.64967 L 431.05394,566.52837 L 432.55654,566.79357 L 433.26365,563.16957 L 431.93783,560.07597 L 432.9101,558.57337 L 437.15274,562.19737 L 438.56695,561.22507 L 438.47856,559.54567 L 439.89278,557.68957 L 439.98117,554.24237 L 441.13021,551.14877 L 440.42311,547.87847 L 437.68307,546.28747 L 437.85984,544.60807 L 436.79918,543.37057 L 436.97596,536.12277 L 435.29658,533.20597 L 435.29658,528.87497 L 436.97596,525.60457 L 439.27406,523.74837 L 440.68827,519.68257 L 440.86505,514.20247 L 440.06955,510.49017 L 438.56695,509.16437 L 438.03662,506.24747 L 436.44563,503.24227 L 437.94823,500.41387 L 437.85984,499.17647 L 436.79918,497.49707 L 436.88757,494.13827 L 435.20819,491.39827 L 433.26365,490.77957 L 432.29138,489.18857 L 432.37977,487.42077 L 430.96555,485.82977 L 432.55654,484.23877 L 435.03142,479.20057 L 436.54647,478.44957 L 438.60897,479.82457 L 439.98397,479.76207 L 440.60897,478.82457 L 442.60897,478.82457 L 444.29647,476.57457 L 446.73397,476.51207 L 449.85897,473.32457 L 452.17147,468.57457 L 454.04647,467.13707 L 454.17147,463.94957 L 450.92147,459.51207 L 450.79647,457.19957 L 449.79647,455.69957 L 449.73397,452.44957 L 448.54647,450.38707 L 448.10897,448.38707 L 445.35897,445.07457 L 445.10897,444.01207 L 440.73397,439.38707 L 441.23397,432.07457 L 439.31252,431.46947 L 437.75002,432.53197 L 433.93752,432.46947 L 432.50002,433.34447 L 433.37502,434.15697 L 433.50002,435.21947 L 434.12502,435.90697 L 432.25002,438.59447 L 432.25002,439.90697 L 430.00002,440.84447 L 425.81252,445.71947 L 422.93752,446.59447 L 421.50002,447.71947 L 422.50002,449.03197 L 421.75002,450.71947 L 418.18752,450.78197 L 416.75002,451.46947 L 416.00002,451.40697 L 414.50002,452.78197 L 412.12502,452.71947 L 410.43752,454.53197 L 411.93752,456.21947 L 412.06252,459.28197 L 412.68752,460.34447 L 411.31252,461.78197 L 408.56252,462.71947 L 407.12502,465.84447 L 405.06252,466.84447 L 402.00002,466.78197 L 401.25002,468.28197 L 398.75002,468.46947 L 397.81252,467.71947 L 397.50002,463.90697 L 396.62502,463.09447 L 396.56252,460.84447 L 397.25002,460.03197 L 395.31252,458.90697 L 395.25002,456.15697 L 393.18752,455.78197 L 392.62502,454.78197 L 390.68752,454.65697 L 389.31252,453.03197 L 389.00002,451.53197 L 386.87502,449.40697 L 386.87502,447.40697 L 384.93752,447.96947 L 381.12502,450.78197 L 380.00002,450.78197 L 379.18752,452.46947 L 380.37502,454.40697 L 379.31252,455.84447 L 376.18752,455.90697 L 375.18752,455.03197 L 372.68752,457.59447 L 370.68752,457.46947 L 366.31252,454.03197 L 367.50002,450.03197 L 365.62502,447.40697 L 364.43752,448.71947 L 361.18752,446.78197 L 361.06252,445.34447 L 358.75002,447.15697 L 358.75002,448.40697 L 356.62502,448.34447 L 354.62502,446.46947 L 352.50002,446.46947 L 350.31252,444.40697 L 350.43752,441.34447 L 349.06252,440.09447 L 343.81252,443.96947 L 343.56252,445.46947 L 342.06252,446.03197 L 341.43752,447.28197 L 339.37502,447.28197 L 338.50002,448.34447 L 337.12501,447.34447 z "
     sodipodi:nodetypes="ccccccccccccccccccccccccccccccccccccccccccccccccccccccccccccccccccccccccccccccccccccccccccccccccccccccccccccccccccccccccccccccccccccccccccccccccccccccccccccccccccccccccccccccccccccccccccccccccccccccccccccccccccccccccccccccccccccccccccccccccccccccccccccccccccccccccccccccccccccccccccccccccccccccccccccccc" />
</svg>
