<?xml version="1.0" encoding="UTF-8" standalone="no"?>
<!-- Created with Inkscape (http://www.inkscape.org/) -->
<svg
   xmlns:dc="http://purl.org/dc/elements/1.1/"
   xmlns:cc="http://web.resource.org/cc/"
   xmlns:rdf="http://www.w3.org/1999/02/22-rdf-syntax-ns#"
   xmlns:svg="http://www.w3.org/2000/svg"
   xmlns="http://www.w3.org/2000/svg"
   xmlns:sodipodi="http://sodipodi.sourceforge.net/DTD/sodipodi-0.dtd"
   xmlns:inkscape="http://www.inkscape.org/namespaces/inkscape"
   id="svg2"
   sodipodi:version="0.32"
   inkscape:version="0.45.1"
   width="841.88977pt"
   height="595.27557pt"
   version="1.0"
   sodipodi:docbase="C:\Documents and Settings\Rendszergazda\Dokumentumok"
   sodipodi:docname="HU_counties_colored.svg"
   inkscape:output_extension="org.inkscape.output.svg.inkscape">
  <metadata
     id="metadata7">
    <rdf:RDF>
      <cc:Work
         rdf:about="">
        <dc:format>image/svg+xml</dc:format>
        <dc:type
           rdf:resource="http://purl.org/dc/dcmitype/StillImage" />
      </cc:Work>
    </rdf:RDF>
  </metadata>
  <defs
     id="defs5" />
  <sodipodi:namedview
     inkscape:window-height="938"
     inkscape:window-width="1280"
     inkscape:pageshadow="2"
     inkscape:pageopacity="0.0"
     borderopacity="1.0"
     bordercolor="#666666"
     pagecolor="#ffffff"
     id="base"
     inkscape:zoom="0.70710675"
     inkscape:cx="593.90944"
     inkscape:cy="359.12462"
     inkscape:window-x="-4"
     inkscape:window-y="-4"
     inkscape:current-layer="svg2" />
  <path
     id="path2221"
     style="fill:#107ab0;fill-opacity:1;fill-rule:evenodd;stroke:#c97a08;stroke-width:4;stroke-linecap:butt;stroke-linejoin:miter;stroke-opacity:1;stroke-dasharray:none"
     d="M 331.18751,409.78197 L 330.15975,411.68622 L 327.59725,408.99872 L 325.90975,410.06122 L 315.09725,406.43622 L 313.28475,407.56122 L 312.34725,407.56122 L 310.15975,409.81122 L 308.53475,409.74872 L 300.53475,412.74872 L 298.53475,414.37372 L 295.34725,415.18622 L 292.65975,416.68622 L 290.59724,416.74872 L 290.72224,418.43622 L 292.22224,420.37372 L 288.97224,425.81122 L 287.22224,425.74872 L 286.40974,427.31122 L 284.53474,427.24872 L 282.28474,425.68622 L 272.90974,431.62372 L 267.65974,432.74872 L 266.09724,433.68622 L 263.97224,433.68622 L 263.65974,435.06122 L 259.84724,436.43622 L 254.65974,439.18622 L 253.15974,437.87372 L 253.78474,439.74872 L 238.40974,446.68622 L 234.97224,447.43622 L 231.65974,450.68622 L 230.15974,450.62372 L 229.22224,451.87372 L 222.90974,451.93622 L 222.09724,452.74872 L 217.53474,452.68622 L 217.4319,451.08052 L 208.3279,442.59522 L 208.37209,439.54582 L 206.86949,437.46872 L 205.80883,437.33612 L 205.58786,435.83352 L 203.82009,435.17062 L 204.57139,432.60732 L 204.35042,430.26502 L 205.41108,428.98342 L 205.2785,427.52502 L 203.42234,425.18272 L 204.39461,422.97302 L 202.84782,420.71912 L 201.21263,420.58652 L 200.90327,418.20002 L 199.71003,416.74162 L 197.05838,415.19482 L 195.51159,416.38802 L 192.15283,415.76932 L 190.34087,414.48772 L 189.63376,412.71992 L 190.34087,410.90802 L 191.84347,409.22862 L 191.79927,407.15152 L 192.90413,406.26762 L 192.90413,405.03012 L 190.73861,402.06912 L 190.38506,399.99202 L 187.20308,396.94262 L 185.70048,397.03102 L 184.0211,398.75462 L 182.65108,398.66622 L 181.45784,397.47292 L 177.34778,397.47292 L 177.30359,394.60032 L 175.22646,394.51192 L 173.01675,391.59512 L 171.38157,390.66702 L 169.87896,388.28062 L 167.75764,387.70602 L 167.5894,384.00322 L 170.45098,383.82642 L 171.92043,382.67732 L 173.6882,382.67732 L 174.74886,381.79352 L 175.54436,381.79352 L 178.23706,379.46952 L 181.64315,381.79352 L 183.23414,382.14702 L 184.38319,383.56122 L 185.44385,383.11932 L 189.42133,379.40702 L 189.50972,377.99282 L 187.91873,375.16432 L 188.97939,373.04302 L 187.47678,369.50752 L 187.21162,366.59072 L 185.97418,364.55772 L 185.97418,362.43642 L 188.62583,359.25442 L 188.0955,358.01702 L 188.0955,354.74662 L 189.42133,352.44852 L 188.36067,351.74142 L 189.24455,350.59242 L 189.24455,347.14522 L 188.27228,341.75352 L 187.21162,341.13482 L 187.12323,338.65992 L 188.00711,337.24572 L 188.891,337.24572 L 190.04005,336.00832 L 190.04005,333.09152 L 191.54265,331.76562 L 191.54265,330.52822 L 194.01752,328.31852 L 198.79049,328.76042 L 200.73504,326.46232 L 197.55306,323.28042 L 195.6969,323.19202 L 193.04525,321.15902 L 191.27748,320.54032 L 186.23934,314.35322 L 188.36066,312.14352 L 187.12322,311.25962 L 185.09029,307.45892 L 184.20641,303.74662 L 184.86785,302.59842 L 187.24285,301.84842 L 188.74285,303.34842 L 190.74285,303.91092 L 192.30535,303.03592 L 196.05535,303.78592 L 197.49285,304.91092 L 201.74285,304.97342 L 202.74285,303.91092 L 205.86785,303.72342 L 205.99285,302.72342 L 211.61785,302.59842 L 214.80535,299.34842 L 214.86785,297.91092 L 215.68035,297.16092 L 215.36785,294.97342 L 216.61785,293.84842 L 218.80535,293.84842 L 220.68035,295.16092 L 220.68035,297.34842 L 221.61785,299.41092 L 222.99285,300.41092 L 223.61785,302.66092 L 223.68035,304.84842 L 225.30535,306.28592 L 227.43035,306.28592 L 229.11785,307.09842 L 230.30535,304.53592 L 231.93035,304.59842 L 232.93035,302.78592 L 232.86785,300.97342 L 235.30535,297.47342 L 237.61785,299.28592 L 237.55535,300.59842 L 241.24285,302.97342 L 243.49285,300.09842 L 242.36785,298.28592 L 245.24285,297.03592 L 247.86785,299.72342 L 250.24285,298.22342 L 253.11785,301.47342 L 254.49285,300.53592 L 255.93035,300.41092 L 255.93035,297.22342 L 257.93035,297.28592 L 259.80535,298.66092 L 262.43035,297.47342 L 263.99285,299.28592 L 263.05535,301.03592 L 265.30535,301.28592 L 265.18035,298.78592 L 267.05535,296.78592 L 270.49285,300.66092 L 269.99285,302.34842 L 271.18035,303.59842 L 270.43035,304.34842 L 273.74285,308.53592 L 274.80535,310.97342 L 273.43035,313.66092 L 274.49285,315.59842 L 271.30535,316.47342 L 271.36785,317.84842 L 269.05535,321.34842 L 264.93035,322.22342 L 264.99285,324.22342 L 263.80535,325.53592 L 265.74285,328.59842 L 264.55535,329.78592 L 267.18035,330.91092 L 268.99285,330.91092 L 270.24285,333.41092 L 270.11785,337.16092 L 271.61785,338.72342 L 270.61785,340.66092 L 273.49285,339.34842 L 272.18035,330.66092 L 274.18035,328.84842 L 274.80535,329.72342 L 274.80535,329.72342 L 278.61785,329.72342 L 278.55535,327.91092 L 281.24285,325.16092 L 281.24285,323.47342 L 279.55535,321.28592 L 284.43035,317.72342 L 287.43035,317.72342 L 289.05535,315.78592 L 290.13119,316.51781 L 291.6338,316.82717 L 293.26898,315.32457 L 295.61127,315.32457 L 298.08615,318.153 L 298.13034,319.30204 L 296.27418,320.93723 L 299.191,323.54469 L 299.89811,326.72667 L 303.03589,326.37311 L 304.67108,327.52216 L 305.9969,326.5057 L 310.5489,326.63828 L 311.56894,328.09471 L 311.39216,329.81828 L 312.71799,330.70216 L 314.57414,330.79055 L 314.57414,332.02799 L 312.71799,333.79575 L 313.00001,339.90696 L 313.37501,340.46946 L 315.06251,339.21946 L 316.37501,339.21946 L 316.68751,341.03196 L 317.25001,342.15696 L 318.87501,343.09446 L 318.93751,345.28196 L 320.31251,345.03196 L 320.81251,346.28196 L 322.06251,346.28196 L 323.93751,344.15696 L 327.87501,342.28196 L 329.25001,343.53196 L 329.37501,344.90696 L 330.81251,346.96946 L 331.06251,349.15696 L 333.25001,351.40696 L 337.43751,351.53197 L 338.68752,354.53197 L 338.31252,358.21947 L 337.31251,359.53197 L 338.37502,362.53197 L 336.25001,365.28197 L 336.31251,367.28197 L 337.50001,368.96947 L 337.43751,372.03197 L 338.50002,373.21947 L 338.56252,377.65697 L 339.43752,379.09447 L 338.50002,380.15697 L 335.00001,383.15697 L 336.18751,387.78197 L 335.75001,390.21947 L 337.62501,392.09447 L 338.87502,394.65697 L 340.50002,396.53197 L 339.12502,399.03197 L 336.56251,400.21947 L 336.43751,402.40697 L 335.12501,404.34447 L 335.06251,406.03197 L 333.87501,407.65697 L 334.00001,408.84447 L 333.06251,409.59447 L 331.18751,409.78197 z "
     sodipodi:nodetypes="cccccccccccccccccccccccccccccccccccccccccccccccccccccccccccccccccccccccccccccccccccccccccccccccccccccccccccccccccccccccccccccccccccccccccccccccccccccccccccccccccccccccccccccccccccccccccccccccccccccccccccccccccccccccccccccccccccccccccccccccccccccccccccccccccccccccccccccccccccccc" />
</svg>
