<?xml version="1.0" encoding="UTF-8" standalone="no"?>
<!-- Created with Inkscape (http://www.inkscape.org/) -->
<svg
   xmlns:dc="http://purl.org/dc/elements/1.1/"
   xmlns:cc="http://web.resource.org/cc/"
   xmlns:rdf="http://www.w3.org/1999/02/22-rdf-syntax-ns#"
   xmlns:svg="http://www.w3.org/2000/svg"
   xmlns="http://www.w3.org/2000/svg"
   xmlns:sodipodi="http://sodipodi.sourceforge.net/DTD/sodipodi-0.dtd"
   xmlns:inkscape="http://www.inkscape.org/namespaces/inkscape"
   id="svg2"
   sodipodi:version="0.32"
   inkscape:version="0.45.1"
   width="841.88977pt"
   height="595.27557pt"
   version="1.0"
   sodipodi:docbase="C:\Documents and Settings\Rendszergazda\Dokumentumok"
   sodipodi:docname="HU_counties_colored.svg"
   inkscape:output_extension="org.inkscape.output.svg.inkscape">
  <metadata
     id="metadata7">
    <rdf:RDF>
      <cc:Work
         rdf:about="">
        <dc:format>image/svg+xml</dc:format>
        <dc:type
           rdf:resource="http://purl.org/dc/dcmitype/StillImage" />
      </cc:Work>
    </rdf:RDF>
  </metadata>
  <defs
     id="defs5" />
  <sodipodi:namedview
     inkscape:window-height="938"
     inkscape:window-width="1280"
     inkscape:pageshadow="2"
     inkscape:pageopacity="0.0"
     borderopacity="1.0"
     bordercolor="#666666"
     pagecolor="#ffffff"
     id="base"
     inkscape:zoom="0.70710675"
     inkscape:cx="593.90944"
     inkscape:cy="359.12462"
     inkscape:window-x="-4"
     inkscape:window-y="-4"
     inkscape:current-layer="svg2" />
  <path
     id="path1315"
     style="fill:#008000;fill-opacity:1;fill-rule:evenodd;stroke:#c97a08;stroke-width:4;stroke-linecap:butt;stroke-linejoin:miter;stroke-opacity:1;stroke-dasharray:none"
     d="M 911.46064,264.72028 L 911.86784,262.96215 L 909.99284,261.27465 L 910.05534,260.08715 L 909.05534,259.08715 L 907.99284,254.27465 L 904.86784,248.58715 L 902.99284,247.64965 L 901.18034,247.77465 L 901.11784,249.83715 L 900.11784,252.08715 L 897.86784,255.33715 L 896.74284,256.21215 L 895.80534,257.89965 L 894.24284,257.02465 L 892.18034,252.96215 L 893.49284,251.02465 L 894.11784,248.77465 L 892.05534,248.64965 L 890.86784,246.58715 L 889.68034,246.64965 L 888.68034,244.21215 L 889.99284,240.27465 L 885.99284,240.08715 L 884.05534,237.27465 L 881.43034,235.39965 L 879.36784,234.89965 L 876.93034,236.27465 L 874.80534,236.52465 L 874.68034,242.39965 L 871.11784,245.89965 L 869.61784,246.71215 L 868.36784,248.64965 L 866.24284,248.77465 L 865.24284,247.89965 L 863.11784,247.89965 L 861.86784,245.52465 L 858.49284,244.96215 L 857.30534,243.58715 L 857.36784,241.14965 L 851.36784,241.21215 L 847.05534,236.14965 L 842.86784,237.46215 L 837.18034,236.21215 L 836.93034,234.46215 L 834.61784,232.33715 L 834.43034,229.96215 L 830.55534,226.96215 L 823.86784,223.77465 L 823.86784,216.39965 L 824.74284,213.46215 L 824.61784,208.52465 L 825.99284,206.39965 L 826.24284,202.58715 L 824.74284,201.96215 L 824.68034,197.58715 L 825.86784,195.52465 L 825.93034,193.96215 L 824.24284,192.27465 L 821.11784,192.33715 L 818.86784,191.39965 L 817.11784,193.71215 L 815.36784,194.39965 L 808.24284,194.39965 L 806.49284,194.64965 L 805.93034,195.83715 L 804.24284,195.89965 L 803.61784,196.89965 L 791.18034,196.77465 L 786.99284,199.02465 L 783.93034,200.02465 L 782.61784,198.96215 L 782.49284,196.83715 L 778.11784,194.14965 L 778.11784,192.58715 L 775.93034,192.64965 L 771.74284,189.52465 L 769.55534,189.52465 L 768.11784,188.08715 L 766.36784,188.08715 L 764.74284,190.1184 L 761.92629,189.01311 L 760.89949,192.36275 L 757.74779,196.77489 L 757.97099,198.12454 L 761.81929,198.28668 L 761.72999,199.63633 L 760.26579,200.86097 L 758.30149,201.08561 L 756.52479,203.18526 L 756.43549,209.7849 L 754.59629,210.32205 L 754.38199,211.67169 L 753.29279,211.77133 L 752.76599,213.12098 L 753.67679,216.03312 L 755.08749,216.57026 L 755.06079,218.23241 L 756.15899,219.51955 L 754.63229,222.3692 L 754.16799,225.53134 L 752.39129,228.44348 L 750.80199,234.23063 L 749.46279,235.58027 L 748.44669,234.1457 L 745.54749,233.81002 L 743.86359,235.06048 L 744.43429,240.75666 L 743.63029,241.92575 L 741.45129,242.53235 L 739.14729,241.45145 L 734.64869,246.82089 L 729.80679,249.41002 L 729.19329,252.04022 L 724.91249,252.02722 L 724.42639,255.29606 L 726.00269,255.9399 L 727.20399,257.39623 L 726.07189,258.90908 L 723.81479,257.35943 L 723.05769,255.37228 L 720.80059,255.44762 L 719.61373,256.32339 L 719.03921,261.84766 L 719.03921,261.84766 L 720.40923,263.08509 L 720.32084,265.55997 L 722.83991,268.87453 L 724.25412,268.96292 L 727.34771,271.70296 L 732.0323,271.74715 L 733.97684,270.42133 L 735.87719,270.20036 L 737.77754,268.65356 L 738.92659,269.71422 L 741.1363,270.02358 L 743.92053,272.58684 L 745.37894,275.63624 L 744.76022,277.75756 L 745.77668,281.16051 L 743.61117,284.87282 L 743.69956,286.72898 L 745.42313,288.62933 L 745.46733,290.26451 L 747.1467,290.92742 L 745.6441,293.49069 L 745.55571,297.55655 L 746.79315,299.05915 L 746.83734,302.77146 L 747.85381,305.24634 L 747.80962,307.72121 L 749.26802,310.68222 L 749.00286,312.71515 L 749.79835,314.52711 L 749.70997,317.6649 L 751.34515,319.38847 L 750.50546,343.60688 L 747.32348,345.10948 L 747.32348,345.10948 L 747.32348,345.10948 L 747.1909,346.52369 L 748.6935,346.92144 L 750.28449,348.91018 L 752.27323,350.19181 L 755.05746,355.14156 L 757.31136,354.52284 L 758.593,353.15282 L 766.1502,358.85387 L 778.92232,360.79841 L 782.19268,363.9362 L 783.73948,363.05232 L 786.21435,364.20136 L 791.56185,363.49426 L 791.9596,367.29496 L 793.375,369.40698 L 793.59375,371.37573 L 791.60604,373.74731 L 792.57831,376.17798 L 792.18057,377.548 L 782.36946,383.42583 L 783.69529,385.06101 L 783.69529,386.96136 L 784.44659,388.11041 L 783.69529,392.35305 L 785.63983,394.82793 L 788.1147,394.78373 L 789.48472,395.57923 L 790.63377,395.53503 L 794.25769,398.14249 L 796.33482,397.52377 L 802.12426,400.83833 L 811.40503,400.88253 L 811.49342,401.98738 L 813.57055,402.16416 L 814.41024,403.09224 L 814.45443,405.78808 L 817.23866,405.92066 L 820.11129,407.51165 L 822.93971,405.96486 L 824.84006,405.87647 L 825.90072,405.08097 L 827.84527,405.08097 L 829.61303,404.06451 L 831.69016,404.1087 L 832.30888,402.34094 L 831.02725,400.21962 L 833.6347,395.88859 L 837.78895,395.8002 L 838.89381,395.31406 L 841.14771,392.66241 L 841.81062,390.85045 L 843.97614,389.7456 L 845.52294,389.7014 L 845.43455,387.49169 L 847.20231,385.45876 L 849.23525,385.23779 L 852.50561,381.70226 L 852.41723,379.58094 L 853.56627,378.3435 L 853.56627,376.35476 L 856.48309,373.12859 L 860.32798,370.69791 L 865.27773,370.56532 L 866.91292,365.83655 L 866.91292,362.21263 L 867.7968,360.79841 L 867.70841,358.94226 L 868.72488,357.21868 L 871.73008,355.09736 L 874.38173,353.59476 L 874.95625,350.41278 L 874.51431,347.00983 L 872.79074,345.63981 L 873.49785,344.00463 L 873.45365,341.9275 L 875.30981,338.8781 L 875.79594,337.3755 L 878.27082,335.25418 L 878.31501,332.73511 L 876.67983,330.87896 L 878.71276,328.62505 L 878.62437,326.15018 L 879.906,325.35468 L 881.23183,322.30529 L 882.86701,320.00719 L 882.91121,318.4162 L 885.47447,314.39453 L 885.47447,312.62676 L 888.78903,310.72641 L 890.91035,310.54964 L 892.28037,309.75414 L 894.57847,311.43352 L 896.34624,310.8148 L 898.33497,306.17441 L 898.64433,299.4569 L 897.45109,296.84944 L 898.33497,295.56781 L 895.46235,293.26971 L 894.26911,288.8503 L 894.97622,287.03834 L 894.44589,284.07733 L 895.94849,282.83989 L 895.90429,280.23243 L 899.70499,276.47593 L 901.34018,277.71337 L 903.4615,275.98979 L 901.42857,273.60331 L 902.88697,271.92393 L 906.59928,270.86327 L 910.2674,266.62063 L 911.46064,264.72028 z "
     sodipodi:nodetypes="ccccccccccccccccccccccccccccccccccccccccccccccccccccccccccccccccccccccccccccccccccccccccccccccccccccccccccccccccccccccccccccccccccccccccccccccccccccccccccccccccccccccccccccccccccccccccccccccccccccccccccccccccccccccccccccccccccccccccccccccccccccccccccccccccccccccccccccccc" />
</svg>
