<?xml version="1.0" encoding="UTF-8" standalone="no"?>
<!-- Created with Inkscape (http://www.inkscape.org/) -->
<svg
   xmlns:dc="http://purl.org/dc/elements/1.1/"
   xmlns:cc="http://web.resource.org/cc/"
   xmlns:rdf="http://www.w3.org/1999/02/22-rdf-syntax-ns#"
   xmlns:svg="http://www.w3.org/2000/svg"
   xmlns="http://www.w3.org/2000/svg"
   xmlns:sodipodi="http://sodipodi.sourceforge.net/DTD/sodipodi-0.dtd"
   xmlns:inkscape="http://www.inkscape.org/namespaces/inkscape"
   id="svg2"
   sodipodi:version="0.32"
   inkscape:version="0.45.1"
   width="841.88977pt"
   height="595.27557pt"
   version="1.0"
   sodipodi:docbase="C:\Documents and Settings\Rendszergazda\Dokumentumok"
   sodipodi:docname="HU_counties_colored.svg"
   inkscape:output_extension="org.inkscape.output.svg.inkscape">
  <metadata
     id="metadata7">
    <rdf:RDF>
      <cc:Work
         rdf:about="">
        <dc:format>image/svg+xml</dc:format>
        <dc:type
           rdf:resource="http://purl.org/dc/dcmitype/StillImage" />
      </cc:Work>
    </rdf:RDF>
  </metadata>
  <defs
     id="defs5" />
  <sodipodi:namedview
     inkscape:window-height="938"
     inkscape:window-width="1280"
     inkscape:pageshadow="2"
     inkscape:pageopacity="0.0"
     borderopacity="1.0"
     bordercolor="#666666"
     pagecolor="#ffffff"
     id="base"
     inkscape:zoom="0.70710675"
     inkscape:cx="593.90944"
     inkscape:cy="359.12462"
     inkscape:window-x="-4"
     inkscape:window-y="-4"
     inkscape:current-layer="svg2" />
  <path
     style="fill:#008000;fill-opacity:1;fill-rule:evenodd;stroke:#c97a08;stroke-width:4;stroke-linecap:butt;stroke-linejoin:miter;stroke-opacity:1;stroke-dasharray:none"
     d="M 663.53133,443.22055 L 665.314,441.28171 L 667.8765,441.03171 L 669.2515,440.21921 L 671.189,442.15671 L 673.7515,443.28171 L 676.3765,448.65671 L 677.8765,448.59421 L 681.1265,447.53171 L 686.3765,447.46921 L 689.1265,450.03171 L 690.7515,450.96921 L 688.8765,455.71921 L 688.439,460.28171 L 688.939,465.03171 L 690.3765,467.84421 L 687.814,468.34421 L 686.439,477.65671 L 688.8765,479.84421 L 688.8765,492.21918 L 689.939,494.65668 L 693.8765,498.84418 L 694.0015,501.90668 L 693.3765,504.15668 L 691.8765,505.78168 L 691.439,509.46918 L 692.814,511.46918 L 691.814,512.78168 L 692.7515,513.84418 L 692.8765,516.15668 L 689.939,516.09418 L 689.8765,525.96918 L 688.189,525.96918 L 686.064,527.53168 L 684.689,529.84418 L 685.3765,531.46918 L 688.689,534.65668 L 687.689,536.09418 L 689.7515,537.78168 L 691.064,536.59418 L 695.939,539.28168 L 697.1265,538.53168 L 704.314,539.21918 L 706.8765,532.09418 L 713.1265,532.09418 L 713.2515,533.65668 L 714.8765,535.15668 L 716.689,541.03168 L 715.564,553.34418 L 717.189,553.40668 L 718.3765,555.21918 L 718.06694,556.44602 L 715.45948,561.57254 L 717.53661,570.2788 L 712.49847,570.2788 L 712.18911,571.42784 L 712.98461,573.63755 L 711.79136,575.40532 L 711.5262,577.48245 L 710.20037,580.17829 L 708.34422,580.70862 L 706.31129,584.06738 L 703.9248,582.78575 L 701.98026,582.82994 L 700.74282,584.50932 L 699.46119,588.04485 L 696.89793,586.36548 L 696.80954,584.95126 L 695.21855,584.86287 L 693.93692,582.82994 L 692.12496,582.69736 L 688.0149,578.76408 L 683.72806,575.89146 L 680.76705,575.93565 L 679.88317,575.14016 L 678.95509,574.56563 L 676.87797,576.37759 L 677.85024,578.01278 L 676.96636,579.86893 L 672.54694,584.77449 L 668.65785,584.86287 L 664.10585,582.29961 L 662.16131,582.25542 L 660.48193,581.41573 L 658.449,582.56478 L 656.10671,579.91313 L 654.38313,580.62023 L 650.98018,583.71383 L 649.69855,582.60897 L 648.32853,583.71383 L 647.22368,583.1393 L 647.22368,583.1393 L 647.22368,583.1393 L 644.13008,586.89581 L 644.13008,588.4868 L 642.80426,589.50326 L 641.96457,591.13845 L 640.55036,589.81262 L 640.55036,588.79616 L 638.07548,588.84035 L 633.96542,586.89581 L 633.92123,585.03965 L 630.47408,582.16703 L 628.52954,583.97899 L 626.80597,583.84641 L 625.74531,585.21643 L 623.31463,585.21643 L 620.92814,582.78575 L 618.32069,581.01798 L 618.32069,579.82474 L 617.39261,578.98505 L 613.23836,583.05091 L 612.57544,585.56998 L 610.98445,584.55351 L 609.1283,585.83515 L 607.44892,584.42093 L 606.1231,579.86893 L 604.79727,578.10117 L 594.14647,577.70342 L 588.44543,582.65317 L 586.45669,582.65317 L 585.66119,583.8906 L 583.62826,583.75802 L 582.65599,584.6861 L 581.37436,584.90707 L 579.38562,587.33775 L 575.80589,588.92874 L 572.84488,588.08905 L 572.80069,586.58645 L 570.4142,586.71903 L 569.53032,586.1445 L 567.54158,586.1445 L 565.81801,584.42093 L 565.81801,584.42093 L 565.81801,584.42093 L 565.72962,583.09511 L 563.12216,580.62023 L 561.57537,581.15056 L 560.29374,579.3828 L 559.0563,579.3386 L 559.0563,578.45472 L 556.89079,576.55437 L 556.62562,571.47204 L 553.17847,567.45037 L 553.17847,566.03616 L 551.41071,564.35678 L 551.36651,563.29612 L 548.00776,560.02575 L 550.30585,556.71119 L 551.10135,556.66699 L 554.01816,553.66179 L 555.56496,550.56819 L 552.42717,544.60198 L 550.7478,542.74583 L 551.54329,541.64097 L 561.00084,538.32641 L 563.78508,540.88967 L 567.62997,538.23802 L 569.75129,538.23802 L 571.25389,536.20509 L 574.56845,534.39313 L 575.27556,533.0673 L 579.03207,534.21635 L 581.55113,536.07251 L 583.84923,533.24408 L 584.55634,529.97371 L 586.76605,527.10109 L 586.76605,527.10109 L 586.76605,527.10109 L 587.25218,525.28913 L 584.90989,520.78132 L 588.00348,517.02482 L 588.04768,515.08027 L 585.17506,510.43988 L 583.40729,510.39569 L 580.2695,506.32983 L 578.54593,505.97627 L 574.12651,507.47888 L 569.75129,502.04299 L 586.45669,491.83414 L 590.1248,494.13223 L 594.05809,498.1981 L 601.5269,488.3428 L 599.84752,486.53084 L 601.04077,484.4979 L 598.69847,479.01783 L 599.00783,476.76392 L 600.7756,472.83064 L 602.98531,469.20672 L 602.89692,465.00827 L 596.48877,459.79336 L 601.12915,455.02039 L 602.80853,451.52905 L 608.73055,444.72315 L 610.76348,444.54637 L 611.77995,445.828 L 613.94546,445.828 L 615.05032,447.15383 L 615.13871,450.33581 L 616.77389,449.84967 L 616.64131,447.90513 L 618.67424,446.53511 L 620.70717,447.68416 L 621.37009,449.27515 L 623.62399,451.21969 L 626.23144,452.23616 L 628.75051,452.23616 L 630.12053,448.34707 L 631.97669,446.26994 L 633.3909,446.88866 L 634.31898,446.22575 L 633.61187,444.98831 L 636.4403,442.86699 L 639.75486,443.88346 L 641.08069,445.1209 L 643.06942,445.96059 L 643.59975,447.94932 L 644.61622,449.58451 L 648.72628,450.77775 L 651.77568,450.77775 L 652.96892,449.31934 L 652.92473,447.68416 L 654.38313,445.828 L 660.61451,445.51864 L 662.07292,443.35313 L 663.53133,443.22055 z "
     id="path4015"
     sodipodi:nodetypes="cccccccccccccccccccccccccccccccccccccccccccccccccccccccccccccccccccccccccccccccccccccccccccccccccccccccccccccccccccccccccccccccccccccccccccccccccccccccccccccccccccccccccccccccccccccccccccccccccccccccccccccccccccccccccccccccccc" />
</svg>
