<?xml version="1.0" encoding="UTF-8" standalone="no"?>
<!-- Created with Inkscape (http://www.inkscape.org/) -->
<svg
   xmlns:dc="http://purl.org/dc/elements/1.1/"
   xmlns:cc="http://web.resource.org/cc/"
   xmlns:rdf="http://www.w3.org/1999/02/22-rdf-syntax-ns#"
   xmlns:svg="http://www.w3.org/2000/svg"
   xmlns="http://www.w3.org/2000/svg"
   xmlns:sodipodi="http://sodipodi.sourceforge.net/DTD/sodipodi-0.dtd"
   xmlns:inkscape="http://www.inkscape.org/namespaces/inkscape"
   id="svg2"
   sodipodi:version="0.32"
   inkscape:version="0.45.1"
   width="841.88977pt"
   height="595.27557pt"
   version="1.0"
   sodipodi:docbase="C:\Documents and Settings\Rendszergazda\Dokumentumok"
   sodipodi:docname="HU_counties_colored.svg"
   inkscape:output_extension="org.inkscape.output.svg.inkscape">
  <metadata
     id="metadata7">
    <rdf:RDF>
      <cc:Work
         rdf:about="">
        <dc:format>image/svg+xml</dc:format>
        <dc:type
           rdf:resource="http://purl.org/dc/dcmitype/StillImage" />
      </cc:Work>
    </rdf:RDF>
  </metadata>
  <defs
     id="defs5" />
  <sodipodi:namedview
     inkscape:window-height="938"
     inkscape:window-width="1280"
     inkscape:pageshadow="2"
     inkscape:pageopacity="0.0"
     borderopacity="1.0"
     bordercolor="#666666"
     pagecolor="#ffffff"
     id="base"
     inkscape:zoom="0.70710675"
     inkscape:cx="593.90944"
     inkscape:cy="359.12462"
     inkscape:window-x="-4"
     inkscape:window-y="-4"
     inkscape:current-layer="svg2" />
  <path
     style="fill:#008000;fill-opacity:1;fill-rule:evenodd;stroke:black;stroke-width:4;stroke-linecap:butt;stroke-linejoin:miter;stroke-opacity:1;stroke-dasharray:none"
     d="M 184.87501,302.59446 L 184.20088,303.74089 L 180.48857,303.03379 L 177.39497,305.77383 L 177.2182,307.01126 L 174.56655,307.09965 L 172.00328,309.13258 L 168.02581,309.22097 L 166.16965,311.34229 L 165.37416,310.63518 L 166.6116,309.39775 L 166.69998,307.18804 L 169.35163,301.61957 L 168.37936,300.73569 L 166.96515,300.11697 L 166.78837,298.52598 L 165.28577,298.61437 L 161.39668,302.23829 L 159.27536,303.38734 L 159.18697,304.71317 L 155.73983,306.21577 L 154.14884,308.33709 L 152.29268,308.2487 L 150.43653,310.81196 L 149.37587,309.04419 L 147.16616,307.98353 L 145.22162,305.9506 L 143.01191,305.42027 L 141.77447,306.65771 L 140.89059,305.59705 L 138.41571,303.91767 L 138.5041,302.41507 L 137.26666,301.00086 L 137.26666,300.02858 L 135.85245,300.02858 L 133.37758,301.53119 L 130.28398,301.61957 L 129.31171,300.82408 L 127.8975,301.70796 L 127.19039,300.6473 L 125.86457,300.20536 L 124.27358,301.70796 L 122.15226,301.97313 L 117.73284,305.50866 L 116.05346,305.86221 L 114.46247,305.06672 L 113.4902,305.86221 L 111.81082,305.15511 L 107.74496,300.20536 L 107.56818,297.81887 L 109.0625,296.40696 L 110.0625,293.65696 L 110.375,291.28196 L 108.9375,289.59446 L 108.0625,287.59446 L 109.6875,286.40696 L 111.625,286.53196 L 114.56251,284.59446 L 114.50001,283.40696 L 116.56251,282.40696 L 115.68751,281.03196 L 116.87501,279.28196 L 114.43751,276.84446 L 114.50001,275.09446 L 111.875,274.71946 L 110.625,273.09446 L 110.9375,271.90696 L 112.5,270.40696 L 112.5,269.40696 L 111.125,267.90696 L 111.125,265.78196 L 109.0625,262.28196 L 109.0625,261.03196 L 108.25,260.15696 L 105.1875,259.53196 L 103.9375,260.90696 L 101.25,260.90696 L 100.5625,261.96946 L 99.687504,262.46946 L 95.812504,260.46946 L 91.875004,256.65696 L 89.625004,255.59446 L 88.437504,256.53196 L 85.562504,256.46946 L 84.312504,254.71946 L 81.375004,254.53196 L 78.250003,252.46946 L 76.875003,252.03196 L 76.062503,250.28196 L 79.062504,248.21946 L 79.062504,245.84446 L 80.437504,245.84446 L 83.000004,247.96946 L 83.250004,246.53196 L 83.687504,245.71946 L 85.125004,245.71946 L 85.250004,244.15696 L 86.562504,242.59446 L 90.125004,242.53196 L 92.250004,241.46946 L 95.062504,239.15696 L 93.062504,236.28196 L 95.000004,232.90696 L 98.312504,232.90696 L 100.625,231.59446 L 108.25,231.59446 L 108.25,234.15696 L 113.81251,236.03196 L 119.81251,237.15696 L 119.93751,239.59446 L 123.50001,249.03196 L 135.00001,249.09446 L 136.18751,248.03196 L 137.18751,243.71946 L 139.00001,242.53196 L 141.12501,240.65696 L 141.87501,241.71946 L 141.93751,248.28196 L 151.00001,248.21946 L 167.06251,243.84446 L 174.00001,243.90696 L 170.81251,240.40696 L 170.87501,234.53196 L 169.56251,233.21946 L 169.62501,227.40696 L 168.31251,225.90696 L 172.31251,223.03196 L 169.43751,219.53196 L 167.62501,218.78196 L 168.81251,217.03196 L 164.25001,212.90696 L 162.50001,211.71946 L 162.56251,210.53196 L 164.18751,209.34446 L 165.62501,210.34446 L 167.12501,210.34446 L 168.81251,208.84446 L 171.18751,208.90696 L 174.37501,207.71946 L 176.00001,203.34446 L 175.87501,201.46946 L 177.12501,198.84446 L 178.37501,197.65696 L 177.37501,196.40696 L 175.31251,195.28196 L 177.18751,193.90696 L 177.25001,192.15696 L 178.50001,190.84446 L 176.18751,187.96946 L 183.56251,181.53196 L 184.93751,181.09446 L 186.31251,179.59446 L 187.81251,179.59446 L 189.00001,178.84446 L 190.31251,177.59446 L 194.68751,178.34446 L 197.43751,177.65696 L 197.87501,181.03196 L 201.56251,183.46946 L 210.81251,183.34446 L 211.06251,184.96946 L 218.37501,193.21946 L 220.68751,193.15696 L 220.75001,195.71946 L 225.18751,200.03196 L 225.31251,203.28196 L 226.62501,204.46946 L 226.62501,204.46946 L 226.62501,204.46946 L 226.75001,206.03196 L 228.00001,208.09446 L 229.31251,208.03196 L 230.62501,209.53196 L 231.87501,209.53196 L 233.75001,211.65696 L 237.75001,211.53196 L 239.00001,213.21946 L 239.87501,215.15696 L 239.93751,217.21946 L 241.37501,218.03196 L 241.43751,220.09446 L 241.43751,220.09446 L 241.43751,220.09446 L 244.56251,223.46946 L 245.75001,222.28196 L 247.81251,222.28196 L 249.25001,220.84446 L 251.00001,222.09446 L 251.00001,223.21946 L 253.68751,226.15696 L 253.75001,227.53196 L 255.00001,227.46946 L 257.31251,229.59446 L 259.12501,229.59446 L 262.56251,233.34446 L 262.68751,235.15696 L 264.18751,236.15696 L 266.18751,236.09446 L 267.56251,237.40696 L 271.62501,237.46946 L 273.56251,239.40696 L 284.37501,239.46946 L 286.06251,238.15696 L 287.31251,238.15696 L 291.43751,240.84446 L 291.87501,242.65696 L 291.81251,248.96946 L 290.50001,250.90696 L 290.75001,252.84446 L 292.00001,254.59446 L 290.68751,259.53196 L 291.12501,260.59446 L 289.62501,262.03196 L 292.43751,265.34446 L 295.00001,266.15696 L 295.87501,267.40696 L 295.62501,269.90696 L 293.31251,273.34446 L 294.37501,274.40696 L 292.06251,279.09446 L 293.68751,279.90696 L 295.50001,279.90696 L 296.43751,280.78196 L 294.25001,282.71946 L 290.75001,282.59446 L 289.37501,284.96946 L 290.62501,286.34446 L 290.68751,288.59446 L 292.75001,290.21946 L 292.68751,291.28196 L 289.00001,293.65696 L 289.06251,296.03196 L 287.12501,297.40696 L 287.43751,300.78196 L 288.87501,301.71946 L 288.81251,303.28196 L 289.75001,304.59446 L 290.87501,304.71946 L 290.93751,306.46946 L 289.93751,307.78196 L 289.87501,309.21946 L 287.50001,311.53196 L 287.62501,314.40696 L 289.06251,315.78196 L 287.43751,317.71946 L 284.43751,317.71946 L 279.56251,321.28196 L 281.25001,323.46946 L 281.25001,325.15696 L 278.56251,327.90696 L 278.62501,329.71946 L 274.81251,329.71946 L 274.81251,329.71946 L 274.18751,328.84446 L 272.18751,330.65696 L 273.50001,339.34446 L 270.62501,340.65696 L 271.62501,338.71946 L 270.12501,337.15696 L 270.25001,333.40696 L 269.00001,330.90696 L 267.18751,330.90696 L 264.56251,329.78196 L 265.75001,328.59446 L 263.81251,325.53196 L 265.00001,324.21946 L 264.93751,322.21946 L 269.06251,321.34446 L 271.37501,317.84446 L 271.31251,316.46946 L 274.50001,315.59446 L 273.43751,313.65696 L 274.81251,310.96946 L 273.75001,308.53196 L 270.43751,304.34446 L 271.18751,303.59446 L 270.00001,302.34446 L 270.50001,300.65696 L 267.06251,296.78196 L 265.18751,298.78196 L 265.31251,301.28196 L 263.06251,301.03196 L 264.00001,299.28196 L 262.43751,297.46946 L 259.81251,298.65696 L 257.93751,297.28196 L 255.93751,297.21946 L 255.93751,300.40696 L 254.50001,300.53196 L 253.12501,301.46946 L 250.25001,298.21946 L 247.87501,299.71946 L 245.25001,297.03196 L 242.37501,298.28196 L 243.50001,300.09446 L 241.25001,302.96946 L 237.56251,300.59446 L 237.62501,299.28196 L 235.31251,297.46946 L 232.87501,300.96946 L 232.93751,302.78196 L 231.93751,304.59446 L 230.31251,304.53196 L 229.12501,307.09446 L 227.43751,306.28196 L 225.31251,306.28196 L 223.68751,304.84446 L 223.62501,302.65696 L 223.00001,300.40696 L 221.62501,299.40696 L 220.68751,297.34446 L 220.68751,295.15696 L 218.81251,293.84446 L 216.62501,293.84446 L 215.37501,294.96946 L 215.68751,297.15696 L 214.87501,297.90696 L 214.81251,299.34446 L 211.62501,302.59446 L 206.00001,302.71946 L 205.87501,303.71946 L 202.75001,303.90696 L 201.75001,304.96946 L 197.50001,304.90696 L 196.06251,303.78196 L 192.31251,303.03196 L 190.75001,303.90696 L 188.75001,303.34446 L 187.25001,301.84446 L 184.87501,302.59446 z "
     id="path2218"
     sodipodi:nodetypes="cccccccccccccccccccccccccccccccccccccccccccccccccccccccccccccccccccccccccccccccccccccccccccccccccccccccccccccccccccccccccccccccccccccccccccccccccccccccccccccccccccccccccccccccccccccccccccccccccccccccccccccccccccccccccccccccccccccccccccccccccccccccccccccccccccccccccccccccccccccccccccccccccccccccccccccccccccccccccccccccccccccccccc" />
</svg>
