<?xml version="1.0" encoding="UTF-8" standalone="no"?>
<!-- Created with Inkscape (http://www.inkscape.org/) -->
<svg
   xmlns:dc="http://purl.org/dc/elements/1.1/"
   xmlns:cc="http://web.resource.org/cc/"
   xmlns:rdf="http://www.w3.org/1999/02/22-rdf-syntax-ns#"
   xmlns:svg="http://www.w3.org/2000/svg"
   xmlns="http://www.w3.org/2000/svg"
   xmlns:sodipodi="http://sodipodi.sourceforge.net/DTD/sodipodi-0.dtd"
   xmlns:inkscape="http://www.inkscape.org/namespaces/inkscape"
   id="svg2"
   sodipodi:version="0.32"
   inkscape:version="0.45.1"
   width="841.88977pt"
   height="595.27557pt"
   version="1.0"
   sodipodi:docbase="C:\Documents and Settings\Rendszergazda\Dokumentumok"
   sodipodi:docname="HU_counties_colored.svg"
   inkscape:output_extension="org.inkscape.output.svg.inkscape">
  <metadata
     id="metadata7">
    <rdf:RDF>
      <cc:Work
         rdf:about="">
        <dc:format>image/svg+xml</dc:format>
        <dc:type
           rdf:resource="http://purl.org/dc/dcmitype/StillImage" />
      </cc:Work>
    </rdf:RDF>
  </metadata>
  <defs
     id="defs5" />
  <sodipodi:namedview
     inkscape:window-height="938"
     inkscape:window-width="1280"
     inkscape:pageshadow="2"
     inkscape:pageopacity="0.0"
     borderopacity="1.0"
     bordercolor="#666666"
     pagecolor="#ffffff"
     id="base"
     inkscape:zoom="0.70710675"
     inkscape:cx="593.90944"
     inkscape:cy="359.12462"
     inkscape:window-x="-4"
     inkscape:window-y="-4"
     inkscape:current-layer="svg2" />
  <path
     style="fill:#008000;fill-opacity:1;fill-rule:evenodd;stroke:black;stroke-width:4;stroke-linecap:butt;stroke-linejoin:miter;stroke-opacity:1;stroke-dasharray:none"
     d="M 290.13476,316.51583 L 289.06328,315.78152 L 287.62578,314.40652 L 287.50078,311.53152 L 289.87578,309.21902 L 289.93828,307.78152 L 290.93828,306.46902 L 290.87578,304.71902 L 289.75078,304.59402 L 288.81328,303.28152 L 288.87578,301.71902 L 287.43828,300.78152 L 287.12578,297.40652 L 289.06328,296.03152 L 289.00078,293.65652 L 292.68828,291.28152 L 292.75078,290.21902 L 290.68828,288.59402 L 290.62578,286.34402 L 289.37578,284.96902 L 290.75078,282.59402 L 294.25078,282.71902 L 296.43828,280.78152 L 295.50078,279.90652 L 293.68828,279.90652 L 292.06328,279.09402 L 294.37578,274.40652 L 293.31328,273.34402 L 295.62578,269.90652 L 295.87578,267.40652 L 295.00078,266.15652 L 292.43828,265.34402 L 289.62578,262.03152 L 291.12578,260.59402 L 290.68828,259.53152 L 292.00078,254.59402 L 290.75078,252.84402 L 290.50078,250.90652 L 291.81328,248.96902 L 291.87578,242.65652 L 291.43828,240.84402 L 293.40513,239.3528 L 299.10618,239.3528 L 301.93461,236.56857 L 303.61399,236.56857 L 306.575,238.77828 L 309.93375,238.20375 L 311.34797,236.3476 L 319.12614,236.43599 L 320.05422,237.27567 L 322.35232,237.31987 L 323.67814,238.15956 L 328.18595,238.38053 L 330.26308,239.66216 L 331.45632,239.66216 L 332.51698,240.67863 L 336.67123,240.72282 L 338.439,239.44119 L 339.32288,240.72282 L 344.27263,240.63443 L 346.30556,240.98799 L 348.16172,242.57898 L 349.92948,242.57898 L 351.69725,241.42993 L 354.3489,241.42993 L 356.29345,240.36927 L 358.72412,240.41346 L 360.49189,239.13183 L 362.03869,239.13183 L 362.03869,239.13183 L 362.03869,239.13183 L 363.05515,238.29214 L 367.03263,238.24795 L 368.44684,237.14309 L 371.0543,237.18729 L 373.39659,234.93338 L 375.03178,235.50791 L 377.9044,238.29214 L 379.71636,238.33633 L 381.57251,237.01051 L 383.07512,237.58503 L 385.32902,235.77307 L 388.06906,236.3476 L 390.67651,235.11016 L 393.15139,235.90565 L 394.87496,237.31987 L 401.23892,237.27567 L 407.42611,234.22628 L 409.59162,231.61882 L 411.93391,231.53043 L 414.89492,225.56422 L 419.04917,224.28259 L 420.68436,223.13354 L 422.6289,223.13354 L 426.34121,224.50356 L 430.89321,223.92903 L 432.4842,225.38744 L 435.5336,226.58068 L 438.14106,226.53649 L 439.11333,227.90651 L 438.40622,231.83979 L 440.0856,235.02177 L 442.20692,237.67342 L 441.10207,240.50185 L 441.23465,242.22542 L 443.66533,244.7003 L 443.70952,246.33548 L 441.98595,247.74969 L 436.81523,244.74449 L 433.67745,247.17517 L 432.70518,246.60065 L 431.51193,247.97066 L 430.76063,251.59459 L 432.39582,254.68818 L 432.13065,258.75404 L 432.70518,259.63793 L 427.84382,259.72632 L 425.89927,258.84243 L 424.26409,257.20725 L 421.61244,256.19078 L 417.63496,257.42822 L 417.67916,258.70985 L 419.22595,259.72632 L 419.27015,261.00795 L 421.1263,262.51055 L 418.73982,263.12927 L 415.16009,265.9135 L 415.11589,267.54868 L 411.88972,268.83032 L 411.75714,271.65874 L 408.00063,275.10589 L 407.95644,276.78527 L 398.54308,276.74107 L 396.8195,278.11109 L 393.77011,277.62496 L 392.75364,276.60849 L 390.41135,276.69688 L 389.17391,277.75754 L 386.87581,277.80173 L 384.84288,279.70208 L 384.79869,281.24888 L 380.82121,279.61369 L 378.83247,279.61369 L 377.32987,281.42566 L 377.37407,282.48632 L 379.23022,284.60764 L 379.23022,288.54092 L 382.98673,292.07645 L 383.87061,292.03226 L 383.87061,294.37455 L 385.72677,296.05393 L 383.64964,296.18651 L 380.46766,292.82775 L 377.19729,295.08166 L 376.31341,298.35203 L 375.03178,297.95428 L 372.68948,295.5236 L 371.40785,295.43521 L 370.12622,294.10938 L 367.96071,296.31909 L 368.0491,297.64492 L 365.57422,299.76624 L 365.57422,301.5782 L 363.18774,303.30177 L 362.12708,301.35723 L 360.4035,300.51754 L 357.84024,303.61113 L 357.92863,306.17439 L 358.45896,307.677 L 359.82898,308.29571 L 360.75706,309.70993 L 357.26572,311.30092 L 355.18859,311.30092 L 354.30471,310.77059 L 352.22758,313.37805 L 349.8411,313.15707 L 345.90781,309.22379 L 345.90781,308.4283 L 344.80296,308.29571 L 342.41647,305.68826 L 341.17904,305.51148 L 341.31162,303.78791 L 340.33935,302.68305 L 341.40001,301.62239 L 337.86447,300.0756 L 336.1851,297.46814 L 333.57764,297.55653 L 333.75442,302.72725 L 332.73795,303.74371 L 330.61663,303.30177 L 328.98144,304.76018 L 327.34626,304.67179 L 326.19721,302.59467 L 325.18075,302.63886 L 324.12009,303.78791 L 322.17554,303.74371 L 322.17554,305.06954 L 323.19201,307.76538 L 321.77779,309.79832 L 321.82199,313.81999 L 319.65647,315.89711 L 318.02129,315.9855 L 317.40257,319.38845 L 316.51869,320.75847 L 318.46323,322.43785 L 316.82805,323.41012 L 314.97189,323.45432 L 314.97189,323.45432 L 314.97189,323.45432 L 310.55247,326.6363 L 306.00047,326.50372 L 304.67465,327.52018 L 303.03946,326.37113 L 299.90168,326.72469 L 299.19457,323.54271 L 296.27775,320.93525 L 298.13391,319.30006 L 298.08972,318.15102 L 295.61484,315.32259 L 293.27255,315.32259 L 291.63737,316.82519 L 290.13476,316.51583 z "
     id="path2229"
     sodipodi:nodetypes="cccccccccccccccccccccccccccccccccccccccccccccccccccccccccccccccccccccccccccccccccccccccccccccccccccccccccccccccccccccccccccccccccccccccccccccccccccccccccccccccccccccccccccccccccccccccccccccccccccccccccccccccccccccccccccccc" />
</svg>
