<?xml version="1.0" encoding="UTF-8" standalone="no"?>
<!-- Created with Inkscape (http://www.inkscape.org/) -->
<svg
   xmlns:dc="http://purl.org/dc/elements/1.1/"
   xmlns:cc="http://web.resource.org/cc/"
   xmlns:rdf="http://www.w3.org/1999/02/22-rdf-syntax-ns#"
   xmlns:svg="http://www.w3.org/2000/svg"
   xmlns="http://www.w3.org/2000/svg"
   xmlns:sodipodi="http://sodipodi.sourceforge.net/DTD/sodipodi-0.dtd"
   xmlns:inkscape="http://www.inkscape.org/namespaces/inkscape"
   id="svg2"
   sodipodi:version="0.32"
   inkscape:version="0.45.1"
   width="841.88977pt"
   height="595.27557pt"
   version="1.0"
   sodipodi:docbase="C:\Documents and Settings\Rendszergazda\Dokumentumok"
   sodipodi:docname="HU_counties_colored.svg"
   inkscape:output_extension="org.inkscape.output.svg.inkscape">
  <metadata
     id="metadata7">
    <rdf:RDF>
      <cc:Work
         rdf:about="">
        <dc:format>image/svg+xml</dc:format>
        <dc:type
           rdf:resource="http://purl.org/dc/dcmitype/StillImage" />
      </cc:Work>
    </rdf:RDF>
  </metadata>
  <defs
     id="defs5" />
  <sodipodi:namedview
     inkscape:window-height="938"
     inkscape:window-width="1280"
     inkscape:pageshadow="2"
     inkscape:pageopacity="0.0"
     borderopacity="1.0"
     bordercolor="#666666"
     pagecolor="#ffffff"
     id="base"
     inkscape:zoom="0.70710675"
     inkscape:cx="593.90944"
     inkscape:cy="359.12462"
     inkscape:window-x="-4"
     inkscape:window-y="-4"
     inkscape:current-layer="svg2" />
  <path
     id="path5788"
     style="fill:#008000;fill-opacity:1;fill-rule:evenodd;stroke:#c97a08;stroke-width:4;stroke-linecap:butt;stroke-linejoin:miter;stroke-opacity:1;stroke-dasharray:none"
     d="M 603.60406,146.67761 L 605.88507,146.72313 L 608.37127,150.2204 L 610.44857,150.86383 L 610.53092,153.09181 L 608.31217,156.59181 L 604.87467,156.90431 L 604.12467,158.21681 L 603.99967,159.59181 L 603.56217,160.15431 L 602.24967,160.15431 L 601.24967,161.09181 L 598.56217,161.09181 L 597.93717,162.21681 L 596.49967,162.40431 L 594.12467,164.09181 L 593.93717,166.52931 L 599.99967,171.71681 L 599.49967,173.65431 L 599.62467,179.52931 L 601.43717,181.27931 L 600.18717,182.21681 L 598.06217,182.34181 L 594.49967,185.15431 L 594.81217,188.96681 L 593.18717,190.46681 L 593.74967,192.90431 L 593.06217,194.46681 L 591.49967,194.46681 L 590.81217,195.84181 L 588.81217,195.77931 L 588.43717,199.15431 L 584.81217,201.59182 L 582.93717,201.52932 L 580.24967,198.90431 L 574.87467,199.02931 L 572.99967,199.90431 L 570.93717,199.40431 L 569.68717,201.09181 L 570.99967,203.90432 L 572.99967,204.02932 L 576.31217,205.71682 L 576.62467,207.71682 L 575.18717,210.77932 L 572.68717,210.77932 L 571.62467,209.09182 L 569.74967,209.15432 L 569.74967,207.71682 L 565.68717,204.46682 L 563.74967,206.40432 L 564.24967,211.65432 L 560.99967,214.09182 L 557.18717,221.21682 L 557.74967,223.77932 L 556.68717,224.27932 L 553.37467,222.90432 L 551.31217,225.09182 L 550.12467,225.09182 L 549.99967,226.21682 L 548.68717,227.52932 L 548.68717,225.59182 L 547.31217,224.84182 L 545.37467,226.02932 L 545.37467,228.90432 L 546.49967,230.34182 L 545.93717,236.09182 L 544.62467,237.90432 L 542.24967,236.02932 L 539.12467,239.02932 L 537.56217,239.02932 L 536.42024,241.23865 L 531.92024,239.48865 L 528.48274,243.98865 L 526.79524,244.17615 L 525.10774,245.11365 L 523.92024,246.55115 L 524.98274,247.61365 L 526.42024,248.11365 L 527.23274,249.55115 L 526.42024,250.36365 L 524.60774,250.61365 L 523.48274,251.61365 L 522.10774,251.67615 L 520.35774,249.11365 L 520.42024,246.73865 L 519.17024,246.42615 L 516.54524,243.17615 L 516.17024,237.92615 L 517.79524,236.30115 L 517.73274,235.17615 L 515.73274,234.73865 L 514.23274,233.30115 L 513.10774,233.11365 L 514.29524,228.86365 L 516.92024,226.86365 L 514.67024,224.05115 L 511.54524,224.05115 L 510.42024,222.86365 L 508.23274,222.80115 L 507.10774,223.80115 L 505.35774,223.86365 L 503.92024,222.80115 L 502.98274,222.80115 L 500.85774,220.30115 L 497.48274,220.23865 L 495.48274,221.61365 L 490.29524,221.42615 L 489.54524,222.23865 L 488.79524,221.61365 L 486.04524,221.67615 L 481.10774,216.92615 L 478.73274,216.92615 L 477.10774,218.23865 L 475.42024,216.98865 L 469.10774,216.98865 L 465.67024,218.73865 L 463.67024,217.61365 L 463.73274,216.36365 L 461.98274,214.92615 L 460.35774,214.86365 L 459.35774,213.48865 L 459.35774,210.55115 L 456.48274,208.11365 L 453.29524,207.11365 L 452.54524,206.23865 L 452.48274,204.11365 L 451.23274,202.67615 L 449.92024,202.61365 L 447.35774,199.80115 L 447.35774,198.92615 L 446.79524,197.80115 L 445.48274,197.80115 L 444.42024,195.80115 L 444.48274,193.48865 L 448.10774,190.92615 L 450.29524,190.36365 L 451.73274,189.36365 L 451.67024,187.05115 L 453.67024,186.98865 L 453.73274,181.05115 L 453.73274,181.05115 L 453.73274,181.05115 L 452.85774,178.73865 L 451.17024,178.05115 L 448.73274,178.98865 L 445.60774,177.86365 L 445.60774,177.86365 L 445.60774,177.86365 L 445.48274,176.42615 L 441.92024,172.30115 L 442.47209,171.60313 L 448.21733,171.69151 L 450.42704,172.92895 L 451.66448,171.69151 L 451.66448,169.65858 L 453.96258,169.65858 L 454.05096,167.9792 L 454.93485,167.53726 L 455.99551,168.59792 L 457.94005,170.01214 L 459.44265,170.01214 L 461.3872,171.51474 L 463.50852,169.39342 L 464.56918,169.39342 L 465.895,168.33276 L 466.60211,169.21664 L 470.31442,169.21664 L 472.08219,168.24437 L 474.38029,168.68631 L 476.32483,170.10052 L 480.47908,170.89602 L 483.30751,170.45408 L 486.13594,171.24957 L 487.10821,172.5754 L 488.34565,172.66379 L 488.96436,171.33796 L 488.96436,169.83536 L 490.55535,168.33276 L 493.38378,168.24437 L 494.09089,166.65338 L 495.77027,166.4766 L 497.18448,164.88561 L 498.51031,165.41594 L 500.8084,164.44367 L 501.42712,165.50433 L 502.66456,164.1785 L 503.37167,164.974 L 508.14464,164.35528 L 510.44273,166.38821 L 512.12211,164.974 L 513.97827,164.974 L 516.0112,162.23396 L 518.3093,162.32235 L 518.75124,164.26689 L 521.13772,165.15078 L 521.3145,163.73656 L 523.34743,162.85268 L 523.34743,160.81975 L 524.3197,159.75909 L 524.3197,153.83707 L 526.70619,151.45058 L 527.4133,150.12476 L 526.35264,148.09182 L 526.35264,145.08662 L 530.06495,142.70013 L 529.44623,139.69493 L 531.03722,138.63427 L 534.04242,138.28072 L 535.36825,137.13167 L 536.42891,137.30845 L 537.04763,136.33617 L 538.19668,136.42456 L 538.28506,135.27551 L 538.99217,134.30324 L 540.22961,134.30324 L 540.67155,132.62386 L 543.67675,130.50254 L 546.77035,132.88903 L 548.6265,131.73998 L 550.21749,131.73998 L 550.30588,135.98262 L 551.45493,137.22006 L 551.18976,138.45749 L 552.69237,138.45749 L 554.81369,140.6672 L 557.37695,140.57881 L 558.96794,139.1646 L 558.79116,137.30845 L 562.68025,137.22006 L 563.56413,138.19233 L 563.56413,139.42977 L 565.15512,139.87171 L 566.74611,141.63947 L 568.42549,141.72786 L 569.04421,143.84918 L 567.27644,146.32406 L 566.8345,148.18021 L 567.89516,150.12476 L 568.95582,150.12476 L 572.22619,147.38472 L 574.78945,148.53377 L 575.58495,147.29633 L 577.08755,147.29633 L 576.99916,145.79373 L 581.50697,148.18021 L 583.80507,148.18021 L 583.71668,150.65509 L 585.0425,151.45058 L 583.5399,154.10223 L 584.3354,155.78161 L 587.78254,155.78161 L 589.01998,154.10223 L 590.78775,153.04157 L 590.87613,150.65509 L 592.73229,149.94798 L 594.50006,148.18021 L 596.53299,148.2686 L 598.65431,146.05889 L 599.71497,146.05889 L 600.68724,144.82146 L 602.10145,144.90984 L 603.60406,146.67761 z "
     sodipodi:nodetypes="cccccccccccccccccccccccccccccccccccccccccccccccccccccccccccccccccccccccccccccccccccccccccccccccccccccccccccccccccccccccccccccccccccccccccccccccccccccccccccccccccccccccccccccccccccccccccccccccccccccccccccccccccccccccccccccccccccccccccccccccccccccccccccccccccccccc" />
</svg>
