<?xml version="1.0" encoding="UTF-8" standalone="no"?>
<!-- Created with Inkscape (http://www.inkscape.org/) -->
<svg
   xmlns:dc="http://purl.org/dc/elements/1.1/"
   xmlns:cc="http://web.resource.org/cc/"
   xmlns:rdf="http://www.w3.org/1999/02/22-rdf-syntax-ns#"
   xmlns:svg="http://www.w3.org/2000/svg"
   xmlns="http://www.w3.org/2000/svg"
   xmlns:sodipodi="http://sodipodi.sourceforge.net/DTD/sodipodi-0.dtd"
   xmlns:inkscape="http://www.inkscape.org/namespaces/inkscape"
   id="svg2"
   sodipodi:version="0.32"
   inkscape:version="0.45.1"
   width="841.88977pt"
   height="595.27557pt"
   version="1.0"
   sodipodi:docbase="C:\Documents and Settings\Rendszergazda\Dokumentumok"
   sodipodi:docname="HU_counties_colored.svg"
   inkscape:output_extension="org.inkscape.output.svg.inkscape">
  <metadata
     id="metadata7">
    <rdf:RDF>
      <cc:Work
         rdf:about="">
        <dc:format>image/svg+xml</dc:format>
        <dc:type
           rdf:resource="http://purl.org/dc/dcmitype/StillImage" />
      </cc:Work>
    </rdf:RDF>
  </metadata>
  <defs
     id="defs5" />
  <sodipodi:namedview
     inkscape:window-height="938"
     inkscape:window-width="1280"
     inkscape:pageshadow="2"
     inkscape:pageopacity="0.0"
     borderopacity="1.0"
     bordercolor="#666666"
     pagecolor="#ffffff"
     id="base"
     inkscape:zoom="0.70710675"
     inkscape:cx="593.90944"
     inkscape:cy="359.12462"
     inkscape:window-x="-4"
     inkscape:window-y="-4"
     inkscape:current-layer="svg2" />
  <path
     id="path3992"
     style="fill:#008000;fill-opacity:1;fill-rule:evenodd;stroke:#c97a08;stroke-width:4;stroke-linecap:butt;stroke-linejoin:miter;stroke-opacity:1;stroke-dasharray:none"
     d="M 617.50003,394.03197 L 615.06291,398.59501 L 612.43791,396.34501 L 610.93791,395.78251 L 608.50041,397.47001 L 606.50041,397.53251 L 604.50041,399.47001 L 601.37541,399.72001 L 597.43791,404.53251 L 598.68791,407.09501 L 597.87541,407.97001 L 596.43791,407.97001 L 594.93791,406.59501 L 590.43791,406.53251 L 589.06291,404.22001 L 587.31291,404.15751 L 582.68791,401.34501 L 578.31291,411.78251 L 577.00041,411.78251 L 576.25041,412.65751 L 575.31291,412.59501 L 572.06291,409.72001 L 568.43791,411.78251 L 561.31291,405.22001 L 553.43791,401.09501 L 547.87541,394.28251 L 546.06291,389.22001 L 545.81291,386.97001 L 544.56291,384.47001 L 544.56291,382.03251 L 539.62541,374.47001 L 536.56291,377.34501 L 527.62541,375.15751 L 525.56291,379.90751 L 525.43791,383.34501 L 523.81291,386.40751 L 523.25041,389.47001 L 518.50041,388.40751 L 516.68791,387.03251 L 508.81291,393.03251 L 504.25041,394.72001 L 502.25041,394.72001 L 500.12541,397.09501 L 496.43791,393.03251 L 497.87541,388.72001 L 500.18791,384.59501 L 501.81291,384.40751 L 501.81291,382.97001 L 502.81291,382.34501 L 503.50041,380.72001 L 499.62541,375.40751 L 496.93791,374.65751 L 492.31291,372.59501 L 491.68791,371.53251 L 488.12541,372.84501 L 486.56291,374.90751 L 485.68791,378.84501 L 483.50041,380.97001 L 482.43791,380.28251 L 477.18791,380.34501 L 471.68791,385.65751 L 468.81291,386.59501 L 467.06291,388.28251 L 467.00041,390.72001 L 463.87541,392.15751 L 462.93791,393.15751 L 459.31291,391.28251 L 456.93791,391.28251 L 455.68791,389.28251 L 451.37541,389.15751 L 448.81291,387.34501 L 446.75041,387.34501 L 446.68791,389.03251 L 448.93791,391.84501 L 448.31291,393.15751 L 447.00041,393.40751 L 439.20172,385.061 L 437.61073,384.92842 L 437.56653,382.54193 L 435.44521,378.29929 L 435.5778,372.46566 L 434.38455,369.59304 L 434.29617,361.10775 L 435.31263,359.64935 L 435.26844,357.35125 L 438.84817,352.66667 L 438.89236,350.19179 L 439.82044,348.86597 L 439.73205,346.3469 L 440.66013,344.93269 L 441.01368,342.10426 L 440.26238,341.39715 L 436.94782,341.48554 L 434.29617,339.93874 L 435.22424,338.70131 L 435.26844,336.62418 L 431.7771,334.989 L 432.97034,333.04445 L 431.86549,330.3928 L 430.53966,328.93439 L 428.15318,327.82954 L 425.19217,325.00111 L 425.10378,323.54271 L 422.01018,320.31653 L 419.49112,316.11808 L 417.3698,313.95257 L 417.3256,312.84771 L 419.04917,310.6822 L 420.64017,310.10768 L 421.56824,308.95863 L 421.52405,302.15272 L 420.90533,300.47335 L 417.3698,296.84942 L 417.41399,295.56779 L 416.17655,294.28616 L 414.62976,295.34682 L 411.84552,292.51839 L 411.35939,290.66224 L 410.34292,289.11544 L 408.57516,287.83381 L 408.53096,285.27055 L 407.60288,283.98892 L 407.5145,281.33727 L 408.61935,279.79047 L 408.66354,278.0227 L 407.95098,276.77638 L 407.99517,275.097 L 411.75168,271.64985 L 411.88426,268.82143 L 415.11043,267.53979 L 415.15463,265.90461 L 418.73436,263.12038 L 421.12084,262.50166 L 419.26469,260.99906 L 419.22049,259.71743 L 417.6737,258.70096 L 417.6295,257.41933 L 421.60698,256.18189 L 424.25863,257.19836 L 425.89381,258.83354 L 427.83836,259.71743 L 432.69972,259.62904 L 432.12519,258.74515 L 432.39036,254.67929 L 430.75517,251.5857 L 431.50647,247.96177 L 432.69972,246.59176 L 433.67199,247.16628 L 436.80977,244.7356 L 441.98049,247.7408 L 443.70406,246.32659 L 443.65987,244.69141 L 441.22919,242.21653 L 441.09661,240.49296 L 442.20146,237.66453 L 440.08014,235.01288 L 438.40076,231.8309 L 439.10787,227.89762 L 438.1356,226.5276 L 435.52814,226.57179 L 432.47874,225.37855 L 430.88775,223.92014 L 430.87502,222.40696 L 429.00002,221.15696 L 427.37502,219.21946 L 426.81252,216.40696 L 424.18752,214.96946 L 422.43752,214.96946 L 420.62502,213.09446 L 418.06252,211.71946 L 418.00002,207.84446 L 417.12502,206.09446 L 418.00002,204.53196 L 418.00002,201.15696 L 420.31252,197.96946 L 419.00002,196.15696 L 420.31252,193.28196 L 418.25002,192.09446 L 416.68752,190.46946 L 419.87502,186.90696 L 424.62502,186.90696 L 426.37502,185.03196 L 426.43752,183.09446 L 425.50002,181.53196 L 425.50002,180.03196 L 427.87502,177.65696 L 427.81252,174.71946 L 430.68752,173.21946 L 433.00002,173.21946 L 434.31252,174.34446 L 437.18752,172.40696 L 439.37502,173.53196 L 441.93752,172.34446 L 445.50002,176.46946 L 445.62502,177.90696 L 445.62502,177.90696 L 445.62502,177.90696 L 448.75002,179.03196 L 451.18752,178.09446 L 452.87502,178.78196 L 453.75002,181.09446 L 453.75002,181.09446 L 453.75002,181.09446 L 453.68752,187.03196 L 451.68752,187.09446 L 451.75002,189.40696 L 450.31252,190.40696 L 448.12502,190.96946 L 444.50002,193.53196 L 444.43752,195.84446 L 445.50002,197.84446 L 446.81252,197.84446 L 447.37502,198.96946 L 447.37502,199.84446 L 449.93752,202.65696 L 451.25002,202.71946 L 452.50002,204.15696 L 452.56252,206.28196 L 453.31252,207.15696 L 456.50002,208.15696 L 459.37502,210.59446 L 459.37502,213.53196 L 460.37502,214.90696 L 462.00002,214.96946 L 463.75002,216.40696 L 463.68752,217.65696 L 465.68752,218.78196 L 469.12502,217.03196 L 475.43752,217.03196 L 477.12502,218.28196 L 478.75002,216.96946 L 481.12502,216.96946 L 486.06252,221.71946 L 488.81252,221.65696 L 489.56252,222.28196 L 490.31252,221.46946 L 495.50002,221.65696 L 497.50002,220.28196 L 500.87502,220.34446 L 503.00002,222.84446 L 503.93752,222.84446 L 505.37502,223.90696 L 507.12502,223.84446 L 508.25002,222.84446 L 510.43752,222.90696 L 511.56252,224.09446 L 514.68752,224.09446 L 516.93752,226.90696 L 514.31252,228.90696 L 513.12502,233.15696 L 514.25002,233.34446 L 515.75002,234.78196 L 517.75002,235.21946 L 517.81252,236.34446 L 516.18752,237.96946 L 516.56252,243.21946 L 519.18752,246.46946 L 520.43752,246.78196 L 520.37502,249.15696 L 522.12502,251.71946 L 523.50002,251.65696 L 524.62502,250.65696 L 526.43752,250.40696 L 527.25002,249.59446 L 526.43752,248.15696 L 525.00002,247.65696 L 523.93752,246.59446 L 525.12502,245.15696 L 526.81252,244.21946 L 528.50002,244.03196 L 531.93752,239.53196 L 536.43752,241.28196 L 538.81252,244.21946 L 539.00002,245.15696 L 541.12502,246.34446 L 540.31252,248.09446 L 540.37502,250.65696 L 538.93752,252.34446 L 541.68752,255.46946 L 541.68752,257.46946 L 546.50002,261.53196 L 546.56252,263.09446 L 548.12502,266.15696 L 549.37502,267.78196 L 549.31252,270.34446 L 550.18752,272.34446 L 550.06252,275.34446 L 548.43752,278.65696 L 549.06252,279.59446 L 549.06252,282.34446 L 551.00002,284.15696 L 553.43752,285.21946 L 555.56252,288.59446 L 556.43752,288.59446 L 560.62502,284.65696 L 567.25003,284.53196 L 568.25003,285.90696 L 566.93753,288.15696 L 565.93753,290.65696 L 562.50002,294.78196 L 562.50002,295.78196 L 565.12503,296.28196 L 570.75003,300.96946 L 572.87503,302.34446 L 572.75003,304.46946 L 573.87503,305.84446 L 574.00003,308.03196 L 576.31253,308.59446 L 578.62503,311.15696 L 581.25003,311.28196 L 582.43753,312.53196 L 582.43753,313.28196 L 586.31253,316.53196 L 588.93753,316.59446 L 591.43753,319.28196 L 594.00003,319.65696 L 596.56253,321.65696 L 596.56253,323.96946 L 597.56253,324.09446 L 598.87503,325.65696 L 598.87503,328.53196 L 602.37503,333.96946 L 602.43753,337.03196 L 599.87503,340.84446 L 599.43753,345.84446 L 604.31253,346.78196 L 608.56253,348.59446 L 609.18753,350.21946 L 612.62503,352.40697 L 612.68753,354.84447 L 614.56253,356.84447 L 614.56253,359.34447 L 615.18753,360.59447 L 613.75003,362.15697 L 612.68753,364.53197 L 608.87503,368.03197 L 608.75003,371.28197 L 607.87503,373.21947 L 610.12503,375.90697 L 609.12503,377.40697 L 612.93753,382.96947 L 614.31253,390.15697 L 617.68753,391.21947 L 617.50003,394.03197 z" />
</svg>
