<?xml version="1.0" encoding="UTF-8" standalone="no"?>
<!-- Created with Inkscape (http://www.inkscape.org/) -->
<svg
   xmlns:dc="http://purl.org/dc/elements/1.1/"
   xmlns:cc="http://web.resource.org/cc/"
   xmlns:rdf="http://www.w3.org/1999/02/22-rdf-syntax-ns#"
   xmlns:svg="http://www.w3.org/2000/svg"
   xmlns="http://www.w3.org/2000/svg"
   xmlns:sodipodi="http://sodipodi.sourceforge.net/DTD/sodipodi-0.dtd"
   xmlns:inkscape="http://www.inkscape.org/namespaces/inkscape"
   id="svg2"
   sodipodi:version="0.32"
   inkscape:version="0.45.1"
   width="841.88977pt"
   height="595.27557pt"
   version="1.0"
   sodipodi:docbase="C:\Documents and Settings\Rendszergazda\Dokumentumok"
   sodipodi:docname="HU_counties_colored.svg"
   inkscape:output_extension="org.inkscape.output.svg.inkscape">
  <metadata
     id="metadata7">
    <rdf:RDF>
      <cc:Work
         rdf:about="">
        <dc:format>image/svg+xml</dc:format>
        <dc:type
           rdf:resource="http://purl.org/dc/dcmitype/StillImage" />
      </cc:Work>
    </rdf:RDF>
  </metadata>
  <defs
     id="defs5" />
  <sodipodi:namedview
     inkscape:window-height="938"
     inkscape:window-width="1280"
     inkscape:pageshadow="2"
     inkscape:pageopacity="0.0"
     borderopacity="1.0"
     bordercolor="#666666"
     pagecolor="#ffffff"
     id="base"
     inkscape:zoom="0.70710675"
     inkscape:cx="593.90944"
     inkscape:cy="359.12462"
     inkscape:window-x="-4"
     inkscape:window-y="-4"
     inkscape:current-layer="svg2" />
  <path
     id="path1337"
     style="fill:#008000;fill-opacity:1;fill-rule:evenodd;stroke:#c97a08;stroke-width:4;stroke-linecap:butt;stroke-linejoin:miter;stroke-opacity:1;stroke-dasharray:none"
     d="M 237.125,629.40698 L 232.5,629.28198 L 231.0625,630.15698 L 228.9375,629.28198 L 227.75,627.78198 L 221.25,627.90698 L 218.125,625.59448 L 215.8125,625.59448 L 215,626.78198 L 216.1875,629.46948 L 215.5625,630.40698 L 213,630.40698 L 213,629.28198 L 212,628.59448 L 209.5,630.21948 L 208.5,629.59448 L 208.4375,627.40698 L 207.4375,626.34448 L 206.3125,626.40698 L 204.0625,627.96948 L 202.875,627.96948 L 202.375,626.90698 L 202.5625,624.90698 L 204.8125,623.59448 L 204.875,622.09448 L 203.375,620.03198 L 201.5,619.90698 L 200.3125,621.28198 L 198,621.15698 L 198.0625,618.46948 L 196.25,617.09448 L 196.375,614.84448 L 195.6875,614.03198 L 193,614.09448 L 189.9375,611.90698 L 190.75,610.65698 L 193.625,609.59448 L 194.0625,608.53198 L 190.5,607.40698 L 190.4375,604.53198 L 191.5625,602.53198 L 189.1875,602.03198 L 187.3125,600.84448 L 186.25,597.40698 L 184.9375,596.59448 L 183.125,597.84448 L 181.875,597.90698 L 181.8125,596.84448 L 184.4375,595.34448 L 184.4375,593.96948 L 183.1875,592.71948 L 183.0625,590.65698 L 181.3125,589.90698 L 179,591.03198 L 177.9375,590.21948 L 178.4375,588.53198 L 177.3125,586.65698 L 178.9375,585.34448 L 178.9375,583.40698 L 177.3125,581.15698 L 175.8125,580.84448 L 174.75,577.71948 L 170.25,577.40698 L 167.375,574.53198 L 161.625,571.53198 L 161.5625,569.84448 L 158.75,569.90698 L 156,568.34448 L 152.9375,565.53198 L 151.3125,565.46948 L 150.5,564.03198 L 149.375,564.90698 L 147.875,564.90698 L 147.8125,561.46948 L 145.125,561.34448 L 141.625,557.28198 L 140,557.28198 L 138.5625,556.21948 L 138.625,554.96948 L 136.8125,553.34448 L 135.1875,552.46948 L 135.125,548.21948 L 133.8125,546.15698 L 134.5,544.46948 L 138.9375,546.28198 L 140.5625,545.09448 L 141.875,545.15698 L 143,546.78198 L 143,551.03198 L 144.875,550.78198 L 147.0625,548.21948 L 149.9375,546.84448 L 152.375,546.65698 L 153,547.71948 L 155.875,547.59448 L 157.8125,546.03198 L 157.8125,544.15698 L 158.375,542.15698 L 160.625,539.96948 L 160.6875,536.09448 L 158.8125,533.84448 L 158.4375,529.96948 L 156.6875,527.96948 L 157.625,526.96948 L 158.375,524.46948 L 160,523.46948 L 162.4375,526.28198 L 163.8125,526.78198 L 165.0625,524.21948 L 166.9375,523.09448 L 169.0625,524.03198 L 170.5,526.03198 L 173.75,525.84448 L 174.125,522.28198 L 181.5,520.40698 L 181.4375,516.09448 L 182.6875,514.84448 L 182.6875,513.59448 L 181.375,512.84448 L 181.3125,509.28198 L 183.4375,508.78198 L 183.8125,506.78198 L 185.625,506.40698 L 187.125,502.78198 L 187,490.71948 L 186.0625,482.78198 L 187.0625,472.34448 L 188.6875,468.71948 L 193.5,465.84448 L 193.375,461.96948 L 195.4375,455.15698 L 199.0625,454.65698 L 202.5,456.34448 L 209.3125,456.15698 L 211.875,453.96948 L 214.125,454.03198 L 215.125,452.65698 L 217.5625,452.71948 L 222.125,452.78198 L 222.9375,451.96948 L 229.25,451.90698 L 230.1875,450.65698 L 231.6875,450.71948 L 235,447.46948 L 238.4375,446.71948 L 253.8125,439.78198 L 253.1875,437.90698 L 254.6875,439.21948 L 259.875,436.46948 L 263.6875,435.09448 L 264,433.71948 L 266.125,433.71948 L 267.6875,432.78198 L 272.9375,431.65698 L 282.3125,425.71948 L 284.5625,427.28198 L 286.4375,427.34448 L 287.25,425.78198 L 289,425.84448 L 292.25,420.40698 L 290.75,418.46948 L 290.625,416.78198 L 292.6875,416.71948 L 295.375,415.21948 L 298.5625,414.40698 L 300.5625,412.78198 L 308.5625,409.78198 L 310.1875,409.84448 L 312.375,407.59448 L 313.3125,407.59448 L 315.125,406.46948 L 325.9375,410.09448 L 327.625,409.03198 L 330.1875,411.71948 L 332.5,414.71948 L 333.0625,417.28198 L 336.1875,424.84448 L 333.375,427.03198 L 334.6875,429.09448 L 333.875,430.40698 L 333.75,434.65698 L 334.875,436.09448 L 333.6875,437.40698 L 334,445.28198 L 335.5,447.53198 L 334.75,448.40698 L 332.8125,448.53198 L 331.375,449.71948 L 329.64434,449.76128 L 328.76046,451.35227 L 329.68854,456.21363 L 326.90431,456.34622 L 326.37398,455.63911 L 324.20846,457.36268 L 320.93809,458.82109 L 321.86617,460.19111 L 321.82198,462.09146 L 322.79425,463.46148 L 322.88264,470.04641 L 321.51262,471.37223 L 319.78904,472.30031 L 319.03774,473.75872 L 319.83324,475.4381 L 316.91642,477.47103 L 317.049,480.52043 L 315.28124,481.18334 L 314.39735,483.52563 L 316.625,488.15698 L 314.875,491.84448 L 314.875,494.09448 L 312,496.34448 L 309.6875,495.71948 L 308.875,497.03198 L 309.0625,499.28198 L 307.75,501.09448 L 307.6875,503.90698 L 309.3125,506.53198 L 308.75,510.21948 L 310,511.65698 L 309.9375,513.84448 L 311.3125,515.90698 L 311.3125,517.59448 L 312.9375,520.90698 L 313,524.34448 L 311.1875,525.21948 L 310.3125,526.21948 L 308.4375,526.21948 L 307.5,527.90698 L 304.5,530.15698 L 304.875,532.78198 L 310.3125,532.59448 L 312.625,535.46948 L 312.6875,537.28198 L 314.4375,537.53198 L 315.5,540.65698 L 315.5,545.71948 L 313.5625,548.59448 L 313.375,549.96948 L 314.3125,550.46948 L 314.75,551.96948 L 314.10713,553.33204 L 312.0963,553.30994 L 310.63789,552.42604 L 309.26787,553.22154 L 307.41171,552.16084 L 303.65521,552.11674 L 301.79905,550.43734 L 296.49575,550.43734 L 292.91603,554.23804 L 292.82764,558.74584 L 291.76698,560.60194 L 291.72278,566.08204 L 290.13179,567.67304 L 288.85016,566.96594 L 286.50787,568.86624 L 284.38655,567.40784 L 282.35362,569.13144 L 280.54166,569.21984 L 278.02259,571.60634 L 274.75222,570.41304 L 273.95672,568.86624 L 270.81894,568.33594 L 267.54857,572.18084 L 264.94111,572.13664 L 263.61529,570.63404 L 263.61529,568.11494 L 261.80333,565.64014 L 259.37265,567.89404 L 260.4775,569.75014 L 258.62135,572.09244 L 258.53296,575.40704 L 256.10228,580.26834 L 254.95323,581.46164 L 254.90904,583.45034 L 253.84838,585.39494 L 254.24612,592.59854 L 252.08061,594.10114 L 253.31805,595.86894 L 253.31805,598.91834 L 251.90383,600.06734 L 251.68286,602.05614 L 250.18026,602.14454 L 250.09187,603.95644 L 248.89863,603.95644 L 246.64473,606.03354 L 246.55634,609.43654 L 247.44022,610.36464 L 247.48441,611.82304 L 249.91509,613.67914 L 250.00348,617.30314 L 248.3683,618.80574 L 246.02601,618.67314 L 245.45148,619.38024 L 247.617,625.34644 L 247.39603,629.63324 L 248.54507,629.67744 L 249.91509,628.57264 L 250.31284,626.84904 L 251.68286,628.08644 L 254.02515,628.17484 L 253.89257,630.95914 L 254.68806,632.28494 L 256.32325,632.28494 L 258.88651,633.87594 L 259.59362,636.96954 L 261.18461,638.07434 L 260.61008,639.09084 L 260.56589,641.91924 L 261.273,642.80314 L 260.07975,645.23384 L 255.52775,645.67574 L 254.77645,643.95214 L 253.00869,643.95214 L 252.1248,644.79184 L 251.85964,646.42704 L 250.53381,648.28324 L 249.1196,648.50414 L 248.625,646.40698 L 247.5625,645.15698 L 247.625,643.28198 L 246.375,641.84448 L 246.375,639.46948 L 244.6875,637.84448 L 244.4375,635.78198 L 242.8125,635.09448 L 241,633.28198 L 240.25,633.21948 L 239.6875,631.53198 L 238.5625,631.40698 L 237.125,629.40698 z "
     sodipodi:nodetypes="cccccccccccccccccccccccccccccccccccccccccccccccccccccccccccccccccccccccccccccccccccccccccccccccccccccccccccccccccccccccccccccccccccccccccccccccccccccccccccccccccccccccccccccccccccccccccccccccccccccccccccccccccccccccccccccccccccccccccccccccccccccccccccccccccccccccccccccccccccccccccccccccccccccccccccccccccccccccccccccccccccccccccc" />
</svg>
