<?xml version="1.0" encoding="UTF-8" standalone="no"?>
<!-- Created with Inkscape (http://www.inkscape.org/) -->
<svg
   xmlns:dc="http://purl.org/dc/elements/1.1/"
   xmlns:cc="http://web.resource.org/cc/"
   xmlns:rdf="http://www.w3.org/1999/02/22-rdf-syntax-ns#"
   xmlns:svg="http://www.w3.org/2000/svg"
   xmlns="http://www.w3.org/2000/svg"
   xmlns:sodipodi="http://sodipodi.sourceforge.net/DTD/sodipodi-0.dtd"
   xmlns:inkscape="http://www.inkscape.org/namespaces/inkscape"
   id="svg2"
   sodipodi:version="0.32"
   inkscape:version="0.45.1"
   width="841.88977pt"
   height="595.27557pt"
   version="1.0"
   sodipodi:docbase="C:\Documents and Settings\Rendszergazda\Dokumentumok"
   sodipodi:docname="HU_counties_colored.svg"
   inkscape:output_extension="org.inkscape.output.svg.inkscape">
  <metadata
     id="metadata7">
    <rdf:RDF>
      <cc:Work
         rdf:about="">
        <dc:format>image/svg+xml</dc:format>
        <dc:type
           rdf:resource="http://purl.org/dc/dcmitype/StillImage" />
      </cc:Work>
    </rdf:RDF>
  </metadata>
  <defs
     id="defs5" />
  <sodipodi:namedview
     inkscape:window-height="938"
     inkscape:window-width="1280"
     inkscape:pageshadow="2"
     inkscape:pageopacity="0.0"
     borderopacity="1.0"
     bordercolor="#666666"
     pagecolor="#ffffff"
     id="base"
     inkscape:zoom="0.70710675"
     inkscape:cx="593.90944"
     inkscape:cy="359.12462"
     inkscape:window-x="-4"
     inkscape:window-y="-4"
     inkscape:current-layer="svg2" />
  <path
     style="fill:#008000;fill-opacity:1;fill-rule:evenodd;stroke:#c97a08;stroke-width:4;stroke-linecap:butt;stroke-linejoin:miter;stroke-opacity:1;stroke-dasharray:none"
     d="M 134.04093,540.00579 L 134.48586,544.46926 L 138.92336,546.28176 L 140.54836,545.09426 L 141.86086,545.15676 L 142.98586,546.78176 L 142.98586,551.03176 L 144.86086,550.78176 L 147.04836,548.21926 L 149.92336,546.84426 L 152.36086,546.65676 L 152.98586,547.71926 L 155.86086,547.59426 L 157.79836,546.03176 L 157.79836,544.15676 L 158.36086,542.15676 L 160.61086,539.96926 L 160.67336,536.09426 L 158.79836,533.84426 L 158.42336,529.96926 L 156.67336,527.96926 L 157.61086,526.96926 L 158.36086,524.46926 L 159.98586,523.46926 L 162.42336,526.28176 L 163.79836,526.78176 L 165.04836,524.21926 L 166.92336,523.09426 L 169.04836,524.03176 L 170.48586,526.03176 L 173.73586,525.84426 L 174.11086,522.28176 L 181.48586,520.40676 L 181.42336,516.09426 L 182.67336,514.84426 L 182.67336,513.59426 L 181.36086,512.84426 L 181.29836,509.28176 L 183.42336,508.78176 L 183.79836,506.78176 L 185.61086,506.40676 L 187.11086,502.78176 L 186.98586,490.71926 L 186.04836,482.78186 L 187.04836,472.34435 L 188.67336,468.71935 L 193.48586,465.84435 L 193.36086,461.96935 L 195.42336,455.15685 L 199.04836,454.65685 L 202.48586,456.34435 L 209.29836,456.15685 L 211.86086,453.96935 L 214.11086,454.03185 L 215.11086,452.65685 L 217.54836,452.71935 L 217.43534,451.08711 L 208.33134,442.60183 L 208.37553,439.55243 L 206.87293,437.4753 L 205.81227,437.34272 L 205.5913,435.84012 L 203.82353,435.17721 L 204.57483,432.61395 L 204.35386,430.27165 L 205.41452,428.99002 L 205.28194,427.53162 L 203.42578,425.18932 L 204.39805,422.97962 L 202.85126,420.72571 L 201.21607,420.59313 L 200.90671,418.20664 L 199.71347,416.74824 L 197.06182,415.20144 L 195.51503,416.39468 L 192.15627,415.77596 L 190.34431,414.49433 L 189.6372,412.72657 L 190.34431,410.91461 L 191.84691,409.23523 L 191.80271,407.1581 L 192.90757,406.27422 L 192.90757,405.03678 L 190.74205,402.07577 L 190.3885,399.99864 L 187.20652,396.94925 L 185.70392,397.03764 L 184.02454,398.76121 L 182.65452,398.67282 L 181.46128,397.47958 L 177.35122,397.47958 L 177.30703,394.60696 L 175.2299,394.51857 L 173.02019,391.60175 L 171.38501,390.67367 L 169.8824,388.28719 L 167.76108,387.71266 L 167.84947,390.58529 L 167.05398,391.91111 L 164.6233,390.40851 L 163.16489,391.33659 L 163.1207,389.34785 L 162.14842,388.15461 L 159.32,387.31492 L 158.30353,387.31492 L 156.88932,389.43624 L 157.7732,391.15981 L 157.59642,394.91631 L 158.65708,395.97698 L 158.61289,397.78894 L 154.59122,401.28028 L 154.23767,403.97612 L 151.89538,405.03678 L 145.26625,405.03678 L 143.80784,402.56191 L 141.73072,402.51771 L 140.53747,401.72222 L 138.54873,402.95965 L 136.47161,402.91546 L 135.54353,402.29674 L 134.2619,403.09224 L 131.69864,400.74995 L 128.64924,403.22482 L 129.00279,406.53938 L 128.47246,407.11391 L 127.50019,406.23002 L 124.67176,407.24649 L 124.58338,411.04719 L 123.08077,412.10785 L 117.73328,410.60525 L 110.88318,410.73783 L 109.64575,409.76556 L 107.08248,409.76556 L 104.25406,412.85915 L 102.70726,411.7543 L 100.8953,411.79849 L 98.729784,415.11305 L 97.801707,417.36696 L 95.017474,419.35569 L 94.001008,422.40509 L 92.454212,423.73092 L 90.907416,423.68672 L 90.42128,429.12261 L 89.095454,430.58101 L 87.327687,429.03422 L 84.631843,429.03422 L 83.4386,430.13907 L 81.980192,430.09488 L 81.31728,430.89037 L 82.466328,432.56975 L 82.466328,434.77946 L 81.007921,436.90078 L 80.78695,438.58016 L 78.577241,439.7734 L 76.986251,439.72921 L 76.013979,440.96664 L 74.688154,441.05503 L 73.627494,442.11569 L 72.390057,441.98311 L 71.461979,443.13216 L 69.959377,441.62956 L 68.677746,441.62956 L 68.677746,441.62956 L 68.677746,441.62956 L 67.793863,440.34793 L 65.893513,439.8176 L 60.855377,442.60183 L 62.004426,443.92765 L 63.551222,443.26474 L 65.672542,443.70668 L 65.628348,445.73961 L 64.037358,447.68416 L 65.186406,449.23095 L 64.125746,450.68936 L 63.065086,450.77775 L 61.606678,453.16424 L 61.474096,454.71103 L 62.490562,456.21363 L 60.98796,458.37915 L 62.667338,459.484 L 66.379649,459.39561 L 68.942911,461.0308 L 68.279999,463.41728 L 69.163882,465.80377 L 67.617086,467.96928 L 64.965436,467.0854 L 62.57895,470.62093 L 63.153474,471.81418 L 64.788659,473.49356 L 66.202872,473.97969 L 68.235804,477.86878 L 69.517435,477.86878 L 70.357125,479.15041 L 71.992309,479.1946 L 73.760076,482.15561 L 77.207222,485.73534 L 77.118833,488.21022 L 78.267882,489.49185 L 81.140503,489.40346 L 82.466328,491.70156 L 81.759222,494.3974 L 83.924736,496.56291 L 82.864076,498.90521 L 83.659571,500.4962 L 82.864076,502.13138 L 85.780891,504.38528 L 86.974134,504.51787 L 89.228037,506.86016 L 90.553862,506.86016 L 91.614522,508.31857 L 94.487144,508.40695 L 95.680386,510.08633 L 98.773979,511.94249 L 100.63013,510.88183 L 102.08854,511.89829 L 102.83984,514.19639 L 104.34244,514.72672 L 105.53569,516.45029 L 105.97763,519.4113 L 107.48023,520.78132 L 107.56862,522.54909 L 108.76186,523.52136 L 108.71767,524.49363 L 110.44124,526.30559 L 111.45771,525.06816 L 112.96031,525.20074 L 113.62322,526.12882 L 113.62322,528.07336 L 116.76101,528.11755 L 116.8052,529.44338 L 119.19169,530.50404 L 121.00365,528.91305 L 122.41786,528.95724 L 123.6111,529.92952 L 125.11371,532.44858 L 128.07472,532.44858 L 131.2125,535.27701 L 131.2125,536.02831 L 132.84769,536.73542 L 132.84769,538.50319 L 134.04093,540.00579 z "
     id="path2219"
     sodipodi:nodetypes="ccccccccccccccccccccccccccccccccccccccccccccccccccccccccccccccccccccccccccccccccccccccccccccccccccccccccccccccccccccccccccccccccccccccccccccccccccccccccccccccccccccccccccccccccccccccccccccccccccccccccccccccccccccccccccccccccccccccccccccccccc" />
</svg>
