<?xml version="1.0" encoding="UTF-8" standalone="no"?>
<!-- Created with Inkscape (http://www.inkscape.org/) -->
<svg
   xmlns:dc="http://purl.org/dc/elements/1.1/"
   xmlns:cc="http://web.resource.org/cc/"
   xmlns:rdf="http://www.w3.org/1999/02/22-rdf-syntax-ns#"
   xmlns:svg="http://www.w3.org/2000/svg"
   xmlns="http://www.w3.org/2000/svg"
   xmlns:sodipodi="http://sodipodi.sourceforge.net/DTD/sodipodi-0.dtd"
   xmlns:inkscape="http://www.inkscape.org/namespaces/inkscape"
   id="svg2"
   sodipodi:version="0.32"
   inkscape:version="0.45.1"
   width="841.88977pt"
   height="595.27557pt"
   version="1.0"
   sodipodi:docbase="C:\Documents and Settings\Rendszergazda\Dokumentumok"
   sodipodi:docname="HU_counties_colored.svg"
   inkscape:output_extension="org.inkscape.output.svg.inkscape">
  <metadata
     id="metadata7">
    <rdf:RDF>
      <cc:Work
         rdf:about="">
        <dc:format>image/svg+xml</dc:format>
        <dc:type
           rdf:resource="http://purl.org/dc/dcmitype/StillImage" />
      </cc:Work>
    </rdf:RDF>
  </metadata>
  <defs
     id="defs5" />
  <sodipodi:namedview
     inkscape:window-height="938"
     inkscape:window-width="1280"
     inkscape:pageshadow="2"
     inkscape:pageopacity="0.0"
     borderopacity="1.0"
     bordercolor="#666666"
     pagecolor="#ffffff"
     id="base"
     inkscape:zoom="0.70710675"
     inkscape:cx="593.90944"
     inkscape:cy="359.12462"
     inkscape:window-x="-4"
     inkscape:window-y="-4"
     inkscape:current-layer="svg2" />
  <path
     style="fill:white;fill-opacity:1;fill-rule:evenodd;stroke:black;stroke-width:4;stroke-linecap:butt;stroke-linejoin:miter;stroke-opacity:1"
     d="M 621.55035,153.71629 L 618.48041,152.54351 L 614.47296,152.49573 L 613.02802,153.63546 L 610.45904,150.91588 L 608.38179,150.27245 L 605.89557,146.77518 L 606.24775,145.14493 L 608.03744,144.63969 L 609.07712,143.32194 L 607.44927,142.56348 L 608.94641,140.68001 L 611.06856,140.60904 L 612.62821,139.10057 L 612.50036,137.6546 L 615.435,135.33364 L 617.18215,135.13767 L 617.2418,132.5667 L 616.53303,131.31343 L 617.57427,130.74765 L 617.6155,128.49438 L 621.03173,128.49111 L 622.94469,129.88901 L 625.54516,129.91191 L 626.35152,128.27702 L 627.40789,128.01712 L 627.52675,126.50722 L 629.83312,126.37232 L 631.87108,122.83272 L 633.90659,123.75795 L 635.4421,123.80818 L 637.2901,125.79591 L 640.57561,126.53364 L 642.95749,123.4263 L 644.75609,122.86821 L 645.80468,118.74762 L 649.35327,114.81454 L 651.08937,113.94395 L 651.09625,110.39911 L 652.91563,108.85427 L 652.7748,106.90953 L 655.19647,105.40229 L 656.80564,102.52005 L 655.47731,99.450306 L 657.1015,97.671343 L 657.66318,95.142379 L 657.03736,92.238415 L 661.24483,88.851627 L 661.3273,87.277339 L 662.72226,85.578051 L 664.071,85.106354 L 665.04475,83.572157 L 664.39349,82.35046 L 665.30473,80.816263 L 666.72701,80.668192 L 668.7118,76.707621 L 670.19658,76.809551 L 670.30636,71.09898 L 668.558,68.694197 L 669.62214,67.226915 L 670.99877,66.634632 L 673.10116,67.690504 L 674.45355,66.996376 L 674.93093,65.614749 L 677.78332,64.983121 L 680.72946,66.117118 L 682.30059,64.563616 L 684.93423,64.635113 L 685.75536,63.331611 L 688.72062,62.781422 L 690.99837,61.106233 L 694.96363,60.993544 L 697.11639,59.068356 L 699.58164,58.643167 L 702.1719,59.342978 L 707.44965,57.167789 L 713.72741,57.1176 L 715.82446,56.216089 L 719.69571,60.438279 L 722.69196,62.035469 L 728.78383,60.084064 L 730.37571,61.69516 L 730.55945,63.60485 L 735.3682,67.82704 L 738.98944,68.486731 L 744.1135,65.964154 L 746.17507,67.316576 L 750.67413,67.293999 L 751.04819,68.021421 L 753.09413,68.014469 L 755.57756,70.070016 L 754.8735,72.000564 L 756.16944,73.993611 L 757.86333,74.010788 L 759.43222,73.465464 L 760.4386,70.982641 L 761.63249,69.812318 L 762.18575,67.954494 L 765.42651,67.096671 L 766.60477,67.801347 L 772.22053,63.943524 L 774.58629,63.2107 L 779.26456,65.852877 L 782.50532,65.995053 L 783.28426,66.608723 L 785.6257,64.409892 L 785.02964,63.023561 L 786.05858,61.82473 L 786.12747,59.310657 L 788.07136,58.296583 L 795.32774,57.97001 L 797.07934,56.982117 L 798.89344,58.431724 L 800.20753,58.31883 L 801.14663,56.955937 L 801.2664,54.582657 L 803.38617,52.584378 L 804.88093,52.773598 L 806.0007,54.712818 L 810.54235,57.511413 L 812.45899,57.497508 L 815.00064,59.983603 L 815.04228,61.594698 L 816.08385,62.539078 L 815.88592,65.164938 L 817.25049,66.790798 L 818.61506,66.916658 L 819.10464,67.917518 L 820.59421,67.980879 L 821.77128,69.044239 L 824.2218,68.903829 L 825.35981,67.013419 L 826.81033,66.873009 L 827.82335,68.232599 L 828.81292,68.170959 L 828.81636,69.618612 L 830.0698,70.253764 L 830.10449,77.076417 L 834.07668,82.899069 L 835.62404,86.095142 L 837.61137,88.034222 L 837.58356,92.356875 L 842.99325,95.429528 L 843.32171,97.463664 L 842.24717,98.855309 L 844.38013,99.003085 L 845.34044,101.43968 L 846.80903,102.49228 L 848.71513,101.60738 L 851.99622,103.78498 L 856.71481,103.77508 L 856.77337,102.61245 L 860.26942,105.07482 L 860.57798,104.03719 L 862.38653,103.99956 L 862.49575,98.661531 L 864.79247,98.198507 L 866.15169,99.860482 L 868.69841,98.491207 L 869.99513,98.371933 L 870.91685,97.502658 L 873.24555,96.932132 L 875.08478,98.238465 L 876.81521,95.099271 L 878.67064,94.897578 L 880.08857,93.695884 L 883.03315,93.785975 L 884.51029,94.701609 L 888.68201,91.957335 L 891.31868,91.943141 L 892.01786,93.366447 L 894.09204,93.289753 L 896.72872,92.52556 L 898.3029,92.823866 L 898.37708,94.247172 L 901.51376,93.732979 L 903.46294,93.156285 L 902.67825,96.592486 L 902.64356,99.34119 L 901.47864,100.60649 L 901.56371,101.99679 L 899.21129,104.76209 L 899.04637,108.77739 L 896.56895,108.19894 L 895.77902,109.80799 L 895.7391,111.91704 L 894.63668,112.58859 L 893.25773,111.04771 L 890.81158,110.66588 L 889.68477,109.06434 L 885.95865,112.96198 L 883.83168,112.95738 L 883.50543,115.0027 L 879.36669,119.17303 L 877.60294,120.09335 L 877.58919,122.26367 L 874.60669,124.94962 L 871.99919,123.44807 L 869.45419,125.25902 L 865.72169,125.69497 L 864.28607,127.42779 L 862.47544,125.78562 L 860.60232,126.26844 L 859.29376,128.96698 L 857.88337,129.03892 L 857.94062,131.47163 L 856.08658,131.97523 L 855.4792,133.93876 L 853.2368,134.05804 L 852.3694,134.73981 L 848.62701,134.73409 L 846.94711,135.60336 L 843.07971,135.03514 L 841.14981,136.59191 L 831.53242,136.71119 L 830.22752,134.95546 L 828.73512,134.68411 L 826.36772,133.22526 L 824.81282,135.2664 L 820.88292,136.05755 L 817.57802,138.86433 L 815.04056,141.6828 L 813.64812,139.7336 L 812.15573,139.91538 L 811.83055,141.58505 L 809.78295,142.02213 L 809.40767,140.69139 L 807.91333,139.84715 L 806.36069,141.52359 L 805.74219,143.54808 L 804.14437,144.09041 L 804.13354,148.3115 L 804.8374,150.38743 L 802.29126,153.21335 L 804.26836,156.62304 L 806.12045,156.84523 L 807.97255,159.37992 L 806.32465,160.85211 L 808.32877,162.93859 L 807.83442,164.62993 L 806.03832,165.5743 L 805.8145,168.48399 L 802.96567,168.39368 L 802.03212,169.00501 L 803.25565,170.46327 L 803.30435,171.80337 L 801.32185,173.1463 L 799.83935,172.05174 L 794.73185,172.26967 L 794.12435,174.1126 L 791.37623,174.98678 L 790.5031,173.23596 L 786.50498,172.86015 L 785.75686,171.60933 L 784.63374,172.29601 L 782.07311,171.9202 L 779.57499,168.23188 L 776.20187,171.35606 L 776.20374,174.16774 L 774.64312,175.54192 L 772.64499,174.16611 L 768.28609,173.80653 L 767.55218,171.32195 L 764.06828,171.52487 L 762.64687,170.54029 L 761.40137,172.90556 L 760.21837,173.39583 L 759.41037,174.6986 L 757.47737,175.56387 L 755.85686,177.99163 L 755.79886,181.0444 L 758.55336,184.15967 L 758.62036,186.64994 L 761.15611,187.49958 L 761.94186,189.03673 L 760.91511,192.38637 L 757.76336,196.79851 L 757.9866,198.14816 L 761.83485,198.3103 L 761.7456,199.65995 L 760.28135,200.88459 L 758.3171,201.10923 L 756.54035,203.20888 L 756.4511,209.80852 L 754.61185,210.34567 L 754.39759,211.69531 L 753.30834,211.79495 L 752.78159,213.1446 L 753.69234,216.05674 L 755.10309,216.59388 L 755.07634,218.25603 L 756.17459,219.54317 L 754.64783,222.39282 L 754.18358,225.55496 L 752.40683,228.4671 L 750.81758,234.25425 L 749.47833,235.60389 L 748.46226,234.16932 L 745.56304,233.83364 L 743.87922,235.0841 L 744.44985,240.78028 L 743.64585,241.94937 L 741.46685,242.55597 L 739.16286,241.47507 L 734.66424,246.84451 L 729.8224,249.43364 L 729.20888,252.06384 L 724.92809,252.05084 L 724.44193,255.31968 L 726.01828,255.96352 L 727.21962,257.41985 L 726.0875,258.9327 L 723.83038,257.38305 L 723.07326,255.3959 L 720.81614,255.47124 L 719.55901,253.35909 L 715.48939,250.37194 L 711.37353,252.72206 L 711.0031,255.49087 L 706.44518,253.07219 L 702.468,249.07399 L 699.07475,249.841 L 697.67429,249.14958 L 696.35349,249.96325 L 692.26682,249.92231 L 689.4095,247.65929 L 687.58389,247.56612 L 685.27596,244.27244 L 682.75968,244.06931 L 682.6809,241.61618 L 685.03962,238.35055 L 683.21084,236.08491 L 681.06956,235.50678 L 680.86578,234.05365 L 677.4745,231.66302 L 675.64572,231.08489 L 675.0435,228.70207 L 671.81628,223.88175 L 671.77656,221.49893 L 673.48685,219.36611 L 673.57213,216.8583 L 671.78241,214.22548 L 671.67873,211.42665 L 669.26255,210.94032 L 665.90887,209.76649 L 665.54684,208.31128 L 663.30519,206.09266 L 665.37155,203.16468 L 669.7857,202.30511 L 671.17374,200.37961 L 671.18583,198.61073 L 673.07797,197.83484 L 670.66325,195.01452 L 667.99853,193.6317 L 666.02131,190.93638 L 663.6691,189.17856 L 667.50438,184.98325 L 668.23744,177.40511 L 669.38522,176.45979 L 669.3455,173.88947 L 667.36829,171.19415 L 670.39107,166.87383 L 667.91385,163.11601 L 667.99913,158.1707 L 666.77191,156.85038 L 666.9197,154.28006 L 664.62998,153.14724 L 664.71276,151.28304 L 662.42054,149.35634 L 660.38481,150.36003 L 657.9112,150.46408 L 657.05345,149.48729 L 654.72124,150.63414 L 654.61919,153.26654 L 652.95829,155.01857 L 652.90957,156.33589 L 651.1486,157.56544 L 650.51451,162.17848 L 649.28185,162.04224 L 647.73122,160.43367 L 646.39267,160.01133 L 643.45013,156.41999 L 641.93916,157.46205 L 640.17819,156.8166 L 638.86187,158.37546 L 638.73021,161.07135 L 637.72972,162.04615 L 635.14225,162.12541 L 634.75292,163.27231 L 630.05988,163.15118 L 628.65621,161.98698 L 627.13839,161.76198 L 627.07253,160.5501 L 624.93894,159.25783 L 623.01504,159.19372 L 622.44117,158.09393 L 622.47019,155.54876 L 621.55035,153.71629 z "
     id="path1349"
     sodipodi:nodetypes="cccccccccccccccccccccccccccccccccccccccccccccccccccccccccccccccccccccccccccccccccccccccccccccccccccccccccccccccccccccccccccccccccccccccccccccccccccccccccccccccccccccccccccccccccccccccccccccccccccccccccccccccccccccccccccccccccccccccccccccccccccccccccccccccccccccccccccccccccccccccccccccccccccccccccccccccccccccccccccccccccccccccccccccccccccccccccccccccccccccccccccccccccccccccccccccccccccccccccccccc" />
</svg>
