<?xml version="1.0" encoding="UTF-8" standalone="no"?>
<!-- Created with Inkscape (http://www.inkscape.org/) -->
<svg
   xmlns:dc="http://purl.org/dc/elements/1.1/"
   xmlns:cc="http://web.resource.org/cc/"
   xmlns:rdf="http://www.w3.org/1999/02/22-rdf-syntax-ns#"
   xmlns:svg="http://www.w3.org/2000/svg"
   xmlns="http://www.w3.org/2000/svg"
   xmlns:sodipodi="http://sodipodi.sourceforge.net/DTD/sodipodi-0.dtd"
   xmlns:inkscape="http://www.inkscape.org/namespaces/inkscape"
   id="svg2"
   sodipodi:version="0.32"
   inkscape:version="0.45.1"
   width="841.88977pt"
   height="595.27557pt"
   version="1.0"
   sodipodi:docbase="C:\Documents and Settings\Rendszergazda\Dokumentumok"
   sodipodi:docname="HU_counties_colored.svg"
   inkscape:output_extension="org.inkscape.output.svg.inkscape">
  <metadata
     id="metadata7">
    <rdf:RDF>
      <cc:Work
         rdf:about="">
        <dc:format>image/svg+xml</dc:format>
        <dc:type
           rdf:resource="http://purl.org/dc/dcmitype/StillImage" />
      </cc:Work>
    </rdf:RDF>
  </metadata>
  <defs
     id="defs5" />
  <sodipodi:namedview
     inkscape:window-height="938"
     inkscape:window-width="1280"
     inkscape:pageshadow="2"
     inkscape:pageopacity="0.0"
     borderopacity="1.0"
     bordercolor="#666666"
     pagecolor="#ffffff"
     id="base"
     inkscape:zoom="0.70710675"
     inkscape:cx="593.90944"
     inkscape:cy="359.12462"
     inkscape:window-x="-4"
     inkscape:window-y="-4"
     inkscape:current-layer="svg2" />
  <path
     style="fill:white;fill-opacity:1;fill-rule:evenodd;stroke:black;stroke-width:4;stroke-linecap:butt;stroke-linejoin:miter;stroke-opacity:1;stroke-dasharray:none"
     d="M 711.43754,258.03196 L 710.99568,255.4469 L 711.36618,252.67809 L 715.48198,250.32797 L 719.55158,253.31512 L 720.80878,255.42727 L 719.61508,256.29987 L 719.04048,261.82414 L 719.04048,261.82414 L 720.41058,263.06157 L 720.32218,265.53645 L 722.84118,268.85101 L 724.25548,268.9394 L 727.34898,271.67944 L 732.03358,271.72363 L 733.97818,270.39781 L 735.87848,270.17684 L 737.77888,268.63004 L 738.92788,269.6907 L 741.13758,270.00006 L 743.92188,272.56332 L 745.38028,275.61272 L 744.76158,277.73404 L 745.77798,281.13699 L 743.61248,284.8493 L 743.70088,286.70546 L 745.42448,288.60581 L 745.46868,290.24099 L 747.14798,290.9039 L 745.64538,293.46717 L 745.55698,297.53303 L 746.79448,299.03563 L 746.83868,302.74794 L 747.85508,305.22282 L 747.81098,307.69769 L 749.26938,310.6587 L 749.00418,312.69163 L 749.79968,314.50359 L 749.71128,317.64138 L 751.34648,319.36495 L 750.50678,343.58336 L 747.32478,345.08596 L 747.32478,345.08596 L 747.32478,345.08596 L 747.19218,346.50017 L 744.49158,347.24912 L 742.61658,349.81162 L 742.61658,351.43662 L 740.42908,353.43662 L 740.36658,356.56162 L 739.61658,357.62412 L 737.99158,356.62412 L 735.53578,358.10842 L 734.55408,359.87412 L 732.86658,359.87412 L 725.92908,367.18662 L 728.36658,370.06162 L 728.42908,371.74912 L 726.86658,371.81162 L 725.36658,373.49912 L 726.80408,378.43662 L 725.05408,381.18662 L 726.80408,383.31162 L 725.11658,384.06162 L 724.30408,385.93662 L 720.05408,388.81162 L 720.05408,389.99912 L 713.55408,390.12412 L 713.61658,387.06162 L 711.05408,387.12412 L 707.61658,389.99912 L 706.92908,389.99912 L 705.30408,391.87412 L 705.36658,394.74912 L 706.99158,398.31162 L 705.55408,401.93662 L 706.11658,403.06162 L 707.55408,403.99912 L 707.99158,405.37412 L 707.49158,406.93662 L 708.80408,407.99912 L 708.80408,411.74912 L 706.17908,414.62412 L 706.24158,415.87412 L 700.99158,417.12412 L 696.24158,420.37412 L 690.05408,415.93662 L 687.55408,416.99912 L 684.80408,416.99912 L 683.67908,416.06162 L 681.92908,417.24912 L 681.92908,419.74912 L 674.67908,422.93662 L 669.17908,420.62412 L 666.80408,425.37412 L 661.99158,429.99912 L 663.17908,432.18662 L 662.99158,434.56162 L 664.24158,436.31162 L 664.11658,438.81162 L 664.99158,439.74912 L 665.30408,441.24912 L 663.52128,443.18673 L 662.06288,443.31931 L 660.60448,445.48482 L 654.37308,445.79418 L 652.91468,447.65034 L 652.95888,449.28552 L 651.76558,450.74393 L 648.71618,450.74393 L 644.60618,449.55069 L 643.58968,447.9155 L 643.05938,445.92677 L 641.07068,445.08708 L 639.74478,443.84964 L 636.43028,442.83317 L 633.60178,444.95449 L 634.30888,446.19193 L 633.38088,446.85484 L 631.96668,446.23612 L 630.11048,448.31325 L 628.74048,452.20234 L 626.22138,452.20234 L 623.61398,451.18587 L 621.36008,449.24133 L 620.69708,447.65034 L 618.66418,446.50129 L 616.63128,447.87131 L 616.76388,449.81585 L 615.12868,450.30199 L 615.04028,447.12001 L 613.93538,445.79418 L 611.76988,445.79418 L 610.75338,444.51255 L 610.89298,440.72583 L 610.17418,439.56958 L 608.26798,439.41333 L 607.08048,440.69458 L 607.04918,443.19458 L 605.29918,444.81958 L 601.36168,440.00708 L 601.54918,438.13208 L 604.98668,436.06958 L 609.17418,436.00708 L 611.67418,434.56958 L 617.98668,434.75708 L 618.29918,432.94458 L 616.29918,430.75708 L 614.48668,429.69458 L 614.54918,427.00708 L 616.67418,425.81958 L 617.98668,424.50708 L 619.67418,420.94458 L 621.54918,419.50708 L 623.29918,419.56958 L 624.79918,418.19458 L 624.86168,415.25708 L 623.86168,413.56958 L 621.79918,413.38208 L 620.17418,411.81958 L 617.48668,413.69458 L 615.73668,411.31958 L 616.23668,410.31958 L 620.67418,408.19458 L 620.54918,404.13208 L 621.29918,402.69458 L 622.79918,402.50708 L 620.61168,402.06958 L 619.92418,400.88208 L 617.98668,400.31958 L 615.04918,398.56958 L 617.48688,394.00104 L 617.67438,391.18854 L 614.29938,390.12604 L 612.92438,382.93854 L 609.11188,377.37604 L 610.11188,375.87604 L 607.86188,373.18854 L 608.73688,371.25104 L 608.86188,368.00104 L 612.67438,364.50104 L 613.73688,362.12604 L 615.17438,360.56354 L 614.54938,359.31354 L 614.54938,356.81354 L 612.67438,354.81354 L 612.61188,352.37604 L 609.17438,350.18853 L 608.54938,348.56353 L 604.29938,346.75103 L 599.42438,345.81353 L 599.86188,340.81353 L 602.42438,337.00103 L 602.36188,333.93853 L 598.86188,328.50103 L 598.86188,325.62603 L 597.54938,324.06353 L 596.54938,323.93853 L 596.54938,321.62603 L 593.98688,319.62603 L 591.42438,319.25103 L 588.92438,316.56353 L 586.29938,316.50103 L 582.42433,313.25103 L 582.42433,312.50103 L 581.23683,311.25103 L 578.61183,311.12603 L 576.29933,308.56353 L 573.98683,308.00103 L 573.86183,305.81353 L 572.73683,304.43853 L 572.86183,302.31353 L 570.73683,300.93853 L 565.11183,296.25103 L 562.48682,295.75103 L 562.48682,294.75103 L 565.92433,290.62603 L 566.92433,288.12603 L 568.23683,285.87603 L 567.23683,284.50103 L 560.61182,284.62603 L 556.42432,288.56353 L 555.54932,288.56353 L 553.42432,285.18853 L 550.98682,284.12603 L 549.04932,282.31353 L 549.04932,279.56353 L 548.42432,278.62603 L 550.04932,275.31353 L 550.17432,272.31353 L 553.56253,272.46946 L 555.56253,274.46946 L 555.68753,271.78196 L 555.00003,270.28196 L 556.56253,268.03196 L 559.06253,268.03196 L 561.62503,266.03196 L 564.43753,266.03196 L 568.50003,268.78196 L 571.81253,271.53196 L 573.06253,271.53196 L 576.43753,265.46946 L 577.31253,265.46946 L 580.56253,262.71946 L 580.50003,256.34446 L 581.62503,255.46946 L 583.06253,257.09446 L 586.31253,258.71946 L 588.68753,257.40696 L 591.68753,256.46946 L 594.62503,253.53196 L 596.31253,254.96946 L 598.00003,254.21946 L 599.81253,256.65696 L 599.62503,264.15696 L 601.81253,267.15696 L 602.06253,268.84446 L 600.37503,269.59446 L 600.56253,271.15696 L 601.87503,272.96946 L 601.93753,273.78196 L 603.37503,275.65696 L 605.12503,275.71946 L 606.37503,277.15696 L 616.00003,279.28196 L 618.25003,277.03196 L 617.56253,275.84446 L 616.25003,275.84446 L 615.81253,274.34446 L 614.43753,272.78196 L 614.43753,271.53196 L 617.37503,271.59446 L 624.62503,268.84446 L 626.00003,267.78196 L 629.50003,268.21946 L 629.81253,270.84446 L 633.06253,277.34446 L 637.06253,279.90696 L 637.18753,280.90696 L 639.43753,282.34446 L 642.18753,282.65696 L 644.12503,288.65696 L 641.50003,293.53196 L 641.56253,295.28196 L 642.75003,295.34446 L 643.93753,297.53196 L 647.43753,300.40696 L 649.56253,303.59446 L 653.12503,303.78196 L 655.12503,302.84446 L 655.93753,304.46946 L 655.87503,307.09446 L 657.37503,308.46946 L 660.93753,308.46946 L 665.93753,303.65696 L 665.81253,300.59446 L 667.75003,300.03196 L 669.06253,298.34446 L 673.00003,298.46946 L 674.43753,297.53196 L 674.31253,295.40696 L 675.68753,293.46946 L 675.68753,291.65696 L 676.81253,290.78196 L 677.87503,290.78196 L 680.62503,288.71946 L 683.56253,287.96946 L 685.18753,286.78196 L 685.87503,284.90696 L 686.81253,283.90696 L 692.25003,281.71946 L 697.06254,277.84446 L 697.06254,275.03196 L 700.43754,275.46946 L 703.43754,272.65696 L 703.31254,271.15696 L 701.93754,270.15696 L 701.87504,268.21946 L 704.75004,265.65696 L 704.68754,263.65696 L 703.37504,262.03196 L 704.43754,260.15696 L 706.68754,259.53196 L 709.87504,259.53196 L 711.43754,258.03196 z "
     id="path4010"
     sodipodi:nodetypes="ccccccccccccccccccccccccccccccccccccccccccccccccccccccccccccccccccccccccccccccccccccccccccccccccccccccccccccccccccccccccccccccccccccccccccccccccccccccccccccccccccccccccccccccccccccccccccccccccccccccccccccccccccccccccccccccccccccccccccccccccccccccccccccccccccccccccccccccccccccccccccccccccccccccccccccccccccccccccccccccccccccc" />
</svg>
