<?xml version="1.0" encoding="UTF-8" standalone="no"?>
<!-- Created with Inkscape (http://www.inkscape.org/) -->
<svg
   xmlns:dc="http://purl.org/dc/elements/1.1/"
   xmlns:cc="http://web.resource.org/cc/"
   xmlns:rdf="http://www.w3.org/1999/02/22-rdf-syntax-ns#"
   xmlns:svg="http://www.w3.org/2000/svg"
   xmlns="http://www.w3.org/2000/svg"
   xmlns:sodipodi="http://sodipodi.sourceforge.net/DTD/sodipodi-0.dtd"
   xmlns:inkscape="http://www.inkscape.org/namespaces/inkscape"
   id="svg2"
   sodipodi:version="0.32"
   inkscape:version="0.45.1"
   width="841.88977pt"
   height="595.27557pt"
   version="1.0"
   sodipodi:docbase="C:\Documents and Settings\Rendszergazda\Dokumentumok"
   sodipodi:docname="HU_counties_colored.svg"
   inkscape:output_extension="org.inkscape.output.svg.inkscape">
  <metadata
     id="metadata7">
    <rdf:RDF>
      <cc:Work
         rdf:about="">
        <dc:format>image/svg+xml</dc:format>
        <dc:type
           rdf:resource="http://purl.org/dc/dcmitype/StillImage" />
      </cc:Work>
    </rdf:RDF>
  </metadata>
  <defs
     id="defs5" />
  <sodipodi:namedview
     inkscape:window-height="938"
     inkscape:window-width="1280"
     inkscape:pageshadow="2"
     inkscape:pageopacity="0.0"
     borderopacity="1.0"
     bordercolor="#666666"
     pagecolor="#ffffff"
     id="base"
     inkscape:zoom="0.70710675"
     inkscape:cx="593.90944"
     inkscape:cy="359.12462"
     inkscape:window-x="-4"
     inkscape:window-y="-4"
     inkscape:current-layer="svg2" />
  <path
     style="fill:#c21807;fill-opacity:1;fill-rule:evenodd;stroke:#c97a08;stroke-width:4;stroke-linecap:butt;stroke-linejoin:miter;stroke-opacity:1;stroke-dasharray:none"
     d="M 555.60915,578.27794 L 556.88517,576.55251 L 556.62,571.47021 L 553.17285,567.44851 L 553.17285,566.03431 L 551.40509,564.35491 L 551.36089,563.29421 L 548.00214,560.02391 L 550.30023,556.70931 L 551.09573,556.66511 L 554.01254,553.65991 L 555.55934,550.56631 L 552.42155,544.60011 L 550.74218,542.74391 L 551.53767,541.63911 L 560.99522,538.32451 L 563.77946,540.88781 L 567.62435,538.23611 L 569.74567,538.23611 L 571.24827,536.20321 L 574.56283,534.39121 L 575.26994,533.06541 L 579.02645,534.21451 L 581.54551,536.07061 L 583.84361,533.24221 L 584.55072,529.97181 L 586.76043,527.09921 L 586.76043,527.09921 L 586.76043,527.09921 L 587.24656,525.28721 L 584.90427,520.77941 L 587.99786,517.02291 L 588.04206,515.07841 L 585.16944,510.43801 L 583.40167,510.39381 L 580.26388,506.32791 L 578.54031,505.97441 L 574.12089,507.47701 L 569.74567,502.04111 L 586.45107,491.83231 L 590.11918,494.13031 L 594.05247,498.19621 L 601.52128,488.34091 L 599.8419,486.52901 L 601.03515,484.49601 L 598.69285,479.01589 L 599.00221,476.76199 L 600.76998,472.82872 L 602.97969,469.2048 L 602.8913,465.00635 L 596.48315,459.79144 L 601.12353,455.01847 L 602.80291,451.52713 L 608.72493,444.72123 L 610.75786,444.54445 L 610.90625,440.75073 L 610.1875,439.59448 L 608.28125,439.43823 L 607.09375,440.71948 L 607.0625,443.21948 L 605.3125,444.84448 L 601.375,440.03198 L 601.5625,438.15698 L 605,436.09448 L 609.1875,436.03198 L 611.6875,434.59448 L 618,434.78198 L 618.3125,432.96948 L 616.3125,430.78198 L 614.5,429.71948 L 614.5625,427.03198 L 616.6875,425.84448 L 618,424.53198 L 619.6875,420.96948 L 621.5625,419.53198 L 623.3125,419.59448 L 624.8125,418.21948 L 624.875,415.28198 L 623.875,413.59448 L 621.8125,413.40698 L 620.1875,411.84448 L 617.5,413.71948 L 615.75,411.34448 L 616.25,410.34448 L 620.6875,408.21948 L 620.5625,404.15698 L 621.3125,402.71948 L 622.8125,402.53198 L 620.625,402.09448 L 619.9375,400.90698 L 618,400.34448 L 615.0625,398.59448 L 612.4375,396.34448 L 610.9375,395.78198 L 608.5,397.46948 L 606.5,397.53198 L 604.5,399.46948 L 601.375,399.71948 L 597.4375,404.53198 L 598.6875,407.09448 L 597.875,407.96948 L 596.4375,407.96948 L 594.9375,406.59448 L 590.4375,406.53198 L 589.0625,404.21948 L 587.3125,404.15698 L 582.6875,401.34448 L 578.3125,411.78198 L 577,411.78198 L 576.25,412.65698 L 575.3125,412.59448 L 572.0625,409.71948 L 568.4375,411.78198 L 561.3125,405.21948 L 553.4375,401.09448 L 547.875,394.28198 L 546.0625,389.21948 L 545.8125,386.96948 L 544.5625,384.46948 L 544.5625,382.03198 L 539.625,374.46948 L 536.5625,377.34448 L 527.625,375.15698 L 525.5625,379.90698 L 525.4375,383.34448 L 523.8125,386.40698 L 523.25,389.46948 L 518.5,388.40698 L 516.6875,387.03198 L 508.8125,393.03198 L 504.25,394.71948 L 502.25,394.71948 L 500.125,397.09448 L 496.4375,393.03198 L 497.875,388.71948 L 500.1875,384.59448 L 501.8125,384.40698 L 501.8125,382.96948 L 502.8125,382.34448 L 503.5,380.71948 L 499.625,375.40698 L 496.9375,374.65698 L 492.3125,372.59448 L 491.6875,371.53198 L 488.125,372.84448 L 486.5625,374.90698 L 485.6875,378.84448 L 483.5,380.96948 L 482.4375,380.28198 L 477.1875,380.34448 L 471.6875,385.65698 L 468.8125,386.59448 L 467.0625,388.28198 L 467,390.71948 L 463.875,392.15698 L 462.9375,393.15698 L 459.3125,391.28198 L 456.9375,391.28198 L 455.6875,389.28198 L 451.375,389.15698 L 448.8125,387.34448 L 446.75,387.34448 L 446.6875,389.03198 L 448.9375,391.84448 L 448.3125,393.15698 L 447,393.40698 L 447.375,395.40698 L 448.6875,397.53198 L 445.375,401.96948 L 445.3125,406.40698 L 446.25,408.03198 L 447.5625,413.46948 L 447.5,419.21948 L 446.125,421.53198 L 445.5625,423.59448 L 444,424.96948 L 443.9375,426.15698 L 442.0625,428.65698 L 442.125,431.03198 L 441.25,432.15698 L 440.75,439.46948 L 445.125,444.09448 L 445.375,445.15698 L 448.125,448.46948 L 448.5625,450.46948 L 449.75,452.53198 L 449.8125,455.78198 L 450.8125,457.28198 L 450.9375,459.59448 L 454.1875,464.03198 L 454.0625,467.21948 L 452.1875,468.65698 L 449.875,473.40698 L 446.75,476.59448 L 444.3125,476.65698 L 442.625,478.90698 L 440.625,478.90698 L 440,479.84448 L 438.625,479.90698 L 436.5625,478.53198 L 435.04745,479.28299 L 432.57257,484.32113 L 430.98158,485.91212 L 432.3958,487.50311 L 432.30741,489.27088 L 433.27968,490.86187 L 435.22422,491.48058 L 436.9036,494.22062 L 436.81521,497.57938 L 437.87587,499.25876 L 437.96426,500.4962 L 436.46166,503.32462 L 438.05265,506.32983 L 438.58298,509.24664 L 440.08558,510.57247 L 440.88108,514.28478 L 440.7043,519.76486 L 439.29009,523.83072 L 436.99199,525.68688 L 435.31261,528.95724 L 435.31261,533.28827 L 436.99199,536.20509 L 436.81521,543.45293 L 437.87587,544.69037 L 437.6991,546.36975 L 440.43914,547.96074 L 441.14624,551.23111 L 439.9972,554.3247 L 439.90881,557.77185 L 438.49459,559.628 L 438.58298,561.30738 L 437.16877,562.27965 L 432.92613,558.65573 L 431.95386,560.15833 L 433.27968,563.25192 L 432.57257,566.87585 L 431.06997,566.61068 L 428.06477,568.732 L 426.73894,572.09076 L 426.91572,573.23981 L 432.48419,571.38365 L 432.48419,571.38365 L 432.48419,571.38365 L 432.48419,575.27274 L 430.45125,576.15662 L 429.03704,578.18955 L 429.03704,579.86893 L 428.06477,581.54831 L 428.15316,586.76322 L 426.38539,588.00066 L 426.12022,590.03359 L 424.08729,591.53619 L 423.91052,593.65751 L 421.70081,594.36462 L 419.22593,593.92268 L 418.43044,595.51367 L 418.43044,597.72338 L 416.57428,599.31437 L 416.30912,600.90536 L 414.8949,602.67313 L 413.30391,603.11507 L 412.06648,604.52928 L 412.50842,609.30225 L 414.45296,610.89324 L 415.86718,610.71647 L 417.36978,611.51196 L 421.70081,610.89324 L 423.64535,611.60035 L 425.41312,610.98163 L 427.35766,608.59515 L 428.50671,608.59515 L 431.68869,613.36812 L 431.51191,614.34039 L 428.32993,619.11336 L 428.24154,623.00245 L 426.47378,626.00765 L 428.32993,628.74769 L 430.62803,629.4548 L 427.53444,630.1619 L 426.297,631.31095 L 424.35246,631.22256 L 423.20341,632.37161 L 423.20341,633.69744 L 425.41312,635.4652 L 425.50151,637.14458 L 430.18609,637.58652 L 432.3958,635.55359 L 434.42873,635.64198 L 435.22422,633.60905 L 438.05265,631.57612 L 441.4998,631.6645 L 444.94694,633.69744 L 449.10119,632.81355 L 451.84123,634.58132 L 453.43222,633.87421 L 451.66446,629.18963 L 455.81871,625.38893 L 458.02842,624.41666 L 460.4149,624.50505 L 462.35945,625.91926 L 464.56916,625.12377 L 462.44784,616.5501 L 467.92791,608.86031 L 469.78407,609.30225 L 472.08217,609.30225 L 473.67316,610.18614 L 474.55704,618.14109 L 482.77716,619.29014 L 487.55013,617.2572 L 489.31789,618.93658 L 495.41669,618.0527 L 497.09607,619.82047 L 497.97995,618.93658 L 495.41669,614.42878 L 507.4375,606.73899 L 510.61949,609.47903 L 515.56923,607.4461 L 515.56923,606.29705 L 523.17063,599.49115 L 522.81708,596.75111 L 524.40807,596.30916 L 524.9384,595.2485 L 526.35261,595.2485 L 527.50166,593.83429 L 529.18104,593.83429 L 531.7443,591.27103 L 528.82748,587.47033 L 530.77203,585.17223 L 531.65591,585.70256 L 534.57273,582.96252 L 535.98694,582.60897 L 536.95921,581.6367 L 536.95921,579.3386 L 539.16892,578.18955 L 543.67673,580.57604 L 547.6542,580.57604 L 552.16201,576.59856 L 554.19494,578.45472 L 555.60915,578.27794 z "
     id="path4896"
     sodipodi:nodetypes="ccccccccccccccccccccccccccccccccccccccccccccccccccccccccccccccccccccccccccccccccccccccccccccccccccccccccccccccccccccccccccccccccccccccccccccccccccccccccccccccccccccccccccccccccccccccccccccccccccccccccccccccccccccccccccccccccccccccccccccccccccccccccccccccccccccccccccccccccccccccccccccccccccccccccccccccccccccccccccccccccccccccccccccccccccc" />
</svg>
