<?xml version="1.0" encoding="UTF-8" standalone="no"?>
<!-- Created with Inkscape (http://www.inkscape.org/) -->
<svg
   xmlns:dc="http://purl.org/dc/elements/1.1/"
   xmlns:cc="http://web.resource.org/cc/"
   xmlns:rdf="http://www.w3.org/1999/02/22-rdf-syntax-ns#"
   xmlns:svg="http://www.w3.org/2000/svg"
   xmlns="http://www.w3.org/2000/svg"
   xmlns:sodipodi="http://sodipodi.sourceforge.net/DTD/sodipodi-0.dtd"
   xmlns:inkscape="http://www.inkscape.org/namespaces/inkscape"
   id="svg2"
   sodipodi:version="0.32"
   inkscape:version="0.45.1"
   width="841.88977pt"
   height="595.27557pt"
   version="1.0"
   sodipodi:docbase="C:\Documents and Settings\Rendszergazda\Dokumentumok"
   sodipodi:docname="HU_counties_colored.svg"
   inkscape:output_extension="org.inkscape.output.svg.inkscape">
  <metadata
     id="metadata7">
    <rdf:RDF>
      <cc:Work
         rdf:about="">
        <dc:format>image/svg+xml</dc:format>
        <dc:type
           rdf:resource="http://purl.org/dc/dcmitype/StillImage" />
      </cc:Work>
    </rdf:RDF>
  </metadata>
  <defs
     id="defs5" />
  <sodipodi:namedview
     inkscape:window-height="938"
     inkscape:window-width="1280"
     inkscape:pageshadow="2"
     inkscape:pageopacity="0.0"
     borderopacity="1.0"
     bordercolor="#666666"
     pagecolor="#ffffff"
     id="base"
     inkscape:zoom="0.70710675"
     inkscape:cx="593.90944"
     inkscape:cy="359.12462"
     inkscape:window-x="-4"
     inkscape:window-y="-4"
     inkscape:current-layer="svg2" />
  <path
     style="fill:#c21807;fill-opacity:1;fill-rule:evenodd;stroke:#c97a08;stroke-width:4;stroke-linecap:butt;stroke-linejoin:miter;stroke-opacity:1;stroke-dasharray:none"
     d="M 424.30826,638.11685 L 425.50435,637.14069 L 425.41596,635.46129 L 423.20625,633.69359 L 423.20625,632.36769 L 424.3553,631.21869 L 426.29984,631.30709 L 427.53728,630.15799 L 430.63087,629.45089 L 428.33277,628.74379 L 426.47662,626.00379 L 428.24438,622.99859 L 428.33277,619.10949 L 431.51475,614.33649 L 431.69153,613.36419 L 428.50955,608.59129 L 427.3605,608.59129 L 425.41596,610.97769 L 423.64819,611.59649 L 421.70365,610.88939 L 417.37262,611.50809 L 415.87002,610.71259 L 414.4558,610.88939 L 412.51126,609.29839 L 412.06932,604.52539 L 413.30675,603.11119 L 414.89774,602.66919 L 416.31196,600.90149 L 416.57712,599.31049 L 418.43328,597.71949 L 418.43328,595.50979 L 419.22877,593.91879 L 417.83718,592.5272 L 414.97732,593.2935 L 411.84551,591.18264 L 409.6358,591.09425 L 408.61933,589.85682 L 405.48155,589.81262 L 404.06733,588.22163 L 404.15572,586.94 L 396.77529,578.63149 L 395.62625,578.63149 L 393.85848,576.55437 L 392.26749,577.57083 L 391.16263,577.52664 L 391.03005,576.20082 L 390.32294,574.7866 L 388.99712,573.99111 L 387.80388,573.90272 L 387.71549,570.80913 L 388.68776,570.05783 L 388.29001,568.82039 L 386.78741,570.2346 L 385.28481,570.10202 L 384.6219,568.77619 L 381.83766,567.62715 L 381.79347,566.25713 L 383.8706,564.00322 L 383.03091,558.8325 L 381.48411,558.78831 L 380.51184,557.86023 L 380.42345,556.6228 L 378.78827,554.05953 L 377.46244,554.54567 L 374.98757,553.97115 L 375.12015,555.56214 L 374.05949,557.50668 L 374.85498,558.74412 L 371.49623,562.27965 L 370.25879,562.76579 L 369.59588,564.18 L 368.22586,564.48936 L 366.63487,565.94777 L 365.6626,565.94777 L 364.46935,567.58295 L 362.34803,568.46683 L 360.84543,569.83685 L 359.74058,571.20687 L 358.28217,571.20687 L 356.47021,569.5275 L 356.42601,568.02489 L 359.51961,566.74326 L 360.40349,565.99196 L 361.68512,565.7268 L 363.14353,563.25192 L 364.20419,558.16959 L 365.22065,557.28571 L 364,555.21948 L 362.0625,555.28198 L 360.25,553.59448 L 358.75,553.21948 L 358.6875,546.03198 L 360.5625,544.53198 L 360.625,542.59448 L 358.6875,540.34448 L 356.625,539.21948 L 355.4375,539.28198 L 353.4375,535.90698 L 352.9375,534.21948 L 354.1875,530.96948 L 350.9375,527.40698 L 348.5625,527.46948 L 347.5625,528.90698 L 344.3125,528.09448 L 342.4375,529.78198 L 340.9375,529.71948 L 339.75,528.90698 L 337.375,529.84448 L 335.3125,528.96948 L 330.9375,531.15698 L 330.8125,537.21948 L 332.75,540.15698 L 332.6875,542.96948 L 331.625,544.78198 L 329.125,545.40698 L 326.1875,548.15698 L 323.6875,548.21948 L 322.5,547.09448 L 321.0625,547.96948 L 319,548.03198 L 319,550.84448 L 320.5,553.15698 L 322.1875,553.28198 L 322.1875,554.46948 L 320.1875,555.84448 L 317.4375,551.28198 L 314.75,551.96948 L 314.11009,553.33033 L 312.09926,553.30823 L 310.64085,552.42435 L 309.27083,553.21984 L 307.41467,552.15918 L 303.65817,552.11499 L 301.80201,550.43561 L 296.49871,550.43561 L 292.91899,554.23631 L 292.8306,558.74412 L 291.76994,560.60027 L 291.72574,566.08035 L 290.13475,567.67134 L 288.85312,566.96423 L 286.51083,568.86458 L 284.38951,567.40617 L 282.35658,569.12975 L 280.54462,569.21814 L 278.02555,571.60462 L 274.75518,570.41138 L 273.95968,568.86458 L 270.8219,568.33425 L 267.55153,572.17915 L 264.94407,572.13495 L 263.61825,570.63235 L 263.61825,568.11328 L 261.80629,565.63841 L 259.37561,567.89231 L 260.48046,569.74847 L 258.62431,572.09076 L 258.53592,575.40532 L 256.10524,580.26668 L 254.95619,581.45992 L 254.912,583.44866 L 253.85134,585.3932 L 254.24908,592.59685 L 252.08357,594.09946 L 253.32101,595.86722 L 253.32101,598.91662 L 251.90679,600.06567 L 251.68582,602.05441 L 250.18322,602.1428 L 250.09483,603.95476 L 248.90159,603.95476 L 246.64769,606.03188 L 246.5593,609.43483 L 247.44318,610.36291 L 247.48737,611.82132 L 249.91805,613.67747 L 250.00644,617.3014 L 248.37126,618.804 L 246.02897,618.67142 L 245.45444,619.37852 L 247.61996,625.34474 L 247.39899,629.63157 L 248.54803,629.67577 L 249.91805,628.57091 L 250.3158,626.84734 L 251.68582,628.08478 L 254.02811,628.17316 L 253.89553,630.9574 L 254.69102,632.28322 L 256.32621,632.28322 L 258.88947,633.87421 L 259.59658,636.9678 L 261.18757,638.07266 L 260.61304,639.08912 L 260.56885,641.91755 L 261.27596,642.80144 L 260.08271,645.23212 L 255.53071,645.67406 L 254.77941,643.95048 L 253.01165,643.95048 L 252.12776,644.79017 L 251.8626,646.42536 L 250.53677,648.28151 L 249.12256,648.50248 L 251.24388,651.50769 L 253.14423,651.4193 L 254.1165,650.27025 L 255.57491,650.71219 L 256.81235,651.99382 L 257.96139,651.90544 L 259.28722,653.05448 L 261.98306,653.01029 L 265.12085,656.81099 L 268.34702,655.92711 L 271.39642,658.2694 L 273.0758,658.18101 L 273.0758,658.18101 L 273.0758,658.18101 L 274.40163,656.98777 L 275.90423,658.00423 L 275.81584,661.09782 L 277.84877,662.95398 L 279.21879,663.35173 L 279.21879,665.64982 L 280.633,666.09177 L 282.66594,663.5727 L 285.185,661.71654 L 287.79246,661.36299 L 289.47184,662.99817 L 293.22834,661.18621 L 296.32194,662.86559 L 300.12264,660.34652 L 305.02819,664.81013 L 306.04466,664.76594 L 306.79596,665.73821 L 309.93374,665.78241 L 313.51347,667.94792 L 315.28124,667.24081 L 318.99355,664.324 L 319.08194,662.64462 L 323.58974,662.73301 L 326.28559,665.42885 L 327.25786,665.42885 L 328.00916,663.88206 L 329.90951,662.7772 L 334.85926,664.36819 L 339.36706,668.65503 L 341.17902,668.8318 L 342.59324,670.46699 L 346.04038,669.00858 L 352.62531,671.1741 L 354.56986,668.16889 L 356.07246,668.0805 L 356.91215,666.31274 L 357.66345,667.99211 L 359.60799,668.38986 L 361.55254,670.33441 L 361.50834,672.05798 L 363.45289,673.86994 L 365.88357,673.78155 L 367.38617,674.48866 L 369.02135,673.03025 L 368.80038,668.96439 L 370.08201,667.46178 L 372.68947,668.30147 L 373.9711,667.72695 L 375.91564,661.58396 L 378.39052,663.92625 L 380.46764,663.83786 L 382.89832,661.36299 L 388.02485,660.25813 L 388.11324,657.34132 L 389.9252,657.4739 L 392.22329,654.99903 L 392.1791,653.01029 L 395.09592,651.72866 L 394.52139,649.56314 L 396.06819,647.70699 L 396.15658,646.24858 L 399.25017,645.54147 L 400.17825,644.21565 L 399.0292,642.75724 L 399.07339,641.5198 L 401.54827,640.37076 L 402.21118,638.73557 L 401.37149,637.27716 L 402.87409,635.5094 L 407.55867,635.64198 L 409.50322,637.67491 L 411.05001,637.63072 L 412.02228,638.95654 L 414.62974,638.91235 L 416.88364,642.35949 L 421.47984,644.34823 L 423.38019,643.24338 L 424.30826,638.11685 z "
     id="path1331"
     sodipodi:nodetypes="cccccccccccccccccccccccccccccccccccccccccccccccccccccccccccccccccccccccccccccccccccccccccccccccccccccccccccccccccccccccccccccccccccccccccccccccccccccccccccccccccccccccccccccccccccccccccccccccccccccccccccccccccccccccccccccccccccccccccccccccccccccccccccccccccccccccccccccccccccccccccccccccccccccccc" />
</svg>
