<?xml version="1.0" encoding="UTF-8" standalone="no"?>
<!-- Created with Inkscape (http://www.inkscape.org/) -->
<svg
   xmlns:dc="http://purl.org/dc/elements/1.1/"
   xmlns:cc="http://web.resource.org/cc/"
   xmlns:rdf="http://www.w3.org/1999/02/22-rdf-syntax-ns#"
   xmlns:svg="http://www.w3.org/2000/svg"
   xmlns="http://www.w3.org/2000/svg"
   xmlns:sodipodi="http://sodipodi.sourceforge.net/DTD/sodipodi-0.dtd"
   xmlns:inkscape="http://www.inkscape.org/namespaces/inkscape"
   id="svg2"
   sodipodi:version="0.32"
   inkscape:version="0.45.1"
   width="841.88977pt"
   height="595.27557pt"
   version="1.0"
   sodipodi:docbase="C:\Documents and Settings\Rendszergazda\Dokumentumok"
   sodipodi:docname="HU_counties_colored.svg"
   inkscape:output_extension="org.inkscape.output.svg.inkscape">
  <metadata
     id="metadata7">
    <rdf:RDF>
      <cc:Work
         rdf:about="">
        <dc:format>image/svg+xml</dc:format>
        <dc:type
           rdf:resource="http://purl.org/dc/dcmitype/StillImage" />
      </cc:Work>
    </rdf:RDF>
  </metadata>
  <defs
     id="defs5" />
  <sodipodi:namedview
     inkscape:window-height="938"
     inkscape:window-width="1280"
     inkscape:pageshadow="2"
     inkscape:pageopacity="0.0"
     borderopacity="1.0"
     bordercolor="#666666"
     pagecolor="#ffffff"
     id="base"
     inkscape:zoom="0.70710675"
     inkscape:cx="593.90944"
     inkscape:cy="359.12462"
     inkscape:window-x="-4"
     inkscape:window-y="-4"
     inkscape:current-layer="svg2" />
  <path
     style="fill:#c21807;fill-opacity:1;fill-rule:evenodd;stroke:#c97a08;stroke-width:4;stroke-linecap:butt;stroke-linejoin:miter;stroke-opacity:1;stroke-dasharray:none"
     d="M 167.58431,384.00034 L 167.75784,387.71727 L 167.84623,390.5899 L 167.05074,391.91572 L 164.62006,390.41312 L 163.16165,391.3412 L 163.11746,389.35246 L 162.14518,388.15922 L 159.31676,387.31953 L 158.30029,387.31953 L 156.88608,389.44085 L 157.76996,391.16442 L 157.59318,394.92092 L 158.65384,395.98159 L 158.60965,397.79355 L 154.58798,401.28489 L 154.23443,403.98073 L 151.89214,405.04139 L 145.26301,405.04139 L 143.8046,402.56652 L 141.72748,402.52232 L 140.53423,401.72683 L 138.54549,402.96426 L 136.46837,402.92007 L 135.54029,402.30135 L 134.25866,403.09685 L 131.6954,400.75456 L 128.646,403.22943 L 128.99955,406.54399 L 128.46922,407.11852 L 127.49695,406.23463 L 124.66852,407.2511 L 124.58014,411.0518 L 123.07753,412.11246 L 117.73004,410.60986 L 110.87994,410.74244 L 109.64251,409.77017 L 107.07924,409.77017 L 104.25082,412.86376 L 102.70402,411.75891 L 100.89206,411.8031 L 98.72655,415.11766 L 97.79847,417.37157 L 95.01424,419.3603 L 93.99777,422.4097 L 92.45097,423.73553 L 90.90418,423.69133 L 90.41804,429.12722 L 89.09222,430.58562 L 87.32445,429.03883 L 84.6286,429.03883 L 83.43536,430.14368 L 81.97695,430.09949 L 81.31404,430.89498 L 82.46309,432.57436 L 82.46309,434.78407 L 81.00468,436.90539 L 80.78371,438.58477 L 78.574,439.77801 L 76.98301,439.73382 L 76.01074,440.97125 L 74.68492,441.05964 L 73.62426,442.1203 L 72.38682,441.98772 L 71.45874,443.13677 L 69.95614,441.63417 L 68.67451,441.63417 L 68.67451,441.63417 L 68.67451,441.63417 L 67.79063,440.35254 L 65.89028,439.82221 L 60.85214,442.60644 L 62.00119,443.93226 L 63.54798,443.26935 L 65.6693,443.71129 L 65.62511,445.74422 L 64.03412,447.68877 L 65.18317,449.23556 L 64.12251,450.69397 L 63.06185,450.78236 L 61.60344,453.16885 L 61.47086,454.71564 L 60.280853,454.71103 L 59.573746,455.94847 L 58.071144,454.53426 L 57.982756,452.14777 L 57.098873,449.93806 L 55.331106,448.61224 L 54.270446,447.10963 L 54.182057,445.16509 L 54.977552,443.92765 L 54.889164,441.98311 L 53.209785,441.45278 L 53.209785,438.09402 L 54.447222,436.7682 L 57.452426,436.7682 L 57.364038,432.52556 L 58.86664,431.02295 L 58.33631,428.81325 L 57.629203,427.39903 L 56.214989,427.39903 L 52.41429,423.95189 L 52.41429,422.97961 L 50.381358,421.65379 L 45.961941,421.74218 L 44.724504,420.68152 L 41.807688,420.68152 L 40.65864,421.74218 L 35.266951,421.74218 L 32.703689,424.48222 L 31.201087,423.77511 L 29.43332,424.48222 L 26.604893,423.8635 L 25.013902,422.18412 L 24.571961,420.68152 L 28.37266,419.44408 L 28.284271,417.41115 L 31.996582,414.31756 L 34.117902,413.69884 L 35.090174,412.28462 L 35.090174,410.34008 L 36.857941,408.30715 L 37.123106,406.53938 L 38.272155,405.47872 L 39.863145,406.98132 L 41.542523,406.45099 L 44.370951,404.86 L 44.282562,403.3574 L 46.050329,401.67802 L 48.348426,401.58963 L 48.790368,397.61216 L 50.646523,395.57923 L 50.646523,392.30886 L 51.972348,390.80626 L 53.916892,394.2534 L 54.977552,393.45791 L 56.303378,393.45791 L 59.39697,394.87212 L 59.750523,393.19274 L 61.253125,392.04369 L 62.667339,392.66241 L 63.904775,394.51857 L 65.584154,394.78373 L 67.086756,393.5463 L 68.235804,393.10435 L 69.473241,393.45791 L 70.533902,394.60696 L 70.62229,395.57923 L 73.892659,395.66762 L 75.395261,394.07663 L 79.72629,396.37472 L 80.78695,394.96051 L 82.466328,394.96051 L 83.703765,394.16501 L 81.140503,391.77853 L 79.72629,391.07142 L 79.284348,389.7456 L 77.604969,387.97783 L 75.925591,387.88944 L 75.041707,388.59655 L 74.246212,387.62428 L 74.864931,386.29845 L 76.279144,386.21006 L 76.986251,384.88424 L 81.670833,384.88424 L 82.37794,383.73519 L 86.620581,383.73519 L 85.294756,382.58614 L 85.294756,381.43709 L 83.4386,380.02288 L 81.228892,379.93449 L 79.19596,378.60866 L 79.107571,375.69185 L 78.312076,374.63119 L 78.312076,372.95181 L 79.284348,372.33309 L 80.78695,372.42148 L 81.759222,371.44921 L 83.261824,370.91888 L 83.261824,368.97433 L 86.267027,367.29496 L 87.681241,367.20657 L 87.681241,365.52719 L 86.443804,363.58265 L 86.443804,362.78715 L 84.941202,361.99166 L 83.4386,362.87554 L 80.433396,362.87554 L 79.284348,364.28975 L 77.516581,364.37814 L 76.190756,362.4336 L 76.897863,361.37294 L 78.223688,360.75422 L 78.223688,356.77674 L 76.986251,355.45092 L 76.986251,354.12509 L 72.566834,354.56703 L 72.566834,352.00377 L 71.594562,350.58956 L 72.301668,349.44051 L 74.864931,349.08696 L 74.688154,345.46303 L 76.102367,344.31399 L 75.925591,341.83911 L 74.776542,340.60167 L 77.693358,339.6294 L 79.107571,340.60167 L 80.963727,338.48035 L 80.875338,335.29837 L 81.494057,334.14933 L 82.819882,334.06094 L 81.670833,331.49768 L 81.759222,329.64152 L 81.052115,329.0228 L 80.875338,326.54793 L 79.903066,325.92921 L 79.72629,324.07305 L 78.930795,323.27756 L 79.372736,321.77496 L 78.577241,321.24463 L 76.632698,321.06785 L 76.632698,319.21169 L 75.395261,318.23942 L 76.897863,317.09037 L 78.046911,317.17876 L 78.400464,316.1181 L 78.400464,313.64323 L 77.693358,312.93612 L 78.577241,310.46125 L 77.074639,308.5167 L 76.986251,306.13022 L 78.930795,305.15795 L 80.521785,306.04183 L 83.261824,306.13022 L 83.350212,308.78187 L 84.852814,310.28447 L 86.355416,309.3122 L 86.355416,307.45604 L 87.858018,306.21861 L 89.802561,307.36766 L 90.42128,305.86505 L 92.189047,307.19088 L 96.166522,307.19088 L 97.580736,305.42311 L 97.580736,304.53923 L 100.05561,303.74373 L 100.76272,302.5063 L 102.88404,302.59469 L 103.76792,301.18047 L 103.67953,299.67787 L 105.4473,299.4127 L 107.56862,297.82171 L 107.7454,300.2082 L 111.81126,305.15795 L 113.49064,305.86505 L 114.46291,305.06956 L 116.0539,305.86505 L 117.73328,305.5115 L 122.1527,301.97597 L 124.27402,301.7108 L 125.86501,300.2082 L 127.19083,300.65014 L 127.89794,301.7108 L 129.31215,300.82692 L 130.28442,301.62241 L 133.37802,301.53403 L 135.85289,300.03142 L 137.2671,300.03142 L 137.2671,301.0037 L 138.50454,302.41791 L 138.41615,303.92051 L 140.89103,305.59989 L 141.77491,306.66055 L 143.01235,305.42311 L 145.22206,305.95344 L 147.1666,307.98637 L 149.37631,309.04703 L 150.43697,310.8148 L 152.29312,308.25154 L 154.14928,308.33993 L 155.74027,306.21861 L 159.18741,304.71601 L 159.2758,303.39018 L 161.39712,302.24113 L 165.28621,298.61721 L 166.78881,298.52882 L 166.96559,300.11981 L 168.3798,300.73853 L 169.35207,301.62241 L 166.70042,307.19088 L 166.61204,309.40059 L 165.3746,310.63802 L 166.17009,311.34513 L 168.02625,309.22381 L 172.00372,309.13542 L 174.56699,307.10249 L 177.21864,307.0141 L 177.39541,305.77667 L 180.48901,303.03663 L 184.20132,303.74373 L 185.0852,307.45604 L 187.11813,311.25674 L 188.35557,312.14063 L 186.23425,314.35034 L 191.27239,320.5375 L 193.04016,321.15622 L 195.69181,323.18915 L 197.54797,323.27754 L 200.72995,326.45952 L 198.7854,328.75762 L 194.01243,328.31568 L 191.53756,330.52539 L 191.53756,331.76282 L 190.03496,333.08865 L 190.03496,336.00546 L 188.88591,337.2429 L 188.00202,337.2429 L 187.11814,338.65711 L 187.20653,341.13199 L 188.26719,341.75071 L 189.23946,347.1424 L 189.23946,350.58954 L 188.35558,351.73859 L 189.41624,352.4457 L 188.09041,354.74379 L 188.09041,358.01416 L 188.62074,359.2516 L 185.96909,362.43358 L 185.96909,364.5549 L 187.20653,366.58783 L 187.47169,369.50465 L 188.9743,373.04018 L 187.91364,375.1615 L 189.50463,377.98993 L 189.41624,379.40414 L 185.43876,383.11645 L 184.3781,383.5584 L 183.22905,382.14418 L 181.63806,381.79063 L 178.23197,379.46664 L 175.53927,381.79063 L 174.74377,381.79063 L 173.68311,382.67451 L 171.91534,382.67451 L 170.44589,383.82356 L 167.58431,384.00034 z "
     id="path2235"
     sodipodi:nodetypes="cccccccccccccccccccccccccccccccccccccccccccccccccccccccccccccccccccccccccccccccccccccccccccccccccccccccccccccccccccccccccccccccccccccccccccccccccccccccccccccccccccccccccccccccccccccccccccccccccccccccccccccccccccccccccccccccccccccccccccccccccccccccccccccccccccccccccccccccccccccccccccccccccccccccccccccccccccccccccccccccccccccccccccccccccccccccccc" />
</svg>
