<?xml version="1.0" encoding="UTF-8" standalone="no"?>
<!-- Created with Inkscape (http://www.inkscape.org/) -->
<svg
   xmlns:dc="http://purl.org/dc/elements/1.1/"
   xmlns:cc="http://web.resource.org/cc/"
   xmlns:rdf="http://www.w3.org/1999/02/22-rdf-syntax-ns#"
   xmlns:svg="http://www.w3.org/2000/svg"
   xmlns="http://www.w3.org/2000/svg"
   xmlns:sodipodi="http://sodipodi.sourceforge.net/DTD/sodipodi-0.dtd"
   xmlns:inkscape="http://www.inkscape.org/namespaces/inkscape"
   id="svg2"
   sodipodi:version="0.32"
   inkscape:version="0.45.1"
   width="841.88977pt"
   height="595.27557pt"
   version="1.0"
   sodipodi:docbase="C:\Documents and Settings\Rendszergazda\Dokumentumok"
   sodipodi:docname="HU_counties_colored.svg"
   inkscape:output_extension="org.inkscape.output.svg.inkscape">
  <metadata
     id="metadata7">
    <rdf:RDF>
      <cc:Work
         rdf:about="">
        <dc:format>image/svg+xml</dc:format>
        <dc:type
           rdf:resource="http://purl.org/dc/dcmitype/StillImage" />
      </cc:Work>
    </rdf:RDF>
  </metadata>
  <defs
     id="defs5" />
  <sodipodi:namedview
     inkscape:window-height="938"
     inkscape:window-width="1280"
     inkscape:pageshadow="2"
     inkscape:pageopacity="0.0"
     borderopacity="1.0"
     bordercolor="#666666"
     pagecolor="#ffffff"
     id="base"
     inkscape:zoom="0.70710675"
     inkscape:cx="593.90944"
     inkscape:cy="359.12462"
     inkscape:window-x="-4"
     inkscape:window-y="-4"
     inkscape:current-layer="svg2" />
  <path
     style="fill:none;fill-opacity:1;fill-rule:evenodd;stroke:black;stroke-width:4;stroke-linecap:butt;stroke-linejoin:miter;stroke-opacity:1;stroke-dasharray:none"
     d="M 740.375,356.59448 L 739.625,357.65698 L 738,356.65698 L 735.54425,358.14128 L 734.5625,359.90698 L 732.875,359.90698 L 725.9375,367.21948 L 728.375,370.09448 L 728.4375,371.78198 L 726.875,371.84448 L 725.375,373.53198 L 726.8125,378.46948 L 725.0625,381.21948 L 726.8125,383.34448 L 725.125,384.09448 L 724.3125,385.96948 L 720.0625,388.84448 L 720.0625,390.03198 L 713.5625,390.15698 L 713.625,387.09448 L 711.0625,387.15698 L 707.625,390.03198 L 706.9375,390.03198 L 705.3125,391.90698 L 705.375,394.78198 L 707,398.34448 L 705.5625,401.96948 L 706.125,403.09448 L 707.5625,404.03198 L 708,405.40698 L 707.5,406.96948 L 708.8125,408.03198 L 708.8125,411.78198 L 706.1875,414.65698 L 706.25,415.90698 L 701,417.15698 L 696.25,420.40698 L 690.0625,415.96948 L 687.5625,417.03198 L 684.8125,417.03198 L 683.6875,416.09448 L 681.9375,417.28198 L 681.9375,419.78198 L 674.6875,422.96948 L 669.1875,420.65698 L 666.8125,425.40698 L 662,430.03198 L 663.1875,432.21948 L 663,434.59448 L 664.25,436.34448 L 664.125,438.84448 L 665,439.78198 L 665.3125,441.28198 L 667.875,441.03198 L 669.25,440.21948 L 671.1875,442.15698 L 673.75,443.28198 L 676.375,448.65698 L 677.875,448.59448 L 681.125,447.53198 L 686.375,447.46948 L 689.125,450.03198 L 690.75,450.96948 L 688.875,455.71948 L 688.4375,460.28198 L 688.9375,465.03198 L 690.375,467.84448 L 687.8125,468.34448 L 686.4375,477.65698 L 688.875,479.84448 L 688.875,492.21948 L 689.9375,494.65698 L 693.875,498.84448 L 694,501.90698 L 693.375,504.15698 L 691.875,505.78198 L 691.4375,509.46948 L 692.8125,511.46948 L 691.8125,512.78198 L 692.75,513.84448 L 692.875,516.15698 L 689.9375,516.09448 L 689.875,525.96948 L 688.1875,525.96948 L 686.0625,527.53198 L 684.6875,529.84448 L 685.375,531.46948 L 688.6875,534.65698 L 687.6875,536.09448 L 689.75,537.78198 L 691.0625,536.59448 L 695.9375,539.28198 L 697.125,538.53198 L 704.3125,539.21948 L 706.875,532.09448 L 713.125,532.09448 L 713.25,533.65698 L 714.875,535.15698 L 716.6875,541.03198 L 715.5625,553.34448 L 717.1875,553.40698 L 718.375,555.21948 L 720.9375,556.15698 L 722.625,554.71948 L 733.375,552.28198 L 735.25,555.28198 L 740.8125,557.78198 L 741.5625,555.09448 L 743.4375,553.90698 L 744.625,553.96948 L 745,555.71948 L 746.5625,557.90698 L 752.875,558.28198 L 756.5,556.09448 L 758.375,559.46948 L 760.75,560.71948 L 762.9375,561.21948 L 766.125,557.71948 L 767.875,557.03198 L 769.125,552.34448 L 768.8125,548.46948 L 772.125,548.21948 L 774.6875,547.53198 L 775.5,549.21948 L 778.375,548.96948 L 779.875,547.34448 L 778.375,544.71948 L 778.9375,543.65698 L 779,541.46948 L 782,538.15698 L 782.625,534.65698 L 781.5,533.03198 L 782.375,529.28198 L 784,525.59448 L 785.75,523.78198 L 786.5625,524.46948 L 793.0625,524.34448 L 794.4375,525.21948 L 795.625,524.15698 L 796,520.90698 L 798.6875,518.21948 L 798.625,516.90698 L 799.4375,514.90698 L 796.5625,511.53198 L 796.5,509.96948 L 794.0625,509.96948 L 791.5,507.40698 L 791,504.15698 L 793.1875,498.53198 L 792.625,496.03198 L 794.6875,493.84448 L 798.125,487.15698 L 796.5625,484.96948 L 796.5625,482.46948 L 796.5625,482.46948 L 796.5625,482.46948 L 797.375,481.53198 L 797.4375,480.03198 L 799.8125,476.28198 L 801.8125,476.28198 L 806.0625,474.90698 L 808.1875,477.09448 L 810.9375,477.65698 L 812.5625,477.15698 L 812.6875,474.40698 L 814.3125,472.40698 L 817.375,470.59448 L 818.3125,468.28198 L 816.6875,467.40698 L 814.75,465.28198 L 814.8125,462.40698 L 815.4375,461.78198 L 818.0625,462.71948 L 821.8125,461.59448 L 822.875,462.84448 L 824.3125,462.84448 L 825.3125,460.84448 L 826.625,460.09448 L 827.1875,457.78198 L 828.625,456.65698 L 828.9375,452.96948 L 828.4375,451.34448 L 826.5625,450.96948 L 823.9375,448.34448 L 822.9375,447.78198 L 822.9375,445.40698 L 825.3125,443.34448 L 827.6875,437.71948 L 827.6875,435.84448 L 826.75,431.65698 L 827.75,430.28198 L 829.375,430.21948 L 832.8125,427.09448 L 834.75,427.03198 L 836.25,425.90698 L 838.3125,425.09448 L 839.1875,420.28198 L 840.9375,419.53198 L 840,418.09448 L 839.9375,416.40698 L 838.0625,414.03198 L 837.8125,412.34448 L 839.5625,409.90698 L 844.3125,408.34448 L 846.375,405.53198 L 847.5,404.28198 L 849.625,404.15698 L 850.1875,401.84448 L 849,401.15698 L 848.1875,399.78198 L 849.6875,395.96948 L 849.75,391.71948 L 847.9375,390.28198 L 846.875,390.28198 L 845.51993,389.69736 L 843.97313,389.74156 L 841.80763,390.84641 L 841.14463,392.65837 L 838.89083,395.31002 L 837.78593,395.79616 L 833.63163,395.88455 L 831.02423,400.21558 L 832.30583,402.3369 L 831.68713,404.10466 L 829.61003,404.06047 L 827.84223,405.07693 L 825.89773,405.07693 L 824.83703,405.87243 L 822.93673,405.96082 L 820.10823,407.50761 L 817.23564,405.91662 L 814.45141,405.78404 L 814.40722,403.0882 L 813.56753,402.16012 L 811.4904,401.98334 L 811.40201,400.87849 L 802.12124,400.83429 L 796.3318,397.51973 L 794.25467,398.13845 L 790.63075,395.53099 L 789.4817,395.57519 L 788.11168,394.77969 L 785.63681,394.82389 L 783.69227,392.34901 L 784.44357,388.10637 L 783.69227,386.95732 L 783.69227,385.05697 L 782.36644,383.42179 L 792.17755,377.54396 L 792.57529,376.17394 L 791.60302,373.74327 L 793.59073,371.37169 L 793.37198,369.40294 L 791.95658,367.29092 L 791.55883,363.49022 L 786.21133,364.19732 L 783.73646,363.04828 L 782.18966,363.93216 L 778.9193,360.79437 L 766.14718,358.84983 L 758.58998,353.14878 L 757.30834,354.5188 L 755.05444,355.13752 L 752.27021,350.18777 L 750.28147,348.90614 L 748.69048,346.9174 L 747.18788,346.51965 L 744.5,347.28198 L 742.625,349.84448 L 742.625,351.46948 L 740.4375,353.46948 L 740.375,356.59448 z "
     id="path3097"
     sodipodi:nodetypes="cccccccccccccccccccccccccccccccccccccccccccccccccccccccccccccccccccccccccccccccccccccccccccccccccccccccccccccccccccccccccccccccccccccccccccccccccccccccccccccccccccccccccccccccccccccccccccccccccccccccccccccccccccccccccccccccccccccccccccccccccccccccccccccccccccccccccccccccc" />
</svg>
